<svg width="157" height="120" viewBox="0 0 157 120" fill="none" xmlns="http://www.w3.org/2000/svg">
<path d="M44.5136 45.4842C44.2784 42.9008 43.2321 40.8928 41.3744 39.4602C39.5402 38.0042 36.9183 37.2762 33.5087 37.2762C31.2513 37.2762 29.3701 37.5698 27.8652 38.1568C26.3602 38.744 25.2314 39.5542 24.479 40.5875C23.7265 41.5973 23.3385 42.7598 23.3151 44.075C23.268 45.1554 23.4796 46.1064 23.95 46.9285C24.4437 47.7504 25.1493 48.4784 26.0663 49.1125C27.0068 49.723 28.1356 50.2632 29.4523 50.733C30.7692 51.2027 32.2506 51.6136 33.8967 51.9659L40.1046 53.375C43.6788 54.1501 46.8298 55.1834 49.5576 56.475C52.3088 57.7667 54.6132 59.305 56.4709 61.0898C58.352 62.8746 59.7748 64.9296 60.7389 67.2546C61.703 69.5795 62.1968 72.1864 62.2203 75.0751C62.1968 79.6311 61.0446 83.5413 58.7636 86.8058C56.4826 90.0701 53.2023 92.5712 48.9226 94.3091C44.6664 96.047 39.5285 96.9158 33.5087 96.9158C27.4653 96.9158 22.1981 96.0117 17.7068 94.2034C13.2154 92.3951 9.72347 89.6474 7.23089 85.9602C4.73832 82.2731 3.45677 77.6114 3.38623 71.975H20.1052C20.2464 74.3 20.8696 76.2374 21.9746 77.7875C23.0799 79.3374 24.5965 80.5117 26.5248 81.3102C28.4765 82.1087 30.734 82.508 33.2971 82.508C35.6485 82.508 37.6473 82.1909 39.2934 81.5568C40.9628 80.9227 42.2445 80.0421 43.1379 78.9147C44.0315 77.7875 44.4901 76.4958 44.5136 75.0398C44.4901 73.6776 44.0668 72.5152 43.2438 71.5523C42.4209 70.5659 41.1511 69.7205 39.4345 69.0158C37.7413 68.2878 35.5781 67.6186 32.9443 67.008L25.3961 65.2466C19.1411 63.8141 14.2148 61.5008 10.617 58.3069C7.01926 55.0894 5.23213 50.7446 5.25565 45.2728C5.23213 40.8106 6.43139 36.9003 8.85342 33.5421C11.2754 30.1837 14.6263 27.5651 18.9059 25.6864C23.1856 23.8075 28.065 22.8682 33.5439 22.8682C39.1405 22.8682 43.9963 23.8194 48.1113 25.7216C52.25 27.6003 55.4597 30.2424 57.7407 33.6477C60.0217 37.053 61.1856 40.9986 61.2327 45.4842H44.5136ZM45.2134 96V23.8546H75.0536C80.4621 23.8546 85.1298 24.9114 89.0567 27.025C93.0072 29.1152 96.0524 32.039 98.1922 35.7966C100.332 39.5307 101.402 43.8754 101.402 48.8307C101.402 53.8094 100.309 58.1659 98.1217 61.9C95.9583 65.6106 92.8662 68.4875 88.8451 70.5307C84.8242 72.5739 80.0506 73.5955 74.5246 73.5955H56.1125V59.8568H71.2795C73.9133 59.8568 76.1119 59.3989 77.8755 58.4829C79.6625 57.567 81.0147 56.287 81.9318 54.6432C82.8488 52.9757 83.3073 51.0382 83.3073 48.8307C83.3073 46.5997 82.8488 44.6739 81.9318 43.0534C81.0147 41.4094 79.6625 40.1413 77.8755 39.2488C76.0884 38.3565 73.8897 37.9102 71.2795 37.9102H62.6732V96H45.2134ZM78.5882 80.6144C78.5028 80.7595 78.4131 80.8661 78.3191 80.9344C78.225 81.0027 78.1055 81.0368 77.9602 81.0368C77.8064 81.0368 77.6313 80.9685 77.4347 80.832C77.2382 80.6869 76.9905 80.5291 76.6914 80.3584C76.4009 80.1792 76.0506 80.0213 75.6405 79.8848C75.2303 79.7397 74.739 79.6672 74.1666 79.6672C73.6283 79.6672 73.1541 79.7397 72.744 79.8848C72.3423 80.0213 72.0049 80.2133 71.7315 80.4608C71.458 80.6997 71.2488 80.9856 71.1035 81.3184C70.9668 81.6427 70.8984 81.9968 70.8984 82.3808C70.8984 82.8757 71.0222 83.2853 71.2701 83.6096C71.5264 83.9339 71.8596 84.2112 72.2698 84.4416C72.6799 84.672 73.1456 84.8725 73.6667 85.0432C74.1879 85.2139 74.722 85.3931 75.2688 85.5808C75.8156 85.76 76.3497 85.9691 76.8708 86.208C77.392 86.4469 77.8577 86.7499 78.2678 87.1168C78.6779 87.4752 79.0068 87.9189 79.2547 88.448C79.511 88.9685 79.6391 89.6085 79.6391 90.368C79.6391 91.1787 79.4982 91.9381 79.2162 92.6464C78.9427 93.3547 78.5413 93.9733 78.0115 94.5024C77.4817 95.0315 76.828 95.4496 76.0506 95.7568C75.2816 96.0555 74.4058 96.2048 73.4232 96.2048C72.8337 96.2048 72.2613 96.1451 71.7058 96.0256C71.1504 95.9147 70.6249 95.7568 70.1294 95.552C69.6339 95.3387 69.1682 95.0869 68.7325 94.7968C68.3052 94.4981 67.9207 94.1653 67.579 93.7984L68.3608 92.4928C68.4377 92.3904 68.5274 92.3051 68.6299 92.2368C68.7409 92.1685 68.8649 92.1344 69.0016 92.1344C69.181 92.1344 69.3861 92.2283 69.6168 92.416C69.856 92.6037 70.1466 92.8128 70.4883 93.0432C70.8387 93.2651 71.2529 93.4699 71.7315 93.6576C72.2185 93.8453 72.808 93.9392 73.5001 93.9392C74.064 93.9392 74.5682 93.8667 75.0125 93.7216C75.4567 93.568 75.8284 93.3547 76.1275 93.0816C76.4351 92.8 76.6701 92.4629 76.8324 92.0704C76.9947 91.6779 77.0759 91.2427 77.0759 90.7648C77.0759 90.2272 76.952 89.7877 76.7042 89.4464C76.4564 89.1051 76.1275 88.8192 75.7174 88.5888C75.3072 88.3584 74.8415 88.1621 74.3204 88C73.7992 87.8379 73.2651 87.6715 72.7183 87.5008C72.1716 87.3216 71.6374 87.1168 71.1163 86.8864C70.5951 86.656 70.1294 86.3573 69.7193 85.9904C69.3092 85.6149 68.9803 85.1499 68.7325 84.5952C68.4846 84.032 68.3608 83.3408 68.3608 82.5216C68.3608 81.8645 68.4889 81.2288 68.7453 80.6144C69.0016 80 69.3733 79.4581 69.8603 78.9888C70.3558 78.5109 70.9625 78.1312 71.6802 77.8496C72.3979 77.5595 73.2182 77.4144 74.1409 77.4144C75.1747 77.4144 76.1231 77.5808 76.9862 77.9136C77.8577 78.2379 78.6138 78.7072 79.2547 79.3216L78.5882 80.6144ZM87.9702 82.7904C88.9271 82.7904 89.79 82.9483 90.559 83.264C91.3366 83.5712 91.9946 84.0192 92.5329 84.608C93.0796 85.1883 93.4982 85.8923 93.7889 86.72C94.0793 87.5392 94.2246 88.4608 94.2246 89.4848C94.2246 90.5088 94.0793 91.4347 93.7889 92.2624C93.4982 93.0901 93.0796 93.7941 92.5329 94.3744C91.9946 94.9547 91.3366 95.4027 90.559 95.7184C89.79 96.0256 88.9271 96.1792 87.9702 96.1792C87.0047 96.1792 86.1332 96.0256 85.3556 95.7184C84.5866 95.4027 83.9288 94.9547 83.3818 94.3744C82.8351 93.7941 82.4121 93.0901 82.113 92.2624C81.8226 91.4347 81.6773 90.5088 81.6773 89.4848C81.6773 88.4608 81.8226 87.5392 82.113 86.72C82.4121 85.8923 82.8351 85.1883 83.3818 84.608C83.9288 84.0192 84.5866 83.5712 85.3556 83.264C86.1332 82.9483 87.0047 82.7904 87.9702 82.7904ZM87.9702 94.2336C89.2006 94.2336 90.1191 93.8197 90.7256 92.992C91.3323 92.1643 91.6357 90.9995 91.6357 89.4976C91.6357 87.9957 91.3323 86.8309 90.7256 86.0032C90.1191 85.1669 89.2006 84.7488 87.9702 84.7488C86.7227 84.7488 85.7913 85.1669 85.1761 86.0032C84.5696 86.8309 84.2662 87.9957 84.2662 89.4976C84.2662 90.9995 84.5696 92.1643 85.1761 92.992C85.7913 93.8197 86.7227 94.2336 87.9702 94.2336ZM99.5775 77.1072V96H97.0655V77.1072H99.5775ZM108.697 82.7904C109.654 82.7904 110.516 82.9483 111.285 83.264C112.063 83.5712 112.721 84.0192 113.259 84.608C113.806 85.1883 114.225 85.8923 114.515 86.72C114.806 87.5392 114.951 88.4608 114.951 89.4848C114.951 90.5088 114.806 91.4347 114.515 92.2624C114.225 93.0901 113.806 93.7941 113.259 94.3744C112.721 94.9547 112.063 95.4027 111.285 95.7184C110.516 96.0256 109.654 96.1792 108.697 96.1792C107.731 96.1792 106.86 96.0256 106.082 95.7184C105.313 95.4027 104.655 94.9547 104.108 94.3744C103.561 93.7941 103.139 93.0901 102.839 92.2624C102.549 91.4347 102.404 90.5088 102.404 89.4848C102.404 88.4608 102.549 87.5392 102.839 86.72C103.139 85.8923 103.561 85.1883 104.108 84.608C104.655 84.0192 105.313 83.5712 106.082 83.264C106.86 82.9483 107.731 82.7904 108.697 82.7904ZM108.697 94.2336C109.927 94.2336 110.845 93.8197 111.452 92.992C112.059 92.1643 112.362 90.9995 112.362 89.4976C112.362 87.9957 112.059 86.8309 111.452 86.0032C110.845 85.1669 109.927 84.7488 108.697 84.7488C107.449 84.7488 106.518 85.1669 105.903 86.0032C105.296 86.8309 104.993 87.9957 104.993 89.4976C104.993 90.9995 105.296 92.1643 105.903 92.992C106.518 93.8197 107.449 94.2336 108.697 94.2336ZM123.428 87.0784C124.12 87.0784 124.727 86.9888 125.248 86.8096C125.778 86.6304 126.218 86.3787 126.568 86.0544C126.927 85.7216 127.196 85.3291 127.375 84.8768C127.555 84.416 127.644 83.9083 127.644 83.3536C127.644 82.2357 127.294 81.3568 126.594 80.7168C125.901 80.0768 124.846 79.7568 123.428 79.7568H120.583V87.0784H123.428ZM123.428 77.6192C124.607 77.6192 125.632 77.7557 126.504 78.0288C127.375 78.3019 128.097 78.6901 128.67 79.1936C129.242 79.6885 129.665 80.2901 129.939 80.9984C130.221 81.7067 130.362 82.4917 130.362 83.3536C130.362 84.2155 130.212 85.0091 129.913 85.7344C129.614 86.4512 129.174 87.0699 128.593 87.5904C128.012 88.1109 127.286 88.5163 126.414 88.8064C125.551 89.088 124.556 89.2288 123.428 89.2288H120.583V96H117.853V77.6192H123.428ZM139.457 90.2272C138.44 90.2613 137.577 90.3424 136.868 90.4704C136.159 90.5899 135.582 90.752 135.138 90.9568C134.694 91.1616 134.373 91.4048 134.177 91.6864C133.98 91.9595 133.882 92.2667 133.882 92.608C133.882 92.9323 133.933 93.2139 134.036 93.4528C134.147 93.6832 134.292 93.8752 134.472 94.0288C134.66 94.1739 134.878 94.2805 135.125 94.3488C135.373 94.4171 135.642 94.4512 135.933 94.4512C136.317 94.4512 136.667 94.4128 136.984 94.336C137.308 94.2592 137.612 94.1525 137.894 94.016C138.175 93.8709 138.445 93.696 138.701 93.4912C138.957 93.2864 139.209 93.0517 139.457 92.7872V90.2272ZM132.126 84.8128C132.853 84.1216 133.639 83.6053 134.484 83.264C135.339 82.9227 136.275 82.752 137.291 82.752C138.035 82.752 138.692 82.8757 139.265 83.1232C139.837 83.3621 140.32 83.6992 140.713 84.1344C141.106 84.5696 141.401 85.0901 141.597 85.696C141.802 86.3019 141.905 86.9717 141.905 87.7056V96H140.79C140.542 96 140.354 95.9616 140.226 95.8848C140.098 95.7995 139.995 95.6459 139.919 95.424L139.649 94.2848C139.316 94.592 138.987 94.8651 138.662 95.104C138.338 95.3344 137.996 95.5349 137.637 95.7056C137.287 95.8677 136.911 95.9915 136.509 96.0768C136.108 96.1621 135.663 96.2048 135.176 96.2048C134.664 96.2048 134.181 96.1365 133.728 96C133.284 95.8549 132.895 95.6373 132.562 95.3472C132.229 95.0571 131.964 94.6944 131.767 94.2592C131.579 93.824 131.485 93.3163 131.485 92.736C131.485 92.224 131.622 91.7333 131.895 91.264C132.177 90.7861 132.63 90.3595 133.254 89.984C133.886 89.6085 134.707 89.3013 135.715 89.0624C136.732 88.8235 137.979 88.6869 139.457 88.6528V87.7056C139.457 86.7243 139.248 85.9904 138.829 85.504C138.41 85.0176 137.795 84.7744 136.984 84.7744C136.437 84.7744 135.975 84.8427 135.599 84.9792C135.232 85.1157 134.912 85.2693 134.638 85.44C134.373 85.6021 134.138 85.7515 133.933 85.888C133.737 86.0245 133.532 86.0928 133.318 86.0928C133.147 86.0928 132.998 86.0459 132.87 85.952C132.75 85.8581 132.652 85.7472 132.575 85.6192L132.126 84.8128ZM156.306 82.9952L149.078 99.776C149.001 99.9637 148.898 100.109 148.77 100.211C148.642 100.314 148.454 100.365 148.206 100.365H146.348L148.732 95.1808L143.387 82.9952H145.566C145.78 82.9952 145.946 83.0464 146.066 83.1488C146.186 83.2512 146.271 83.3664 146.322 83.4944L149.629 91.3024C149.697 91.4987 149.761 91.6992 149.821 91.904C149.889 92.1003 149.945 92.2965 149.988 92.4928C150.048 92.288 150.112 92.0875 150.18 91.8912C150.248 91.6864 150.321 91.4859 150.398 91.2896L153.589 83.4944C153.649 83.3493 153.743 83.2299 153.871 83.136C153.999 83.0421 154.144 82.9952 154.307 82.9952H156.306Z" fill="white"/>
</svg>
