<svg width="66" height="75" viewBox="0 0 66 75" fill="none" xmlns="http://www.w3.org/2000/svg">
<path d="M27.7855 28.4276C27.6387 26.813 26.9856 25.558 25.826 24.6626C24.6811 23.7526 23.0445 23.2976 20.9162 23.2976C19.5071 23.2976 18.3329 23.4811 17.3935 23.848C16.4541 24.215 15.7495 24.7214 15.2798 25.3672C14.8101 25.9983 14.5679 26.7249 14.5533 27.5469C14.5239 28.2221 14.656 28.8165 14.9496 29.3303C15.2578 29.844 15.6982 30.299 16.2706 30.6953C16.8577 31.0769 17.5623 31.4145 18.3842 31.7081C19.2062 32.0017 20.1309 32.2585 21.1584 32.4787L25.0334 33.3594C27.2644 33.8438 29.2313 34.4896 30.934 35.2969C32.6513 36.1042 34.0897 37.0656 35.2493 38.1811C36.4235 39.2966 37.3116 40.581 37.9134 42.0341C38.5152 43.4872 38.8234 45.1165 38.8381 46.9219C38.8234 49.7694 38.1042 52.2133 36.6804 54.2536C35.2566 56.2938 33.209 57.857 30.5376 58.9432C27.8809 60.0294 24.6738 60.5724 20.9162 60.5724C17.1439 60.5724 13.8561 60.0073 11.0526 58.8771C8.24905 57.7469 6.06937 56.0296 4.51349 53.7251C2.95762 51.4207 2.15767 48.5071 2.11364 44.9844H12.5497C12.6378 46.4375 13.0268 47.6484 13.7166 48.6172C14.4065 49.5859 15.3532 50.3198 16.5568 50.8189C17.7751 51.3179 19.1842 51.5675 20.7841 51.5675C22.2519 51.5675 23.4995 51.3693 24.527 50.973C25.5691 50.5767 26.3691 50.0263 26.9268 49.3217C27.4846 48.6172 27.7708 47.8099 27.7855 46.8999C27.7708 46.0485 27.5066 45.322 26.9929 44.7202C26.4792 44.1037 25.6866 43.5753 24.6151 43.1349C23.5582 42.6799 22.2079 42.2616 20.5639 41.88L15.8523 40.7791C11.9479 39.8838 8.87287 38.438 6.62713 36.4418C4.38139 34.4309 3.26586 31.7154 3.28054 28.2955C3.26586 25.5066 4.01444 23.0627 5.52628 20.9638C7.03812 18.8648 9.12974 17.2282 11.8011 16.054C14.4725 14.8797 17.5182 14.2926 20.9382 14.2926C24.4316 14.2926 27.4626 14.8871 30.0312 16.076C32.6146 17.2502 34.6181 18.9015 36.0419 21.0298C37.4657 23.1581 38.1922 25.6241 38.2216 28.4276H27.7855Z" fill="#52C7AB"/>
<path d="M28.2223 60V14.9091H46.8487C50.2247 14.9091 53.1383 15.5696 55.5895 16.8906C58.0554 18.197 59.9562 20.0244 61.2919 22.3729C62.6276 24.7067 63.2955 27.4221 63.2955 30.5192C63.2955 33.6309 62.613 36.3537 61.2479 38.6875C59.8975 41.0066 57.9674 42.8047 55.4574 44.0817C52.9475 45.3587 49.9678 45.9972 46.5185 45.9972H35.0256V37.4105H44.4929C46.1369 37.4105 47.5093 37.1243 48.6101 36.5518C49.7256 35.9794 50.5696 35.1794 51.1421 34.152C51.7145 33.1098 52.0007 31.8989 52.0007 30.5192C52.0007 29.1248 51.7145 27.9212 51.1421 26.9084C50.5696 25.8809 49.7256 25.0883 48.6101 24.5305C47.4946 23.9728 46.1222 23.6939 44.4929 23.6939H39.1208V60H28.2223Z" fill="#5159FA"/>
</svg>
