<svg width="105" height="75" viewBox="0 0 105 75" fill="none" xmlns="http://www.w3.org/2000/svg">
<path d="M27.7855 28.4276C27.6387 26.813 26.9856 25.558 25.826 24.6626C24.6811 23.7526 23.0445 23.2976 20.9162 23.2976C19.5071 23.2976 18.3329 23.4811 17.3935 23.848C16.4541 24.215 15.7495 24.7214 15.2798 25.3672C14.8101 25.9983 14.5679 26.7249 14.5533 27.5469C14.5239 28.2221 14.656 28.8165 14.9496 29.3303C15.2578 29.844 15.6982 30.299 16.2706 30.6953C16.8577 31.0769 17.5623 31.4145 18.3842 31.7081C19.2062 32.0017 20.1309 32.2585 21.1584 32.4787L25.0334 33.3594C27.2644 33.8438 29.2313 34.4896 30.934 35.2969C32.6513 36.1042 34.0897 37.0656 35.2493 38.1811C36.4235 39.2966 37.3116 40.581 37.9134 42.0341C38.5152 43.4872 38.8234 45.1165 38.8381 46.9219C38.8234 49.7694 38.1042 52.2133 36.6804 54.2536C35.2566 56.2938 33.209 57.857 30.5376 58.9432C27.8809 60.0294 24.6738 60.5724 20.9162 60.5724C17.1439 60.5724 13.8561 60.0073 11.0526 58.8771C8.24905 57.7469 6.06937 56.0296 4.51349 53.7251C2.95762 51.4207 2.15767 48.5071 2.11364 44.9844H12.5497C12.6378 46.4375 13.0268 47.6484 13.7166 48.6172C14.4065 49.5859 15.3532 50.3198 16.5568 50.8189C17.7751 51.3179 19.1842 51.5675 20.7841 51.5675C22.2519 51.5675 23.4995 51.3693 24.527 50.973C25.5691 50.5767 26.3691 50.0263 26.9268 49.3217C27.4846 48.6172 27.7708 47.8099 27.7855 46.8999C27.7708 46.0485 27.5066 45.322 26.9929 44.7202C26.4792 44.1037 25.6866 43.5753 24.6151 43.1349C23.5582 42.6799 22.2079 42.2616 20.5639 41.88L15.8523 40.7791C11.9479 39.8838 8.87287 38.438 6.62713 36.4418C4.38139 34.4309 3.26586 31.7154 3.28054 28.2955C3.26586 25.5066 4.01444 23.0627 5.52628 20.9638C7.03812 18.8648 9.12974 17.2282 11.8011 16.054C14.4725 14.8797 17.5182 14.2926 20.9382 14.2926C24.4316 14.2926 27.4626 14.8871 30.0312 16.076C32.6146 17.2502 34.6181 18.9015 36.0419 21.0298C37.4657 23.1581 38.1922 25.6241 38.2216 28.4276H27.7855ZM48.2455 51.8523C48.2076 51.4356 48.039 51.1117 47.7398 50.8807C47.4443 50.6458 47.022 50.5284 46.4727 50.5284C46.1091 50.5284 45.8061 50.5758 45.5636 50.6705C45.3212 50.7652 45.1394 50.8958 45.0182 51.0625C44.897 51.2254 44.8345 51.4129 44.8307 51.625C44.8231 51.7992 44.8572 51.9527 44.933 52.0852C45.0125 52.2178 45.1261 52.3352 45.2739 52.4375C45.4254 52.536 45.6072 52.6231 45.8193 52.6989C46.0314 52.7746 46.2701 52.8409 46.5352 52.8977L47.5352 53.125C48.111 53.25 48.6186 53.4167 49.058 53.625C49.5011 53.8333 49.8723 54.0814 50.1716 54.3693C50.4746 54.6572 50.7038 54.9886 50.8591 55.3636C51.0144 55.7386 51.0939 56.1591 51.0977 56.625C51.0939 57.3598 50.9083 57.9905 50.5409 58.517C50.1735 59.0436 49.6451 59.447 48.9557 59.7273C48.2701 60.0076 47.4424 60.1477 46.4727 60.1477C45.4992 60.1477 44.6508 60.0019 43.9273 59.7102C43.2038 59.4186 42.6413 58.9754 42.2398 58.3807C41.8383 57.786 41.6318 57.0341 41.6205 56.125H44.3136C44.3364 56.5 44.4367 56.8125 44.6148 57.0625C44.7928 57.3125 45.0371 57.5019 45.3477 57.6307C45.6621 57.7595 46.0258 57.8239 46.4386 57.8239C46.8174 57.8239 47.1394 57.7727 47.4045 57.6705C47.6735 57.5682 47.8799 57.4261 48.0239 57.2443C48.1678 57.0625 48.2417 56.8542 48.2455 56.6193C48.2417 56.3996 48.1735 56.2121 48.0409 56.0568C47.9083 55.8977 47.7038 55.7614 47.4273 55.6477C47.1545 55.5303 46.8061 55.4223 46.3818 55.3239L45.1659 55.0398C44.1583 54.8087 43.3648 54.4356 42.7852 53.9205C42.2057 53.4015 41.9178 52.7008 41.9216 51.8182C41.9178 51.0985 42.111 50.4678 42.5011 49.9261C42.8913 49.3845 43.4311 48.9621 44.1205 48.6591C44.8098 48.3561 45.5958 48.2045 46.4784 48.2045C47.3799 48.2045 48.1621 48.358 48.825 48.6648C49.4917 48.9678 50.0087 49.3939 50.3761 49.9432C50.7436 50.4924 50.9311 51.1288 50.9386 51.8523H48.2455ZM56.592 60.1648C55.6754 60.1648 54.8875 59.9773 54.2284 59.6023C53.5731 59.2235 53.0674 58.697 52.7114 58.0227C52.3591 57.3447 52.183 56.5587 52.183 55.6648C52.183 54.767 52.3591 53.9811 52.7114 53.3068C53.0674 52.6288 53.5731 52.1023 54.2284 51.7273C54.8875 51.3485 55.6754 51.1591 56.592 51.1591C57.5087 51.1591 58.2947 51.3485 58.95 51.7273C59.6091 52.1023 60.1148 52.6288 60.467 53.3068C60.8231 53.9811 61.0011 54.767 61.0011 55.6648C61.0011 56.5587 60.8231 57.3447 60.467 58.0227C60.1148 58.697 59.6091 59.2235 58.95 59.6023C58.2947 59.9773 57.5087 60.1648 56.592 60.1648ZM56.6091 58.0682C56.9424 58.0682 57.2246 57.9659 57.4557 57.7614C57.6867 57.5568 57.8629 57.2727 57.9841 56.9091C58.1091 56.5455 58.1716 56.125 58.1716 55.6477C58.1716 55.1629 58.1091 54.7386 57.9841 54.375C57.8629 54.0114 57.6867 53.7273 57.4557 53.5227C57.2246 53.3182 56.9424 53.2159 56.6091 53.2159C56.2644 53.2159 55.9727 53.3182 55.7341 53.5227C55.4992 53.7273 55.3193 54.0114 55.1943 54.375C55.0731 54.7386 55.0125 55.1629 55.0125 55.6477C55.0125 56.125 55.0731 56.5455 55.1943 56.9091C55.3193 57.2727 55.4992 57.5568 55.7341 57.7614C55.9727 57.9659 56.2644 58.0682 56.6091 58.0682ZM65.2028 48.3636V60H62.4244V48.3636H65.2028ZM71.0452 60.1648C70.1285 60.1648 69.3406 59.9773 68.6815 59.6023C68.0262 59.2235 67.5205 58.697 67.1645 58.0227C66.8122 57.3447 66.6361 56.5587 66.6361 55.6648C66.6361 54.767 66.8122 53.9811 67.1645 53.3068C67.5205 52.6288 68.0262 52.1023 68.6815 51.7273C69.3406 51.3485 70.1285 51.1591 71.0452 51.1591C71.9618 51.1591 72.7478 51.3485 73.4031 51.7273C74.0622 52.1023 74.5679 52.6288 74.9202 53.3068C75.2762 53.9811 75.4543 54.767 75.4543 55.6648C75.4543 56.5587 75.2762 57.3447 74.9202 58.0227C74.5679 58.697 74.0622 59.2235 73.4031 59.6023C72.7478 59.9773 71.9618 60.1648 71.0452 60.1648ZM71.0622 58.0682C71.3955 58.0682 71.6777 57.9659 71.9088 57.7614C72.1399 57.5568 72.316 57.2727 72.4372 56.9091C72.5622 56.5455 72.6247 56.125 72.6247 55.6477C72.6247 55.1629 72.5622 54.7386 72.4372 54.375C72.316 54.0114 72.1399 53.7273 71.9088 53.5227C71.6777 53.3182 71.3955 53.2159 71.0622 53.2159C70.7175 53.2159 70.4258 53.3182 70.1872 53.5227C69.9524 53.7273 69.7724 54.0114 69.6474 54.375C69.5262 54.7386 69.4656 55.1629 69.4656 55.6477C69.4656 56.125 69.5262 56.5455 69.6474 56.9091C69.7724 57.2727 69.9524 57.5568 70.1872 57.7614C70.4258 57.9659 70.7175 58.0682 71.0622 58.0682Z" fill="#52C7AB"/>
<path d="M28.2223 60V14.9091H46.8487C50.2247 14.9091 53.1383 15.5696 55.5895 16.8906C58.0554 18.197 59.9562 20.0244 61.2919 22.3729C62.6276 24.7067 63.2955 27.4221 63.2955 30.5192C63.2955 33.6309 62.613 36.3537 61.2479 38.6875C59.8975 41.0066 57.9674 42.8047 55.4574 44.0817C52.9475 45.3587 49.9678 45.9972 46.5185 45.9972H35.0256V37.4105H44.4929C46.1369 37.4105 47.5093 37.1243 48.6101 36.5518C49.7256 35.9794 50.5696 35.1794 51.1421 34.152C51.7145 33.1098 52.0007 31.8989 52.0007 30.5192C52.0007 29.1248 51.7145 27.9212 51.1421 26.9084C50.5696 25.8809 49.7256 25.0883 48.6101 24.5305C47.4946 23.9728 46.1222 23.6939 44.4929 23.6939H39.1208V60H28.2223ZM76.8776 60V48.3636H81.6844C82.5556 48.3636 83.3075 48.5341 83.9401 48.875C84.5764 49.2121 85.0669 49.6837 85.4116 50.2898C85.7563 50.892 85.9287 51.5928 85.9287 52.392C85.9287 53.1951 85.7526 53.8977 85.4003 54.5C85.0518 55.0985 84.5537 55.5625 83.906 55.892C83.2582 56.2216 82.4893 56.3864 81.5991 56.3864H78.6332V54.1705H81.0764C81.5007 54.1705 81.8548 54.0966 82.1389 53.9489C82.4268 53.8011 82.6446 53.5947 82.7923 53.3295C82.9401 53.0606 83.0139 52.7481 83.0139 52.392C83.0139 52.0322 82.9401 51.7216 82.7923 51.4602C82.6446 51.1951 82.4268 50.9905 82.1389 50.8466C81.851 50.7027 81.4969 50.6307 81.0764 50.6307H79.6901V60H76.8776ZM89.4628 60.1477C88.906 60.1477 88.4116 60.0549 87.9798 59.8693C87.5518 59.6799 87.2128 59.3958 86.9628 59.017C86.7166 58.6345 86.5935 58.1553 86.5935 57.5795C86.5935 57.0947 86.6787 56.6856 86.8491 56.3523C87.0196 56.0189 87.2544 55.7481 87.5537 55.5398C87.8529 55.3314 88.1976 55.1742 88.5878 55.0682C88.9779 54.9583 89.3946 54.8845 89.8378 54.8466C90.334 54.8011 90.7336 54.7538 91.0366 54.7045C91.3397 54.6515 91.5594 54.5777 91.6957 54.483C91.8359 54.3845 91.906 54.2462 91.906 54.0682V54.0398C91.906 53.7481 91.8056 53.5227 91.6048 53.3636C91.4041 53.2045 91.1332 53.125 90.7923 53.125C90.4249 53.125 90.1294 53.2045 89.906 53.3636C89.6825 53.5227 89.5404 53.7424 89.4798 54.0227L86.9173 53.9318C86.9931 53.4015 87.1882 52.928 87.5026 52.5114C87.8207 52.0909 88.2563 51.7614 88.8094 51.5227C89.3662 51.2803 90.0348 51.1591 90.8151 51.1591C91.3719 51.1591 91.8851 51.2254 92.3548 51.358C92.8245 51.4867 93.2336 51.6761 93.5821 51.9261C93.9306 52.1723 94.1995 52.4754 94.3889 52.8352C94.5821 53.1951 94.6787 53.6061 94.6787 54.0682V60H92.0651V58.7841H91.9969C91.8416 59.0795 91.6427 59.3295 91.4003 59.5341C91.1616 59.7386 90.8794 59.892 90.5537 59.9943C90.2317 60.0966 89.8681 60.1477 89.4628 60.1477ZM90.3207 58.3295C90.62 58.3295 90.8889 58.2689 91.1276 58.1477C91.37 58.0265 91.5632 57.8598 91.7071 57.6477C91.851 57.4318 91.923 57.1818 91.923 56.8977V56.0682C91.8435 56.1098 91.7469 56.1477 91.6332 56.1818C91.5234 56.2159 91.4022 56.2481 91.2696 56.2784C91.137 56.3087 91.0007 56.3352 90.8605 56.358C90.7204 56.3807 90.5859 56.4015 90.4571 56.4205C90.1957 56.4621 89.9723 56.5265 89.7866 56.6136C89.6048 56.7008 89.4647 56.8144 89.3662 56.9545C89.2715 57.0909 89.2241 57.2538 89.2241 57.4432C89.2241 57.7311 89.3264 57.9508 89.531 58.1023C89.7393 58.2538 90.0026 58.3295 90.3207 58.3295ZM97.7639 63.2727C97.4306 63.2727 97.1162 63.2462 96.8207 63.1932C96.5253 63.1439 96.2715 63.0777 96.0594 62.9943L96.673 60.9773C96.9457 61.0682 97.1919 61.1212 97.4116 61.1364C97.6351 61.1515 97.8264 61.1155 97.9855 61.0284C98.1484 60.9451 98.2734 60.7955 98.3605 60.5795L98.4685 60.3182L95.3662 51.2727H98.2753L99.8832 57.5H99.9741L101.605 51.2727H104.531L101.241 60.8352C101.082 61.3125 100.857 61.733 100.565 62.0966C100.277 62.464 99.9041 62.7519 99.4457 62.9602C98.9912 63.1686 98.4306 63.2727 97.7639 63.2727Z" fill="#5158F7"/>
</svg>
