<?xml version="1.0" encoding="UTF-8" standalone="no"?>
<!-- Created with Inkscape (http://www.inkscape.org/) -->

<svg
   xmlns:dc="http://purl.org/dc/elements/1.1/"
   xmlns:cc="http://creativecommons.org/ns#"
   xmlns:rdf="http://www.w3.org/1999/02/22-rdf-syntax-ns#"
   xmlns:svg="http://www.w3.org/2000/svg"
   xmlns="http://www.w3.org/2000/svg"
   xmlns:sodipodi="http://sodipodi.sourceforge.net/DTD/sodipodi-0.dtd"
   xmlns:inkscape="http://www.inkscape.org/namespaces/inkscape"
   version="1.1"
   id="svg815"
   width="931.7464"
   height="315.95612"
   viewBox="0 0 931.74647 315.95612"
   sodipodi:docname="Kredivo.svg"
   inkscape:version="0.92.3 (2405546, 2018-03-11)">
  <metadata
     id="metadata821">
    <rdf:RDF>
      <cc:Work
         rdf:about="">
        <dc:format>image/svg+xml</dc:format>
        <dc:type
           rdf:resource="http://purl.org/dc/dcmitype/StillImage" />
        <dc:title></dc:title>
      </cc:Work>
    </rdf:RDF>
  </metadata>
  <defs
     id="defs819" />
  <sodipodi:namedview
     pagecolor="#ffffff"
     bordercolor="#666666"
     borderopacity="1"
     objecttolerance="10"
     gridtolerance="10"
     guidetolerance="10"
     inkscape:pageopacity="0"
     inkscape:pageshadow="2"
     inkscape:window-width="1366"
     inkscape:window-height="745"
     id="namedview817"
     showgrid="false"
     fit-margin-top="0"
     fit-margin-left="0"
     fit-margin-right="0"
     fit-margin-bottom="0"
     inkscape:zoom="0.3935362"
     inkscape:cx="590.74747"
     inkscape:cy="-340.75859"
     inkscape:window-x="-8"
     inkscape:window-y="-8"
     inkscape:window-maximized="1"
     inkscape:current-layer="svg815" />
  <g
     id="g907"
     transform="scale(0.67451479)">
    <path
       inkscape:connector-curvature="0"
       id="path889"
       d="m 253.87329,439.72015 c -40.09705,-45.0928 -65.99005,-73.8328 -73.87568,-81.9984 -7.04059,-7.2906 -9.20073,-11.1021 -9.2501,-16.3216 -0.0204,-2.1503 0.11913,-3.0338 0.66592,-4.2185 0.79909,-1.7314 -0.15765,-0.7019 27.61743,-29.7193 11.69894,-12.2222 22.77942,-23.8062 24.6233,-25.7422 9.34864,-9.8158 10.15958,-10.5849 12.39334,-11.7545 5.4689,-2.8636 10.25088,-3.0929 15.0577,-0.7221 2.74307,1.3529 0.20102,-1.3249 32.9569,34.7166 13.19632,14.52 35.93283,39.5054 50.5256,55.5231 28.38714,31.1589 51.40794,56.5558 55.97901,61.7569 4.43325,5.0443 5.75264,8.4995 5.74317,15.04 -0.009,6.0558 -1.69971,10.2315 -5.17293,12.7745 -3.10954,2.2768 2.23584,2.1055 -65.73101,2.1055 h -61.36007 z"
       style="fill:#48bbe5;fill-opacity:1;stroke-width:0.32000002" />
    <path
       inkscape:connector-curvature="0"
       d="m 1344.3201,424.45375 v -25.4265 l 2.16,-0.6378 c 7.581,-2.2389 11.175,-2.8979 17.04,-3.1245 6.4354,-0.2487 15.3575,1.0452 15.3612,2.2276 0,0.5246 -2.277,11.8782 -2.4124,12.0202 -0.059,0.062 -1.5207,-0.1857 -3.2481,-0.5505 -4.3129,-0.9105 -7.7366,-1.1014 -10.9807,-0.6122 l -2.72,0.4101 -0.082,20.56 -0.082,20.56 h -7.5176 -7.5177 z m -405.69841,-12.0186 c 6.2571,-0.5933 9.6363,-2.1302 11.2976,-5.1382 0.8942,-1.6191 0.9592,-1.9644 0.96,-5.0968 0,-2.8404 -0.107,-3.5613 -0.6961,-4.6618 -1.5549,-2.905 -4.4984,-4.5808 -9.193,-5.2337 -2.7549,-0.3832 -7.1454,-0.4452 -9.7101,-0.1371 l -1.68,0.2018 v 10.1954 10.1954 l 2.8,-2e-4 c 1.54,-2e-4 4.3397,-0.1463 6.2216,-0.3248 z m -25.0216,2.6187 v -34.8264 l 3.6,-0.5322 c 7.8075,-1.1541 19.1111,-1.517 25.5874,-0.8214 4.873,0.5233 10.1254,1.9475 13.6803,3.7093 5.2213,2.5877 8.6009,6.6347 10.1113,12.1081 0.8105,2.9372 0.9837,9.98 0.327,13.2976 -1.3016,6.5756 -4.7249,11.038 -10.746,14.0082 -5.6122,2.7685 -10.7285,3.7974 -20.4,4.1024 l -6.16,0.1942 v 11.7933 11.7932 h -8 -8 z m -128.99486,33.3063 c -1.27261,-2.9664 -4.73514,-12.4951 -6.94784,-19.12 -4.01667,-12.0259 -9.97735,-31.5575 -9.97735,-32.6932 0,-0.344 1.517,-0.4268 7.82769,-0.4268 h 7.82764 l 0.313,1.2 c 0.17216,0.66 1.12512,4.8 2.11769,9.2 1.55421,6.8898 4.96768,20.6977 5.85395,23.68 0.27527,0.9264 0.30989,0.8815 0.98714,-1.28 0.94246,-3.0079 5.08758,-18.6619 6.99059,-26.4 l 1.53463,-6.24 5.43382,-0.086 5.43386,-0.086 2.64893,11.0061 c 2.51328,10.4426 5.91923,23.441 6.22134,23.7431 0.33366,0.3337 4.15834,-14.5332 6.98118,-27.1369 l 1.70221,-7.6 h 7.82317 7.82317 l -0.20685,1.04 c -0.37737,1.8974 -5.32182,18.1179 -8.24557,27.05 -3.03078,9.2591 -5.01382,14.8398 -7.67433,21.597 l -1.60916,4.0869 -5.91817,-0.087 -5.91818,-0.087 -3.1183,-9.6 c -1.71507,-5.28 -3.8208,-12.0854 -4.67943,-15.1231 -0.85859,-3.0377 -1.65952,-5.3417 -1.77981,-5.12 -0.12028,0.2217 -0.80617,2.5631 -1.52422,5.2031 -1.56704,5.7615 -3.27322,11.4766 -5.70806,19.12 l -1.80938,5.68 h -5.87565 -5.87565 z m -141.72519,-24.3435 v -25.8752 l 1.2,-0.3527 c 2.22512,-0.654 7.86781,-1.6785 12.06758,-2.191 5.91757,-0.7221 15.37696,-0.4726 18.67757,0.4927 3.63968,1.0645 6.05591,2.4438 8.39635,4.7928 3.5328,3.5457 5.14932,7.8655 5.76176,15.3969 0.17911,2.2025 0.28292,10.6149 0.23101,18.72 l -0.0943,14.72 -7.58234,0.086 -7.5823,0.086 -0.10941,-17.3657 c -0.095,-15.0791 -0.17869,-17.57 -0.63571,-18.9168 -1.61197,-4.7506 -4.2392,-5.9988 -11.57389,-5.4989 l -3.39171,0.2312 -0.0823,20.6894 -0.0823,20.6893 -7.6,0.086 -7.6,0.086 z m 602.40006,26.296 c -6.7411,-1.4306 -11.4441,-5.8819 -13.1101,-12.4083 -1.0099,-3.9563 -1.1299,-7.2445 -1.1299,-30.9697 v -23.9223 l 0.72,-0.1674 c 0.396,-0.092 3.456,-0.5982 6.8,-1.1248 3.344,-0.5266 6.404,-1.0327 6.8,-1.1248 l 0.72,-0.1674 v 7.8461 7.8461 h 9.12 9.12 v 6.4 6.4 h -9.1483 -9.1483 l 0.1342,11.12 c 0.1438,11.9171 0.2806,13.0176 1.9205,15.451 1.399,2.076 2.3998,2.393 7.4419,2.3572 3.5101,-0.025 4.9528,-0.1729 6.664,-0.6837 1.5235,-0.4547 2.2177,-0.5419 2.2957,-0.2882 0.061,0.2001 0.5502,2.806 1.0862,5.7909 0.7488,4.1703 0.8841,5.4864 0.5843,5.6827 -0.6327,0.4144 -5.3538,1.7855 -7.409,2.1518 -2.7549,0.4909 -10.7884,0.378 -13.4612,-0.1892 z m -47.44,-11.532 c 0.132,-0.076 0.24,-2.7054 0.24,-5.843 v -5.7048 l -1.4753,-0.2213 c -2.6647,-0.3995 -8.4976,-0.2222 -10.2892,0.3129 -1.9186,0.5731 -3.6513,1.9453 -4.2346,3.3535 -0.574,1.3858 -0.2755,4.5998 0.5282,5.6865 0.9242,1.2498 2.9547,2.2863 5.1217,2.6145 1.7412,0.2638 9.574,0.1101 10.1092,-0.1983 z m -15.28,11.6122 c -3.6257,-0.6063 -5.1108,-1.0594 -7.6289,-2.3275 -5.5319,-2.7858 -8.2003,-7.5565 -8.2026,-14.6652 0,-7.3238 3.3627,-12.2118 10.2305,-14.8603 3.9215,-1.5123 8.1217,-2.054 14.2293,-1.8352 2.8224,0.1011 5.5485,0.2837 6.058,0.4058 l 0.9263,0.2221 -0.1619,-2.2623 c -0.2711,-3.7899 -2.1537,-6.154 -5.6907,-7.1464 -3.0698,-0.8613 -12.5897,-0.2302 -17.1051,1.134 -0.8718,0.2634 -1.6083,0.4482 -1.6367,0.4106 -0.029,-0.038 -0.4762,-2.7323 -0.9951,-5.9883 -0.6963,-4.3702 -0.8462,-5.9797 -0.5726,-6.1482 0.7386,-0.4549 6.363,-1.5533 10.3284,-2.0172 9.2626,-1.0835 16.6853,-0.1989 21.8308,2.6016 2.2778,1.2397 5.2759,4.4949 6.3774,6.9242 1.9658,4.3354 2.025,5.0215 2.1662,25.0886 l 0.1287,18.289 -1.701,0.3649 c -6.8241,1.4642 -11.4585,1.9886 -18.661,2.1119 -5.1921,0.089 -8.1141,-2e-4 -9.92,-0.3021 z m -34.7626,0.1032 c -7.2014,-0.7636 -12.3135,-3.6025 -14.4872,-8.0453 -1.7749,-3.6279 -1.7903,-3.9533 -1.79,-37.9587 l 3e-4,-31.2519 6.7997,-1.0678 c 3.7399,-0.5874 7.1196,-1.142 7.5106,-1.2324 l 0.7108,-0.1645 0.089,30.9924 c 0.083,28.9701 0.1265,31.0751 0.6614,32.2606 0.3147,0.6976 0.8187,1.5409 1.12,1.8741 0.8133,0.8993 2.7596,1.8041 4.3501,2.0221 0.7724,0.1059 1.5706,0.2952 1.7737,0.4207 0.2709,0.1674 0.089,1.8629 -0.6818,6.3615 l -1.0512,6.1333 -1.2815,-0.043 c -0.7049,-0.023 -2.3807,-0.1591 -3.7241,-0.3015 z m -139.2301,-11.6805 0.7274,-0.1512 -0.087,-5.6593 -0.087,-5.6592 -1.12,-0.2518 c -1.7063,-0.3836 -8.27611,-0.3453 -10.08001,0.059 -3.5582,0.7971 -5.5482,3.2956 -5.1698,6.491 0.1028,0.8679 0.4485,2.0259 0.7681,2.5732 0.7446,1.2749 3.0888,2.4791 5.4393,2.794 1.78751,0.2395 8.13851,0.1103 9.60971,-0.1956 z m -14.46061,11.6704 c -9.9506,-1.4512 -15.2292,-6.0999 -16.2676,-14.3263 -1.2106,-9.5914 3.5549,-16.2074 13.4483,-18.6702 2.3283,-0.5796 3.7501,-0.6979 8.5526,-0.7122 3.16801,-0.01 6.60801,0.1038 7.64451,0.2515 l 1.8846,0.2686 -0.2279,-2.0148 c -0.1254,-1.1082 -0.4155,-2.4635 -0.6446,-3.0119 -0.647,-1.5486 -2.2951,-3.2323 -3.723,-3.8037 -3.9057,-1.5627 -11.22321,-1.258 -19.78271,0.824 -0.3485,0.085 -0.6546,-1.1788 -1.3669,-5.6421 -0.5048,-3.1632 -0.8588,-5.9051 -0.7866,-6.093 0.1499,-0.3906 3.38,-1.1827 8.0426,-1.9722 4.659,-0.7889 14.47091,-0.7872 17.92001,0 5.9301,1.3589 10.4338,4.5447 12.5246,8.8599 2.1651,4.4682 2.1465,4.2641 2.2756,25.003 l 0.1168,18.7695 -1.5385,0.3257 c -3.9469,0.8356 -9.2135,1.6701 -12.4185,1.9678 -4.1295,0.3835 -12.94371,0.3685 -15.65331,-0.027 z m -489.14676,-0.1431 c -8.19408,-1.7587 -12.92727,-6.3205 -15.0888,-14.5427 -0.69296,-2.6359 -0.71863,-3.2914 -0.82989,-21.2 l -0.11478,-18.48 h 7.53673 7.53674 l 0.003,15.6 c 0,9.0857 0.13952,16.4686 0.33072,17.68 0.70371,4.4581 1.79917,6.4539 4.2671,7.774 1.18324,0.633 1.78317,0.7052 5.79975,0.6978 2.464,0 4.732,-0.108 5.04,-0.23 0.52525,-0.2079 0.56,-1.5028 0.56,-20.8717 v -20.6501 h 7.52 7.52 v 25.9077 25.9077 l -1.2,0.3231 c -2.51376,0.6769 -7.42992,1.5846 -11.22935,2.0734 -4.96179,0.6384 -14.69897,0.6443 -17.65065,0.011 z m -60.20957,-43.6754 c 6.11533,-0.7668 9.00598,-3.2278 9.00598,-7.6673 0,-4.0747 -2.54893,-6.5057 -7.69741,-7.3411 -2.20112,-0.3571 -11.82009,-0.4585 -13.01901,-0.1372 l -0.72,0.193 v 7.6426 7.6427 h 4.88839 c 2.68864,0 6.08256,-0.1497 7.54205,-0.3327 z m 1.32957,30.5906 c 7.38246,-1.113 10.29436,-3.6406 10.3287,-8.9655 0.0278,-4.3419 -1.82022,-6.7941 -6.22259,-8.2561 -1.7841,-0.5924 -2.97216,-0.6884 -9.94611,-0.8032 l -7.92001,-0.1304 v 9.1334 9.1334 l 2,0.1136 c 4.88052,0.2772 8.94359,0.1995 11.76001,-0.2252 z m -12.96001,13.2415 c -6.7047,-0.2538 -12.59523,-0.927 -15.6,-1.783 -0.52883,-0.1506 -0.56,-2.0604 -0.56,-34.3226 v -34.163 l 2.48,-0.3723 c 6.36362,-0.9554 9.44327,-1.1517 18.16,-1.1578 7.64701,0 9.83991,0.097 12.46189,0.58 3.88576,0.7161 7.37552,1.8302 9.93335,3.1709 2.56166,1.3428 6.16086,4.9712 7.31357,7.3729 2.30473,4.8019 2.37472,11.0147 0.17267,15.331 -0.80298,1.574 -3.77911,4.7807 -5.32176,5.7341 l -1.08423,0.6701 2.256,1.0913 c 6.10311,2.9521 9.12272,8.1756 9.12733,15.789 0.003,4.3373 -0.41075,6.2887 -2.07203,9.7808 -2.44038,5.1298 -7.90378,9.0244 -15.18678,10.8258 -5.72916,1.4172 -12.04295,1.8326 -22.08001,1.4528 z m 879.46418,-34.7188 c -0.5462,-3.4828 -2.4152,-6.1281 -5.3521,-7.5753 -1.1829,-0.5828 -2.0108,-0.7253 -4.2146,-0.7253 -2.419,0 -2.9649,0.1137 -4.6263,0.9634 -2.7395,1.401 -4.5647,4.122 -5.4176,8.0766 l -0.2244,1.04 h 10.057 10.057 z m -12.8036,35.0345 c -8.8077,-1.2921 -15.876,-5.9749 -19.3093,-12.7926 -2.5321,-5.0279 -3.7102,-12.0079 -3.0657,-18.163 0.4671,-4.4614 1.3163,-7.5211 3.0805,-11.0995 3.2717,-6.6357 8.4494,-10.9268 15.725,-13.032 3.2411,-0.9378 10.1924,-1.0072 13.709,-0.1369 3.7919,0.9385 7.2586,2.8325 10.0289,5.4793 2.9214,2.791 4.5373,5.3832 5.7908,9.2896 1.2795,3.9876 1.6704,7.2003 1.5573,12.8 l -0.097,4.8 -17.2248,0.083 -17.2248,0.083 0.2245,1.0372 c 0.6154,2.8422 2.9971,5.7937 5.8496,7.2489 4.3538,2.2212 14.3731,2.1725 21.2522,-0.1032 1.9016,-0.6291 2.1738,-0.654 2.301,-0.2109 0.3849,1.3396 1.8312,11.2734 1.6936,11.632 -0.1645,0.4286 -2.619,1.2958 -5.7431,2.0291 -5.2233,1.2262 -13.9875,1.7253 -18.5477,1.0564 z m -563.72315,-13.5289 c 2.76816,-1.358 4.71158,-4.1363 5.74103,-8.2071 0.57302,-2.2661 0.64848,-3.3064 0.51955,-7.165 -0.176,-5.268 -0.61248,-6.9444 -2.5648,-9.8512 -1.11591,-1.6616 -1.71792,-2.2034 -3.43319,-3.0901 -1.99283,-1.0302 -2.20134,-1.0701 -4.97581,-0.952 -3.29417,0.1402 -4.98172,0.8841 -6.86118,3.0247 -2.5976,2.9585 -3.69632,7.1745 -3.4416,13.2061 0.29667,7.0248 2.82627,11.7361 7.15939,13.3338 1.72915,0.6376 6.30199,0.4634 7.85661,-0.2992 z m -9.28496,13.5362 c -11.95594,-2.1358 -19.90906,-11.3627 -21.16615,-24.5561 -1.70438,-17.8879 9.63668,-31.4411 26.29501,-31.4238 4.62701,0 9.96349,1.4019 13.59988,3.5606 2.39926,1.4244 5.9488,4.7733 7.53533,7.1096 5.39264,7.941 6.5222,20.2743 2.74457,29.9673 -2.1255,5.4538 -6.15552,10.0477 -11.01696,12.5586 -4.24192,2.1909 -6.81021,2.8284 -11.96413,2.9701 -2.376,0.065 -5.08838,-0.019 -6.02755,-0.1863 z m 126.4507,13.9876 c -2.84727,-0.7315 -5.25898,-1.4137 -5.3593,-1.516 -0.10035,-0.1022 0.17261,-1.2299 0.60662,-2.5059 2.21306,-6.5067 3.54429,-15.7717 3.21184,-22.3537 l -0.2144,-4.2457 7.94604,0.086 7.9461,0.086 -0.01,5.44 c -0.01,4.473 -0.1385,6.0284 -0.7413,8.75 -1.0279,4.6407 -2.6354,9.1572 -4.8869,13.73 -1.6115,3.2731 -2.045,3.9151 -2.6269,3.89 -0.3833,-0.017 -3.0265,-0.6284 -5.87374,-1.36 z m 186.49301,3.1358 c -3.6063,-0.7824 -5.1994,-1.422 -5.0208,-2.0155 0.088,-0.2917 0.6865,-2.9783 1.3306,-5.9703 0.644,-2.992 1.1897,-5.4606 1.2125,-5.4859 0.023,-0.025 1.0496,0.2185 2.2816,0.5416 2.6174,0.6864 7.3113,0.8059 9.2429,0.2352 1.7598,-0.52 4.2828,-3.0716 5.5498,-5.6129 l 0.9982,-2.0019 -2.8201,-5.8381 c -4.9483,-10.2437 -9.28,-20.7757 -12.78,-31.0725 -2.03,-5.9719 -4.5108,-13.8908 -4.5108,-14.3985 0,-0.1138 3.5766,-0.207 7.9481,-0.207 h 7.9482 l 1.3757,4.88 c 2.9612,10.5041 9.8059,30.5817 10.2616,30.1007 0.6205,-0.6548 6.7098,-20.779 9.6649,-31.9407 l 0.7625,-2.88 7.7395,-0.086 c 6.3864,-0.071 7.7395,-0.01 7.7395,0.3534 0,0.4842 -3.1592,10.6671 -5.1788,16.6923 -3.5226,10.5093 -7.9721,22.0912 -12.1217,31.5525 -4.7365,10.7993 -7.3105,15.2388 -10.7748,18.5832 -3.8983,3.7636 -7.7191,5.0808 -14.6159,5.0389 -2.3039,-0.014 -5.1086,-0.225 -6.2327,-0.4688 z m -489.15617,-0.1442 c -3.06304,-0.6993 -4.32,-1.1577 -4.32,-1.5752 0,-0.3499 2.17037,-10.4637 2.41789,-11.2674 0.14646,-0.4754 0.3625,-0.4667 2.4713,0.1 1.76662,0.4745 3.10208,0.5966 5.67081,0.5185 4.38557,-0.1332 5.65053,-0.8057 7.932,-4.2169 2.29728,-3.4347 2.29728,-3.4346 0.18874,-7.6356 -2.52986,-5.0405 -6.78423,-14.6833 -9.56707,-21.6846 -2.2712,-5.7139 -6.76749,-18.8169 -8.10023,-23.6054 l -0.6472,-2.3255 8.02471,0.085 8.02473,0.085 1.54464,5.417 c 2.78685,9.7733 9.09344,28.5943 9.84688,29.3864 0.44004,0.4626 6.40906,-18.9016 9.96372,-32.3234 l 0.6992,-2.64 h 7.80496 c 4.2927,0 7.80492,0.069 7.80492,0.1539 0,0.3855 -4.30832,13.9854 -5.93222,18.7261 -6.10272,17.8159 -14.41232,37.4744 -18.54582,43.875 -3.13281,4.851 -7.22593,7.9396 -12.01889,9.0693 -2.93555,0.6919 -9.93744,0.6166 -13.26307,-0.1427 z"
       style="fill:#f37d31;fill-opacity:1;stroke-width:0.32000002"
       id="path851" />
    <path
       inkscape:connector-curvature="0"
       id="path849"
       d="m 9.12,448.16565 c -0.88,-0.2323 -2.13695,-0.653 -2.79323,-0.9348 -1.88473,-0.8093 -4.39097,-3.3606 -5.41332,-5.5107 L 5e-4,439.80015 2.5e-4,372.91825 0,306.03645 139.90333,153.07831 279.80667,0.12019155 l 60.49668,-0.0837 c 59.49872,-0.0823 60.53098,-0.0733 62.57667,0.54974 4.5586,1.38829005 8.49255,4.67106005 10.35319,8.63946005 0.76781,1.6376304 0.99769,2.6234204 1.10979,4.7590604 0.18061,3.44079 -0.29107,5.5834 -2.01981,9.17546 -1.83571,3.81426 -3.61485,6.09367 -10.18806,13.05278 C 385.97929,53.317252 337.9188,105.5761 182.23723,275.32015 69.65484,398.07195 32.98676,437.95045 28.32,442.71315 c -2.10165,2.1448 -4.90955,3.7434 -8.64,4.919 -2.80116,0.8826 -8.20405,1.1557 -10.56,0.5335 z"
       style="fill:#f37d31;fill-opacity:1;stroke-width:0.32000002" />
    <path
       inkscape:connector-curvature="0"
       d="m 370.88002,322.08345 c -4.43443,-1.0067 -6.56822,-3.3038 -7.35328,-7.916 -0.24669,-1.4493 -0.32192,-25.8809 -0.2576,-83.6473 l 0.0909,-81.59996 0.83235,-1.7746 c 1.18173,-2.51946 2.53882,-3.9194 4.77015,-4.92076 3.01875,-1.35474 5.05846,-1.51572 17.81395,-1.406 11.5905,0.0997 11.80835,0.11357 13.29661,0.84654 0.83219,0.40986 1.93977,1.28398 2.46134,1.94249 1.42474,1.7989 4.56432,8.62251 7.59738,16.51233 1.48848,3.872 2.8215,7.15652 2.96224,7.29893 0.27069,0.27396 4.49654,-4.64253 9.004,-10.47553 3.60477,-4.66489 9.07584,-10.32082 12.3881,-12.80672 6.74537,-5.06249 12.224,-6.48706 22.79389,-5.92698 14.3342,0.75955 23.19565,4.13545 38.22915,14.56396 8.35408,5.7951 8.848,6.20285 9.868,8.14634 0.8369,1.59468 0.91098,1.98904 0.78858,4.19829 -0.17581,3.17378 -0.71012,4.26834 -8.80724,18.04171 -6.9864,11.88405 -8.53273,13.95117 -11.53894,15.42499 -1.54022,0.75511 -2.21254,0.89027 -4.37955,0.8804 -3.71376,-0.0169 -5.39274,-0.6963 -8.67933,-3.51209 -5.24963,-4.49758 -10.65891,-7.51268 -15.81459,-8.81494 -3.79373,-0.95825 -11.39882,-1.21258 -14.92058,-0.49898 -8.63162,1.74899 -14.77741,6.85507 -22.31578,18.54045 l -1.78973,2.77432 v 52.89571 c 0,46.0142 -0.0625,53.1357 -0.48057,54.7407 -0.81667,3.1355 -2.31242,4.8285 -5.37792,6.0872 -1.62493,0.6672 -2.07719,0.6836 -20.54151,0.7436 -14.13094,0.046 -19.32272,-0.039 -20.64,-0.3381 z M 635.52004,207.58607 c 0,-0.58998 -1.78996,-3.62393 -4.50932,-7.64326 -6.4302,-9.50416 -14.22019,-15.25587 -23.52995,-17.37334 -3.86093,-0.87815 -9.61926,-1.26779 -12.87888,-0.87146 -10.42621,1.2677 -20.92109,8.59807 -28.43667,19.86218 -1.65658,2.48279 -3.28519,5.49167 -3.28519,6.06936 0,0.22558 11.54096,0.33064 36.32,0.33064 27.50301,0 36.32001,-0.0908 36.32001,-0.37412 z m -36.48001,117.61408 c -39.29987,-2.3232 -72.96867,-27.2911 -85.7032,-63.5552 -3.15958,-8.9975 -4.51955,-16.9754 -4.76608,-27.9589 -0.25363,-11.2998 0.75389,-19.52579 3.60163,-29.40586 10.94608,-37.97658 42.94042,-64.02865 81.11748,-66.05164 21.98666,-1.16507 42.83443,5.54895 60.15018,19.37134 3.82297,3.05172 11.59174,10.87025 14.65267,14.74655 9.92768,12.57218 16.11101,27.02259 17.97773,42.01375 0.99709,8.00736 0.65392,23.29576 -0.59674,26.58536 -1.6711,4.3955 -4.91075,6.2091 -12.51366,7.0052 -1.88823,0.1977 -23.69463,0.3204 -57.55632,0.3239 h -54.51636 l 0.22586,1.506 c 0.69008,4.6018 3.12912,10.5273 5.90012,14.334 5.82298,7.9994 13.79239,12.9538 24.53501,15.2528 3.03172,0.6488 4.35584,0.7455 10.05168,0.7341 5.95261,-0.012 6.94519,-0.096 10.72001,-0.9094 5.59977,-1.2064 11.92524,-3.3247 16.26358,-5.4465 4.25933,-2.083 6.63923,-3.6252 9.65642,-6.2571 3.0672,-2.6756 5.74355,-3.9833 7.75453,-3.789 2.15497,0.2081 3.60736,0.9927 6.08633,3.2879 3.32442,3.078 17.40861,19.1527 18.39914,20.9996 0.71053,1.3247 0.88,2.0558 0.88,3.7964 0,3.9684 -0.62864,4.974 -6.12519,9.7978 -14.84672,13.0296 -31.09315,20.6143 -49.23965,22.9875 -3.78451,0.4949 -13.25597,0.8446 -16.95517,0.6259 z m 213.76002,-49.2419 c 18.29689,-3.9795 31.31635,-17.0821 35.25978,-35.4848 0.89552,-4.1791 0.97251,-11.9849 0.16198,-16.4248 -1.16106,-6.3603 -3.6993,-12.62301 -7.31271,-18.04305 -2.43923,-3.65881 -7.37788,-8.8209 -10.78835,-11.27645 -4.8519,-3.4934 -11.01046,-6.30482 -16.6807,-7.61485 -3.55991,-0.82247 -11.99613,-1.15207 -15.68432,-0.61278 -8.3688,1.22368 -15.96743,5.07653 -22.09232,11.20184 -11.19329,11.19406 -15.87687,29.17269 -12.00861,46.09679 4.05747,17.7521 16.73523,29.9363 33.94525,32.6239 2.85084,0.4452 12.34982,0.1541 15.2,-0.4658 z m -21.44,49.4087 c -30.64477,-2.6735 -57.11738,-21.1857 -70.55086,-49.3359 -4.69068,-9.8294 -7.43203,-19.04 -9.03184,-30.3458 -0.80147,-5.6638 -0.80057,-22.1022 0,-27.8051 1.59866,-11.36674 4.27927,-20.4334 8.86823,-29.99496 7.78733,-16.22575 19.18518,-28.8734 33.96976,-37.69456 12.24128,-7.30373 25.38042,-11.21272 40.22035,-11.96588 11.04045,-0.56033 18.13463,0.78021 26.29735,4.96926 6.11072,3.13596 10.52189,6.59812 17.86765,14.02365 3.05917,3.09239 5.61264,5.62253 5.67437,5.62253 0.0617,0 0.15078,-15.444 0.19785,-34.32 l 0.0856,-34.319998 0.89798,-1.82862 c 0.50781,-1.03412 1.5361,-2.39035 2.36672,-3.12148 2.71091,-2.38623 2.5665,-2.36986 22.01538,-2.49536 11.7194,-0.0756 17.93781,0.003 19.32431,0.24407 3.8119,0.663 7.07279,2.92664 8.85809,6.1491 l 0.9376,1.69229 V 204.76019 c 0,106.82606 -0.017,109.96876 -0.6027,111.65106 -0.7863,2.2585 -2.7212,4.1934 -5.18719,5.1872 l -1.8901,0.7617 h -16.96001 c -9.328,0 -17.513,-0.1169 -18.1888,-0.2599 -3.12389,-0.6607 -5.08226,-3.8498 -9.4621,-15.4085 -1.2647,-3.3377 -2.36451,-6.1335 -2.44403,-6.2131 -0.0795,-0.08 -2.55671,2.223 -5.50487,5.1167 -7.96838,7.8212 -14.13081,12.4813 -20.68688,15.6436 -8.38937,4.0465 -15.52909,5.1352 -27.07341,4.128 z"
       style="fill:#48bbe5;fill-opacity:1;stroke-width:0.32000002"
       id="path835" />
    <path
       inkscape:connector-curvature="0"
       d="m 1088.2647,322.18655 c -3.3094,-0.5053 -5.3855,-1.8054 -6.8032,-4.2601 -0.6581,-1.1396 -65.4579,-159.26651 -67.6188,-165.00626 -0.5335,-1.41702 -0.796,-2.80257 -0.8234,-4.34696 -0.076,-4.2784 2.0972,-6.77819 6.5008,-7.47777 2.6513,-0.42121 38.5062,-0.44518 41.0568,-0.0274 4.0608,0.66507 6.9086,3.09877 8.3427,7.12965 0.4545,1.27739 2.3524,7.21853 4.2177,13.20253 5.1636,16.56584 22.902,71.58551 25.1215,77.92001 1.0791,3.08 2.0815,5.7259 2.2275,5.8798 0.1459,0.1538 0.4758,-0.4222 0.7329,-1.28 0.2572,-0.8579 7.1208,-22.8718 15.2526,-48.91981 9.6193,-30.81318 15.116,-47.94238 15.7326,-49.02686 1.3147,-2.31249 3.4299,-4.09479 5.4878,-4.62413 1.314,-0.33798 6.2514,-0.42901 23.2679,-0.42901 24.1139,0 23.9628,-0.0119 26.3044,2.06613 1.3366,1.1861 1.3605,1.24417 1.4713,3.56979 0.089,1.87827 -0.047,2.82438 -0.6627,4.60408 -1.1817,3.41412 -68.3412,164.29591 -69.1959,165.76001 -1.0214,1.7498 -3.5676,4.1698 -5.1171,4.8636 -1.1432,0.5119 -2.4774,0.5789 -12.48,0.6266 -6.16,0.029 -12.017,-0.071 -13.0154,-0.2239 z m -142.66461,0.1125 c -3.5548,-0.595 -6.2234,-2.6618 -7.2541,-5.6182 -0.5621,-1.6123 -0.5859,-5.0645 -0.5859,-84.8807 v -83.19996 l 0.9059,-1.96036 c 1.0832,-2.34403 2.6809,-3.98449 4.8541,-4.98385 1.5989,-0.73529 1.6119,-0.73586 19.262,-0.83532 18.4898,-0.1042 20.1022,-0.0135 22.7971,1.28195 1.8106,0.87044 4.8078,3.8115 5.8209,5.71204 l 0.76,1.42554 v 83.03996 83.04 l -0.7392,1.4859 c -0.4066,0.8172 -1.2706,2.019 -1.92,2.6706 -2.9489,2.9588 -3.6326,3.0401 -25.1808,2.9944 -9.856,-0.021 -18.28,-0.098 -18.72,-0.172 z m 350.24001,-46.3121 c 9.3953,-2.1178 17.3042,-7.1456 22.8937,-14.5538 3.1609,-4.1894 6.1998,-11.0426 7.6062,-17.153 1.5809,-6.8683 1.7404,-16.1677 0.3942,-22.9758 -1.9638,-9.93154 -6.542,-18.7127 -12.91,-24.76169 -7.3104,-6.94419 -16.0585,-10.34247 -26.6241,-10.34247 -8.6459,0 -15.3904,1.98434 -22.2374,6.5426 -18.1841,12.10564 -24.6427,39.93916 -14.2543,61.42926 5.7543,11.9034 16.5629,20.0043 29.493,22.1043 3.6403,0.5913 12.4554,0.4281 15.6387,-0.2894 z m -16.8,49.4025 c -34.2826,-3.2512 -63.2742,-23.7553 -77.0282,-54.4776 -8.415,-18.7965 -10.5174,-39.9741 -5.9896,-60.33158 6.6485,-29.89277 27.9981,-54.86538 56.3516,-65.91467 11.6273,-4.53111 22.374,-6.51382 35.3062,-6.51382 12.8503,0 23.5729,1.95199 34.6298,6.30418 22.7676,8.96174 40.8348,26.2172 50.9633,48.67358 8.1976,18.1753 10.2534,39.60531 5.7454,59.89051 -1.109,4.9902 -3.8676,13.2071 -6.0907,18.142 -8.1351,18.0583 -22.3986,33.4403 -40.0241,43.1629 -9.4024,5.1865 -21.2303,9.048 -32.4624,10.5982 -4.3396,0.5989 -17.0767,0.8764 -21.4013,0.4663 z"
       style="fill:#48bbe5;fill-opacity:1;stroke-width:0.32000002"
       id="path831" />
    <path
       inkscape:connector-curvature="0"
       id="path829"
       d="m 10.88,230.24495 c -4.02202,-1.0949 -7.20799,-3.793 -9.17247,-7.7678 L 0.48,219.99345 0.3981,114.70528 C 0.3062,-3.3678984 0.07408,7.4507016 2.76392,4.4589416 c 1.70089,-1.8918 3.65434,-2.98599 6.75323,-3.78269005 2.0042,-0.51527 5.48446,-0.55606 47.44286,-0.55606 41.92934,0 45.42797,0.0409 47.27954,0.55326 2.79703,0.77392005 4.41152,1.66707005 6.13854,3.39589005 1.67707,1.67882 2.64434,3.48172 3.36821,6.2780804 0.43624,1.68521 0.4935,8.72569 0.49189,60.48 l -0.002,58.572768 -12.36655,13.76 c -45.44579,50.56666 -72.70158,80.29956 -76.45322,83.40166 -4.2184,3.488 -9.93376,4.9361 -14.53649,3.6831 z"
       style="fill:#48bbe5;fill-opacity:1;stroke-width:0.32000002" />
    <path
       inkscape:connector-curvature="0"
       id="path825"
       d="m 944.80009,119.01894 c -3.345,-0.84709 -5.5311,-2.9588 -6.5559,-6.33301 -0.6506,-2.14179 -0.6672,-2.71707 -0.577,-19.945568 l 0.093,-17.74017 0.9115,-1.85632 c 0.9722,-1.97993 2.1387,-2.96544 4.6885,-3.96108 1.3007,-0.50791 3.1998,-0.57288 19.6346,-0.67172 19.085,-0.11478 21.3285,0.002 24.2603,1.26327 2.0077,0.86369 3.8582,2.95964 4.5473,5.15043 0.476,1.51336 0.5248,3.53648 0.4461,18.49454 l -0.088,16.795308 -1.0647,2.16227 c -1.2503,2.53914 -3.5399,4.95408 -5.7095,6.02227 l -1.5458,0.76103 -19.04,0.0509 c -10.472,0.028 -19.472,-0.0585 -20,-0.19218 z"
       style="fill:#f37d31;fill-opacity:1;stroke-width:0.32000002" />
  </g>
</svg>
