<svg width="500" height="500" viewBox="0 0 500 500" fill="none" xmlns="http://www.w3.org/2000/svg">
<g clip-path="url(#clip0_86_78)">
<path d="M386.1 160.34C348.46 160.34 348.4 213.86 386.1 213.86C423.8 213.86 423.8 160.34 386.1 160.34Z" fill="#EBEBEB"/>
<path d="M409 192.12C407 201.33 399.35 209.31 386.1 209.31C354.82 209.31 354.87 164.89 386.1 164.89H386.72C357.32 165.43 357.46 207.5 387.29 207.5C399.45 207.51 406.7 200.47 409 192.12Z" fill="#DBDBDB"/>
<path d="M386.32 170.75C386.567 170.749 386.806 170.839 386.991 171.003C387.176 171.167 387.293 171.394 387.32 171.64V173.13C389.933 173.305 392.445 174.209 394.57 175.74C394.93 176 395.14 176.22 395.14 176.6C395.122 176.864 395 177.109 394.802 177.284C394.603 177.458 394.344 177.546 394.08 177.53C393.813 177.539 393.552 177.446 393.35 177.27C391.576 175.915 389.461 175.077 387.24 174.85V185.28C393.43 186.47 396.03 188.59 396.03 192.28C396.03 196.23 392.41 199.02 387.32 199.17V202C387.27 202.221 387.146 202.418 386.969 202.56C386.791 202.701 386.572 202.778 386.345 202.778C386.118 202.778 385.899 202.701 385.721 202.56C385.544 202.418 385.42 202.221 385.37 202V199.1C382.01 198.891 378.801 197.628 376.2 195.49C376.068 195.403 375.958 195.286 375.88 195.149C375.802 195.012 375.757 194.858 375.75 194.7C375.768 194.447 375.881 194.21 376.067 194.038C376.252 193.865 376.496 193.769 376.75 193.77C377.02 193.765 377.283 193.857 377.49 194.03C379.699 195.991 382.486 197.18 385.43 197.42V186.81C379.32 185.58 376.79 183.53 376.79 179.81C376.79 176.09 380.38 173.18 385.35 173.07V171.65C385.36 171.402 385.468 171.169 385.65 171C385.831 170.832 386.072 170.742 386.32 170.75ZM385.43 184.91V174.73C381.48 174.81 378.87 176.97 378.87 179.65C378.87 182.33 380.17 183.75 385.43 184.91ZM387.22 187.18V197.46C391.29 197.39 393.94 195.23 393.94 192.39C393.94 189.82 392.51 188.26 387.22 187.18Z" fill="#DBDBDB"/>
<path d="M169.3 43C131.66 43 131.6 96.52 169.3 96.52C207 96.52 207 43 169.3 43Z" fill="#EBEBEB"/>
<path d="M192.19 74.81C190.19 84.01 182.54 92 169.29 92C138.01 92 138.06 47.58 169.29 47.58H169.91C140.51 48.12 140.65 90.19 170.48 90.19C182.65 90.2 189.9 83.16 192.19 74.81Z" fill="#DBDBDB"/>
<path d="M169.52 53.43C169.769 53.4288 170.009 53.5203 170.194 53.6867C170.379 53.8531 170.495 54.0825 170.52 54.33V55.82C173.133 55.9947 175.645 56.899 177.77 58.43C178.13 58.69 178.34 58.91 178.34 59.28C178.322 59.5436 178.201 59.7894 178.002 59.9636C177.803 60.1379 177.544 60.2265 177.28 60.21C177.146 60.2188 177.011 60.2003 176.884 60.1556C176.756 60.1109 176.64 60.041 176.54 59.95C174.766 58.6018 172.656 57.7649 170.44 57.53V68C176.63 69.2 179.23 71.32 179.23 75C179.23 78.95 175.61 81.75 170.52 81.9V84.8C170.52 85.0652 170.415 85.3196 170.227 85.5071C170.04 85.6946 169.785 85.8 169.52 85.8C169.255 85.8 169.001 85.6946 168.813 85.5071C168.626 85.3196 168.52 85.0652 168.52 84.8V81.79C165.162 81.5765 161.957 80.3098 159.36 78.17C159.229 78.0842 159.121 77.969 159.042 77.8335C158.964 77.6981 158.919 77.5461 158.91 77.39C158.928 77.1371 159.041 76.9004 159.227 76.7277C159.412 76.5551 159.657 76.4594 159.91 76.46C160.177 76.4524 160.438 76.5452 160.64 76.72C162.856 78.6769 165.644 79.866 168.59 80.11V69.49C162.48 68.26 159.95 66.21 159.95 62.49C159.95 58.77 163.54 55.86 168.5 55.74V54.33C168.525 54.079 168.644 53.8468 168.834 53.6799C169.023 53.5129 169.268 53.4237 169.52 53.43ZM168.63 67.59V57.42C164.68 57.49 162.07 59.66 162.07 62.34C162.07 64.87 163.37 66.44 168.63 67.59ZM170.42 69.86V80.15C174.49 80.07 177.14 77.91 177.14 75.08C177.14 72.51 175.71 71 170.42 69.86Z" fill="#DBDBDB"/>
<path d="M98.5199 131.33C64.6199 137.41 73.5799 187.62 107.52 181.53C141.46 175.44 132.46 125.24 98.5199 131.33Z" fill="#DBDBDB"/>
<path d="M101.7 130.76C69.3998 136.56 78.3498 186.76 110.7 180.96C143.05 175.16 134.05 125 101.7 130.76Z" fill="#EBEBEB"/>
<path d="M126.69 157C126.51 166 121.31 174.61 109.94 176.65C83.0899 181.47 75.6499 139.8 102.46 134.99L102.99 134.9C77.8499 139.9 85.0599 179.37 110.65 174.78C121.1 172.94 126.13 165.22 126.69 157Z" fill="#DBDBDB"/>
<path d="M103.64 140.49C103.75 140.468 103.864 140.469 103.974 140.491C104.084 140.514 104.189 140.558 104.282 140.621C104.375 140.684 104.454 140.765 104.516 140.86C104.577 140.954 104.62 141.059 104.64 141.17L104.89 142.57C107.193 142.338 109.513 142.801 111.55 143.9C111.91 144.09 112.12 144.27 112.18 144.62C112.209 144.851 112.147 145.085 112.007 145.271C111.867 145.458 111.66 145.583 111.43 145.62C111.315 145.647 111.196 145.649 111.081 145.627C110.965 145.605 110.856 145.558 110.76 145.49C109.045 144.508 107.082 144.046 105.11 144.16L106.87 153.95C112.38 154.11 114.97 155.7 115.59 159.13C116.25 162.83 113.59 166.01 109.27 166.93L109.76 169.66C109.8 169.883 109.749 170.112 109.62 170.298C109.491 170.484 109.293 170.61 109.07 170.65C108.847 170.69 108.618 170.639 108.432 170.51C108.246 170.381 108.12 170.183 108.08 169.96L107.58 167.2C104.612 167.499 101.63 166.795 99.1099 165.2C98.9356 165.123 98.7906 164.992 98.6961 164.827C98.6017 164.662 98.5628 164.47 98.5852 164.281C98.6076 164.092 98.69 163.915 98.8205 163.776C98.951 163.637 99.1225 163.544 99.3099 163.51C99.4261 163.485 99.5463 163.483 99.6632 163.505C99.7801 163.528 99.8912 163.573 99.9899 163.64C102.156 165.112 104.76 165.8 107.37 165.59L105.59 155.59C100.14 155.38 97.5899 153.85 96.9999 150.36C96.4099 146.87 98.9999 143.58 103.2 142.71L102.96 141.39C102.948 141.184 103.01 140.98 103.134 140.815C103.259 140.65 103.438 140.535 103.64 140.49ZM105.26 153.9L103.54 144.36C100.17 145.04 98.2899 147.47 98.7499 149.99C99.1699 152.36 100.55 153.63 105.26 153.9ZM107.18 155.76L108.91 165.4C112.39 164.71 114.3 162.27 113.82 159.62C113.39 157.21 111.9 156 107.18 155.76Z" fill="#DBDBDB"/>
<path d="M321.25 220.72C292.25 225.93 299.88 268.95 328.96 263.72C358.04 258.49 350.33 215.5 321.25 220.72Z" fill="#DBDBDB"/>
<path d="M324 220.23C296.33 225.23 304 268.23 331.72 263.23C359.44 258.23 351.69 215.26 324 220.23Z" fill="#EBEBEB"/>
<path d="M345.38 242.75C345.23 250.41 340.77 257.84 331.03 259.58C308.03 263.71 301.66 228.01 324.62 223.89L325.08 223.82C303.54 228.13 309.71 261.91 331.64 257.98C340.59 256.37 344.9 249.76 345.38 242.75Z" fill="#DBDBDB"/>
<path d="M329.49 228.55C329.682 228.573 329.857 228.671 329.977 228.822C330.097 228.974 330.152 229.168 330.13 229.36L329.99 230.57C331.937 230.946 333.725 231.901 335.12 233.31C335.236 233.395 335.328 233.509 335.388 233.64C335.447 233.772 335.472 233.916 335.46 234.06C335.43 234.262 335.322 234.444 335.159 234.568C334.997 234.691 334.792 234.746 334.59 234.72C334.488 234.711 334.39 234.682 334.301 234.634C334.211 234.586 334.133 234.52 334.07 234.44C332.91 233.208 331.415 232.343 329.77 231.95L328.77 240.41C333.25 241.91 334.98 243.86 334.63 246.82C334.26 250.02 331.3 251.97 327.51 251.65L327.23 254.01C327.205 254.201 327.106 254.375 326.955 254.495C326.803 254.614 326.612 254.67 326.42 254.65C326.23 254.623 326.057 254.523 325.938 254.373C325.819 254.222 325.762 254.031 325.78 253.84L326.07 251.45C323.56 250.964 321.285 249.651 319.61 247.72C319.516 247.637 319.445 247.533 319.401 247.416C319.357 247.299 319.343 247.174 319.36 247.05C319.379 246.901 319.441 246.76 319.539 246.646C319.637 246.532 319.767 246.449 319.911 246.407C320.056 246.366 320.21 246.367 320.353 246.412C320.497 246.457 320.624 246.543 320.72 246.66C322.129 248.409 324.095 249.623 326.29 250.1L327.29 241.49C322.87 239.96 321.2 238.08 321.55 235.06C321.9 232.04 324.84 229.99 328.55 230.34L328.68 229.19C328.705 228.999 328.803 228.825 328.955 228.705C329.106 228.586 329.298 228.53 329.49 228.55ZM327.49 239.95L328.49 231.7C325.55 231.42 323.41 232.94 323.16 235.12C322.91 237.3 323.69 238.55 327.48 240L327.49 239.95ZM328.6 241.95L327.6 250.28C330.6 250.58 332.8 249.06 333.07 246.76C333.32 244.68 332.42 243.28 328.59 242L328.6 241.95Z" fill="#DBDBDB"/>
<path d="M223.37 363.64C217.96 371.28 219.06 394.64 215.79 397.88C212.52 401.12 178.96 400.81 176.7 398.88C174.44 396.95 175.51 388.72 172.97 387.36C172 386.83 223.37 363.64 223.37 363.64Z" fill="#EBEBEB"/>
<path d="M80.0898 364C86.8498 373.75 83.1998 394.59 86.4698 397.86C89.7398 401.13 123.3 400.79 125.56 398.86C127.82 396.93 126.78 388.25 128.12 386.6C128.83 385.74 80.0898 364 80.0898 364Z" fill="#EBEBEB"/>
<path d="M173 387.36C173.394 387.658 173.724 388.032 173.972 388.459C174.219 388.887 174.378 389.36 174.44 389.85C189.931 388.041 205.072 383.968 219.38 377.76C220.15 372.08 221.27 366.65 223.38 363.65C223.36 363.65 172 386.83 173 387.36Z" fill="#DBDBDB"/>
<path d="M80.0898 364C82.6098 367.64 83.6898 372.83 84.2098 378.06C97.9303 384.143 112.474 388.166 127.37 390C127.35 388.83 127.607 387.672 128.12 386.62C128.83 385.74 80.0898 364 80.0898 364Z" fill="#DBDBDB"/>
<path d="M154 222.61C221.5 222.61 247.33 275.44 247.33 306.36C247.33 336.87 227.71 388.72 154 388.72C80.2901 388.72 55.8301 344.79 55.8301 305.66C55.8301 266.53 85.7901 222.61 154 222.61Z" fill="#EBEBEB"/>
<path d="M134.93 226.42C134.93 226.42 104.11 202.78 70.7202 205.6C59.2202 206.6 78.3102 231.48 78.6602 250.94L134.93 226.42Z" fill="#EBEBEB"/>
<path d="M91.5299 241.41C91.7299 242.64 81.0899 247.2 79.9899 246.5C78.8899 245.8 77.7799 230.5 69.0999 214.14C67.8199 211.74 89.4799 228.24 91.5299 241.41Z" fill="#DBDBDB"/>
<path d="M229.58 272.53C229.18 270.45 228.93 268.58 228.73 266.59C228.523 264.597 228.423 262.594 228.43 260.59C228.421 258.508 228.602 256.429 228.97 254.38C229.357 252.01 230.306 249.767 231.74 247.84C232.635 246.718 233.797 245.838 235.12 245.28C235.76 245.008 236.432 244.82 237.12 244.72C237.782 244.623 238.452 244.593 239.12 244.63C241.545 244.813 243.854 245.742 245.73 247.29C247.415 248.641 248.847 250.28 249.96 252.13C251.11 253.963 251.897 256 252.28 258.13C252.537 259.422 252.44 260.759 252 262C251.697 262.786 251.163 263.462 250.47 263.94C249.808 264.376 249.042 264.628 248.25 264.67C247.435 264.72 246.623 264.525 245.92 264.11C245.314 263.73 244.798 263.221 244.41 262.62C243.811 261.644 243.41 260.56 243.23 259.43C242.899 257.422 242.92 255.371 243.29 253.37C243.595 251.366 244.324 249.449 245.43 247.75C246.02 246.846 246.819 246.098 247.76 245.57C248.731 245.043 249.851 244.856 250.94 245.04C252.902 245.485 254.676 246.534 256.01 248.04C258.555 250.836 260.586 254.058 262.01 257.56C260.346 254.243 258.112 251.244 255.41 248.7C254.151 247.476 252.538 246.681 250.8 246.43C250.011 246.404 249.232 246.615 248.565 247.038C247.897 247.461 247.373 248.075 247.06 248.8C246.275 250.328 245.822 252.005 245.73 253.72C245.578 255.425 245.723 257.144 246.16 258.8C246.329 259.522 246.642 260.202 247.08 260.8C247.217 260.975 247.391 261.119 247.59 261.22C247.71 261.26 247.84 261.26 247.96 261.22C248.13 261.22 248.33 261.09 248.34 261.03C248.401 260.948 248.439 260.851 248.45 260.75C248.541 260.175 248.5 259.587 248.33 259.03C247.379 255.981 245.413 253.348 242.76 251.57C241.669 250.802 240.364 250.397 239.03 250.41C238.753 250.422 238.478 250.466 238.21 250.54C237.986 250.594 237.771 250.678 237.57 250.79C237.187 251.016 236.864 251.332 236.63 251.71C235.985 252.89 235.606 254.198 235.52 255.54C235.368 257.203 235.368 258.877 235.52 260.54C235.666 262.274 235.9 264 236.22 265.71C236.54 267.42 236.95 269.22 237.39 270.78L229.58 272.53Z" fill="#EBEBEB"/>
<path d="M80.9999 288C81.0999 287.79 81.3999 288.38 81.3399 288.62C79.8599 294.4 79.1399 301.27 83.9799 304.37C84.1299 304.46 84.0499 304.75 83.8599 304.68C77.6599 302.37 78.7099 293.26 80.9999 288Z" fill="#DBDBDB"/>
<path d="M87.58 283.1C97.1 284.46 93.67 303.4 84.85 302.1C76.03 300.8 79.6 282 87.58 283.1Z" fill="#DBDBDB"/>
<path d="M62.1299 275.15C60.6599 279.58 47.2699 275.99 43.8999 278.79C38.5899 283.2 40.0599 337.88 44.8999 342.28C47.6299 344.75 62.8099 342.15 67.0699 345.15C71.3299 348.15 62.1299 275.15 62.1299 275.15Z" fill="#EBEBEB"/>
<path d="M45.6702 333.33C47.0454 333.33 48.1602 322.531 48.1602 309.21C48.1602 295.889 47.0454 285.09 45.6702 285.09C44.295 285.09 43.1802 295.889 43.1802 309.21C43.1802 322.531 44.295 333.33 45.6702 333.33Z" fill="#DBDBDB"/>
<path d="M180.14 240.13C179.92 240.05 157.14 232.65 135.99 238.44L133.88 230.73C157.44 224.28 181.65 232.2 182.67 232.54L180.14 240.13L181.41 236.33L180.14 240.13Z" fill="#DBDBDB"/>
<path d="M211.73 356.23C242.14 321.29 223.54 280.72 222.73 278.98C222.146 277.787 222.061 276.41 222.492 275.154C222.923 273.897 223.836 272.863 225.03 272.28C226.223 271.697 227.6 271.611 228.856 272.042C230.113 272.474 231.146 273.387 231.73 274.58C235.837 283.785 238.265 293.65 238.9 303.71C240.36 325.92 233.01 346.33 215.62 360.22C210.31 364.4 207.83 360.72 211.73 356.23Z" fill="white"/>
<path d="M225 263.48C225 264.556 224.681 265.608 224.083 266.502C223.486 267.397 222.636 268.094 221.642 268.506C220.648 268.918 219.554 269.025 218.499 268.815C217.444 268.606 216.474 268.087 215.713 267.327C214.953 266.566 214.435 265.597 214.225 264.541C214.015 263.486 214.122 262.392 214.534 261.398C214.946 260.404 215.643 259.555 216.538 258.957C217.432 258.359 218.484 258.04 219.56 258.04C221.003 258.04 222.387 258.613 223.407 259.633C224.427 260.654 225 262.037 225 263.48Z" fill="white"/>
<path d="M260.27 474.73C331.515 474.73 389.27 466.42 389.27 456.17C389.27 445.92 331.515 437.61 260.27 437.61C189.025 437.61 131.27 445.92 131.27 456.17C131.27 466.42 189.025 474.73 260.27 474.73Z" fill="#EBEBEB"/>
<path d="M184.62 439.26C184.62 446.54 153.78 452.45 115.74 452.45C77.6999 452.45 46.8599 446.54 46.8599 439.26C46.8599 431.98 77.6999 426.07 115.74 426.07C153.78 426.07 184.62 432 184.62 439.26Z" fill="#EBEBEB"/>
<path d="M397.68 278.546H360.165V400.8H397.68V278.546Z" fill="#5159FA"/>
<g opacity="0.1">
<path d="M397.667 278.546H389.083V400.8H397.667V278.546Z" fill="black"/>
</g>
<path d="M447.094 238.766H409.579V400.787H447.094V238.766Z" fill="#5159FA"/>
<g opacity="0.1">
<path d="M447.094 238.766H438.51V400.787H447.094V238.766Z" fill="black"/>
</g>
<path d="M348.365 302.246H310.85V400.8H348.365V302.246Z" fill="#5159FA"/>
<g opacity="0.1">
<path d="M348.352 302.246H339.768V400.8H348.352V302.246Z" fill="black"/>
</g>
<path d="M496.521 185.81H459.006V400.788H496.521V185.81Z" fill="#5159FA"/>
<g opacity="0.1">
<path d="M496.508 185.81H487.924V400.788H496.508V185.81Z" fill="black"/>
</g>
<path d="M310.85 337.145V318.188C310.85 318.188 438.485 307.314 490.09 165.889H495.558C495.558 165.889 460.959 312.206 310.85 337.145Z" fill="#C7C7C7"/>
<path d="M500 171.971L483.871 166.628L497.235 153.313L500 171.971Z" fill="#C7C7C7"/>
<path d="M23.6099 400.79L80.2099 400.55L136.81 400.46L250 400.3L363.19 400.46L419.79 400.55L476.39 400.79L419.79 401.04L363.19 401.13L250 401.29L136.81 401.13L80.2099 401.04L23.6099 400.79Z" fill="#263238"/>
<path d="M349.85 442.69H286.87V456.61H349.85V442.69Z" fill="#5159FA"/>
<g opacity="0.1">
<path d="M289.47 444C290.136 447.68 290.136 451.45 289.47 455.13C288.803 451.45 288.803 447.68 289.47 444Z" fill="black"/>
<path d="M294.16 444C294.826 447.68 294.826 451.45 294.16 455.13C293.493 451.45 293.493 447.68 294.16 444Z" fill="black"/>
<path d="M296.45 444C297.116 447.68 297.116 451.45 296.45 455.13C296.09 453.296 295.922 451.429 295.95 449.56C295.927 447.695 296.095 445.832 296.45 444Z" fill="black"/>
<path d="M308.999 444C309.666 447.68 309.666 451.45 308.999 455.13C308.333 451.45 308.333 447.68 308.999 444Z" fill="black"/>
<path d="M312.43 444C312.779 445.832 312.947 447.695 312.93 449.56C312.952 451.429 312.784 453.295 312.43 455.13C312.07 453.296 311.902 451.429 311.93 449.56C311.907 447.695 312.075 445.832 312.43 444Z" fill="black"/>
<path d="M326.5 444C326.85 445.832 327.017 447.695 327 449.56C327.022 451.429 326.855 453.295 326.5 455.13C326.14 453.296 325.973 451.429 326 449.56C325.983 447.695 326.15 445.832 326.5 444Z" fill="black"/>
<path d="M329.75 444C330.099 445.832 330.267 447.695 330.25 449.56C330.277 451.429 330.109 453.296 329.75 455.13C329.395 453.295 329.227 451.429 329.25 449.56C329.232 447.695 329.4 445.832 329.75 444Z" fill="black"/>
<path d="M335.72 444C336.069 445.832 336.237 447.695 336.22 449.56C336.242 451.429 336.074 453.295 335.72 455.13C335.36 453.296 335.192 451.429 335.22 449.56C335.202 447.695 335.37 445.832 335.72 444Z" fill="black"/>
<path d="M323.78 444C324.134 445.832 324.302 447.695 324.28 449.56C324.307 451.429 324.139 453.296 323.78 455.13C323.425 453.295 323.258 451.429 323.28 449.56C323.263 447.695 323.43 445.832 323.78 444Z" fill="black"/>
<path d="M300.61 444C301.263 447.681 301.263 451.449 300.61 455.13C299.943 451.45 299.943 447.68 300.61 444Z" fill="black"/>
<path d="M316.91 444C317.576 447.68 317.576 451.45 316.91 455.13C316.243 451.45 316.243 447.68 316.91 444Z" fill="black"/>
<path d="M319.25 444C319.604 445.832 319.772 447.695 319.75 449.56C319.777 451.429 319.609 453.296 319.25 455.13C318.895 453.295 318.727 451.429 318.75 449.56C318.732 447.695 318.9 445.832 319.25 444Z" fill="black"/>
<path d="M343.5 444C343.854 445.832 344.022 447.695 344 449.56C344.027 451.429 343.859 453.296 343.5 455.13C343.145 453.295 342.977 451.429 343 449.56C342.982 447.695 343.15 445.832 343.5 444Z" fill="black"/>
<path d="M347 444C347.35 445.832 347.517 447.695 347.5 449.56C347.522 451.429 347.355 453.295 347 455.13C346.64 453.296 346.473 451.429 346.5 449.56C346.478 447.695 346.645 445.832 347 444Z" fill="black"/>
<path d="M338.49 444C338.844 445.832 339.012 447.695 338.99 449.56C339.017 451.429 338.849 453.296 338.49 455.13C338.135 453.295 337.967 451.429 337.99 449.56C337.973 447.695 338.14 445.832 338.49 444Z" fill="black"/>
<path d="M306.309 444C306.976 447.68 306.976 451.45 306.309 455.13C305.95 453.296 305.782 451.429 305.809 449.56C305.787 447.695 305.955 445.832 306.309 444Z" fill="black"/>
</g>
<path opacity="0.1" d="M349.85 442.69V445.65L286.87 447.63V442.69H349.85Z" fill="black"/>
<path d="M344.6 428.78H281.62V442.7H344.6V428.78Z" fill="#5159FA"/>
<g opacity="0.1">
<path d="M341.76 441.19C341.093 437.507 341.093 433.733 341.76 430.05C342.427 433.733 342.427 437.507 341.76 441.19Z" fill="black"/>
<path d="M337.07 441.19C336.403 437.507 336.403 433.733 337.07 430.05C337.737 433.733 337.737 437.507 337.07 441.19Z" fill="black"/>
<path d="M334.78 441.19C334.43 439.354 334.263 437.489 334.28 435.62C334.258 433.751 334.425 431.885 334.78 430.05C335.139 431.884 335.307 433.751 335.28 435.62C335.302 437.489 335.134 439.355 334.78 441.19Z" fill="black"/>
<path d="M322.2 441.19C321.533 437.507 321.533 433.733 322.2 430.05C322.867 433.733 322.867 437.507 322.2 441.19Z" fill="black"/>
<path d="M318.8 441.19C318.45 439.354 318.283 437.489 318.3 435.62C318.278 433.751 318.445 431.885 318.8 430.05C319.159 431.884 319.327 433.751 319.3 435.62C319.317 437.489 319.149 439.354 318.8 441.19Z" fill="black"/>
<path d="M304.73 441.19C304.381 439.354 304.213 437.489 304.23 435.62C304.203 433.751 304.37 431.884 304.73 430.05C305.09 431.884 305.257 433.751 305.23 435.62C305.247 437.489 305.079 439.354 304.73 441.19Z" fill="black"/>
<path d="M301.48 441.19C301.126 439.355 300.958 437.489 300.98 435.62C300.953 433.751 301.12 431.884 301.48 430.05C301.835 431.885 302.002 433.751 301.98 435.62C301.997 437.489 301.829 439.354 301.48 441.19Z" fill="black"/>
<path d="M295.51 441.19C295.161 439.354 294.993 437.489 295.01 435.62C294.983 433.751 295.151 431.884 295.51 430.05C295.865 431.885 296.032 433.751 296.01 435.62C296.027 437.489 295.859 439.354 295.51 441.19Z" fill="black"/>
<path d="M307.45 441.19C307.096 439.355 306.928 437.489 306.95 435.62C306.923 433.751 307.09 431.884 307.45 430.05C308.117 433.733 308.117 437.507 307.45 441.19Z" fill="black"/>
<path d="M330.62 441.19C329.953 437.507 329.953 433.733 330.62 430.05C331.287 433.733 331.287 437.507 330.62 441.19Z" fill="black"/>
<path d="M314.32 441.19C313.653 437.507 313.653 433.733 314.32 430.05C314.987 433.733 314.987 437.507 314.32 441.19Z" fill="black"/>
<path d="M312 441.19C311.646 439.355 311.478 437.489 311.5 435.62C311.473 433.751 311.64 431.884 312 430.05C312.667 433.733 312.667 437.507 312 441.19Z" fill="black"/>
<path d="M287.73 441.19C287.376 439.355 287.208 437.489 287.23 435.62C287.203 433.751 287.37 431.884 287.73 430.05C288.397 433.733 288.397 437.507 287.73 441.19Z" fill="black"/>
<path d="M284.21 441.19C283.861 439.354 283.693 437.489 283.71 435.62C283.688 433.751 283.855 431.885 284.21 430.05C284.57 431.884 284.737 433.751 284.71 435.62C284.732 437.489 284.564 439.355 284.21 441.19Z" fill="black"/>
<path d="M292.74 441.19C292.386 439.355 292.218 437.489 292.24 435.62C292.213 433.751 292.38 431.884 292.74 430.05C293.407 433.733 293.407 437.507 292.74 441.19Z" fill="black"/>
<path d="M324.92 441.19C324.571 439.354 324.403 437.489 324.42 435.62C324.398 433.751 324.565 431.885 324.92 430.05C325.28 431.884 325.447 433.751 325.42 435.62C325.442 437.489 325.274 439.355 324.92 441.19Z" fill="black"/>
</g>
<path opacity="0.1" d="M344.59 428.78V431.73L281.61 433.72V428.78H344.59Z" fill="black"/>
<path d="M349.45 414.97H286.47V428.89H349.45V414.97Z" fill="#5159FA"/>
<g opacity="0.1">
<path d="M289.06 416.25C289.727 419.93 289.727 423.7 289.06 427.38C288.393 423.7 288.393 419.93 289.06 416.25Z" fill="black"/>
<path d="M293.75 416.25C294.417 419.93 294.417 423.7 293.75 427.38C293.083 423.7 293.083 419.93 293.75 416.25Z" fill="black"/>
<path d="M296.05 416.25C296.703 419.931 296.703 423.699 296.05 427.38C295.383 423.7 295.383 419.93 296.05 416.25Z" fill="black"/>
<path d="M308.62 416.25C309.287 419.93 309.287 423.7 308.62 427.38C307.953 423.7 307.953 419.93 308.62 416.25Z" fill="black"/>
<path d="M312 416.25C312.667 419.93 312.667 423.7 312 427.38C311.333 423.7 311.333 419.93 312 416.25Z" fill="black"/>
<path d="M326.1 416.25C326.767 419.93 326.767 423.7 326.1 427.38C325.433 423.7 325.433 419.93 326.1 416.25Z" fill="black"/>
<path d="M329.35 416.25C330.017 419.93 330.017 423.7 329.35 427.38C328.683 423.7 328.683 419.93 329.35 416.25Z" fill="black"/>
<path d="M335.32 416.25C335.987 419.93 335.987 423.7 335.32 427.38C334.654 423.7 334.654 419.93 335.32 416.25Z" fill="black"/>
<path d="M323.38 416.25C324.047 419.93 324.047 423.7 323.38 427.38C323.021 425.549 322.853 423.686 322.88 421.82C322.858 419.951 323.025 418.085 323.38 416.25Z" fill="black"/>
<path d="M300.2 416.25C300.555 418.085 300.723 419.951 300.7 421.82C300.727 423.686 300.56 425.549 300.2 427.38C299.534 423.7 299.534 419.93 300.2 416.25Z" fill="black"/>
<path d="M316.5 416.25C317.167 419.93 317.167 423.7 316.5 427.38C315.833 423.7 315.833 419.93 316.5 416.25Z" fill="black"/>
<path d="M318.85 416.25C319.517 419.93 319.517 423.7 318.85 427.38C318.49 425.549 318.323 423.686 318.35 421.82C318.327 419.951 318.495 418.085 318.85 416.25Z" fill="black"/>
<path d="M343.1 416.25C343.767 419.93 343.767 423.7 343.1 427.38C342.433 423.7 342.433 419.93 343.1 416.25Z" fill="black"/>
<path d="M346.62 416.25C347.287 419.93 347.287 423.7 346.62 427.38C345.953 423.7 345.953 419.93 346.62 416.25Z" fill="black"/>
<path d="M338.09 416.25C338.757 419.93 338.757 423.7 338.09 427.38C337.731 425.549 337.563 423.686 337.59 421.82C337.568 419.951 337.735 418.085 338.09 416.25Z" fill="black"/>
<path d="M305.9 416.25C306.567 419.93 306.567 423.7 305.9 427.38C305.247 423.699 305.247 419.931 305.9 416.25Z" fill="black"/>
</g>
<path opacity="0.1" d="M349.44 414.97V417.93L286.47 419.92V414.97H349.44Z" fill="black"/>
<path d="M162.2 425.61H99.2197V439.53H162.2V425.61Z" fill="#5159FA"/>
<g opacity="0.1">
<path d="M101.82 426.88C102.487 430.563 102.487 434.337 101.82 438.02C101.153 434.337 101.153 430.563 101.82 426.88Z" fill="black"/>
<path d="M106.51 426.88C107.177 430.563 107.177 434.337 106.51 438.02C105.843 434.337 105.843 430.563 106.51 426.88Z" fill="black"/>
<path d="M108.8 426.88C109.467 430.563 109.467 434.337 108.8 438.02C108.133 434.337 108.133 430.563 108.8 426.88Z" fill="black"/>
<path d="M121.38 426.88C122.033 430.565 122.033 434.335 121.38 438.02C120.713 434.337 120.713 430.563 121.38 426.88Z" fill="black"/>
<path d="M124.78 426.88C125.446 430.563 125.446 434.337 124.78 438.02C124.42 436.186 124.252 434.319 124.28 432.45C124.258 430.581 124.425 428.715 124.78 426.88Z" fill="black"/>
<path d="M138.85 426.88C139.517 430.563 139.517 434.337 138.85 438.02C138.49 436.186 138.323 434.319 138.35 432.45C138.328 430.581 138.496 428.715 138.85 426.88Z" fill="black"/>
<path d="M142.1 426.88C142.449 428.716 142.617 430.581 142.6 432.45C142.622 434.319 142.455 436.185 142.1 438.02C141.74 436.186 141.573 434.319 141.6 432.45C141.583 430.581 141.751 428.716 142.1 426.88Z" fill="black"/>
<path d="M148.07 426.88C148.419 428.716 148.587 430.581 148.57 432.45C148.592 434.319 148.425 436.185 148.07 438.02C147.71 436.186 147.543 434.319 147.57 432.45C147.548 430.581 147.715 428.715 148.07 426.88Z" fill="black"/>
<path d="M136.13 426.88C136.479 428.716 136.647 430.581 136.63 432.45C136.657 434.319 136.49 436.186 136.13 438.02C135.775 436.185 135.608 434.319 135.63 432.45C135.613 430.581 135.781 428.716 136.13 426.88Z" fill="black"/>
<path d="M113 426.88C113.664 430.557 113.664 434.323 113 438C112.333 434.317 112.333 430.543 113 426.86V426.88Z" fill="black"/>
<path d="M129.26 426.88C129.913 430.565 129.913 434.335 129.26 438.02C128.593 434.337 128.593 430.563 129.26 426.88Z" fill="black"/>
<path d="M131.6 426.88C131.949 428.716 132.117 430.581 132.1 432.45C132.127 434.319 131.96 436.186 131.6 438.02C131.245 436.185 131.078 434.319 131.1 432.45C131.083 430.581 131.251 428.716 131.6 426.88Z" fill="black"/>
<path d="M155.85 426.88C156.199 428.716 156.367 430.581 156.35 432.45C156.377 434.319 156.21 436.186 155.85 438.02C155.49 436.186 155.323 434.319 155.35 432.45C155.333 430.581 155.501 428.716 155.85 426.88Z" fill="black"/>
<path d="M159.37 426.88C160.036 430.563 160.036 434.337 159.37 438.02C158.703 434.337 158.703 430.563 159.37 426.88Z" fill="black"/>
<path d="M150.84 426.88C151.189 428.716 151.357 430.581 151.34 432.45C151.367 434.319 151.2 436.186 150.84 438.02C150.485 436.185 150.318 434.319 150.34 432.45C150.323 430.581 150.491 428.716 150.84 426.88Z" fill="black"/>
<path d="M118.66 426.88C119.327 430.563 119.327 434.337 118.66 438.02C117.993 434.337 117.993 430.563 118.66 426.88Z" fill="black"/>
</g>
<path opacity="0.1" d="M162.19 425.61V428.57L99.2197 430.55V425.61H162.19Z" fill="black"/>
<path d="M157.89 411.69H94.9102V425.61H157.89V411.69Z" fill="#5159FA"/>
<g opacity="0.1">
<path d="M97.5102 413C98.1768 416.68 98.1768 420.45 97.5102 424.13C97.1506 422.299 96.983 420.436 97.0102 418.57C96.9875 416.701 97.155 414.835 97.5102 413Z" fill="black"/>
<path d="M102.2 413C102.867 416.68 102.867 420.45 102.2 424.13C101.84 422.299 101.673 420.436 101.7 418.57C101.677 416.701 101.845 414.835 102.2 413Z" fill="black"/>
<path d="M104.49 413C104.84 414.836 105.008 416.701 104.99 418.57C105.017 420.436 104.85 422.299 104.49 424.13C104.131 422.299 103.963 420.436 103.99 418.57C103.972 416.701 104.14 414.836 104.49 413Z" fill="black"/>
<path d="M117.07 413C117.737 416.68 117.737 420.45 117.07 424.13C116.404 420.45 116.404 416.68 117.07 413Z" fill="black"/>
<path d="M120.47 413C120.825 414.835 120.993 416.701 120.97 418.57C120.997 420.436 120.83 422.299 120.47 424.13C120.116 422.298 119.948 420.435 119.97 418.57C119.953 416.701 120.12 414.836 120.47 413Z" fill="black"/>
<path d="M134.54 413C134.895 414.835 135.063 416.701 135.04 418.57C135.067 420.436 134.9 422.299 134.54 424.13C134.185 422.298 134.018 420.435 134.04 418.57C134.022 416.701 134.19 414.836 134.54 413Z" fill="black"/>
<path d="M137.79 413C138.457 416.68 138.457 420.45 137.79 424.13C137.123 420.45 137.123 416.68 137.79 413Z" fill="black"/>
<path d="M143.76 413C144.115 414.835 144.283 416.701 144.26 418.57C144.287 420.436 144.12 422.299 143.76 424.13C143.094 420.45 143.094 416.68 143.76 413Z" fill="black"/>
<path d="M131.82 413C132.487 416.68 132.487 420.45 131.82 424.13C131.154 420.45 131.154 416.68 131.82 413Z" fill="black"/>
<path d="M108.65 413C109.317 416.68 109.317 420.45 108.65 424.13C107.984 420.45 107.984 416.68 108.65 413Z" fill="black"/>
<path d="M125 413C125.667 416.68 125.667 420.45 125 424.13C124.641 422.299 124.473 420.436 124.5 418.57C124.478 416.701 124.645 414.835 125 413Z" fill="black"/>
<path d="M127.29 413C127.957 416.68 127.957 420.45 127.29 424.13C126.623 420.45 126.623 416.68 127.29 413Z" fill="black"/>
<path d="M151.54 413C152.207 416.68 152.207 420.45 151.54 424.13C150.873 420.45 150.873 416.68 151.54 413Z" fill="black"/>
<path d="M155.06 413C155.41 414.836 155.578 416.701 155.56 418.57C155.587 420.436 155.42 422.299 155.06 424.13C154.705 422.298 154.538 420.435 154.56 418.57C154.542 416.701 154.71 414.836 155.06 413Z" fill="black"/>
<path d="M146.53 413C147.197 416.68 147.197 420.45 146.53 424.13C145.864 420.45 145.864 416.68 146.53 413Z" fill="black"/>
<path d="M114.35 413C114.7 414.836 114.868 416.701 114.85 418.57C114.872 420.435 114.705 422.298 114.35 424.13C113.99 422.299 113.823 420.436 113.85 418.57C113.832 416.701 114 414.836 114.35 413Z" fill="black"/>
</g>
<path opacity="0.1" d="M157.89 411.69V414.65L94.9102 416.64V411.69H157.89Z" fill="black"/>
<path d="M167.62 383.98H104.64V397.9H167.62V383.98Z" fill="#5159FA"/>
<g opacity="0.1">
<path d="M107.24 385.25C107.906 388.93 107.906 392.7 107.24 396.38C106.573 392.7 106.573 388.93 107.24 385.25Z" fill="black"/>
<path d="M111.93 385.25C112.596 388.93 112.596 392.7 111.93 396.38C111.263 392.7 111.263 388.93 111.93 385.25Z" fill="black"/>
<path d="M114.22 385.25C114.569 387.086 114.737 388.951 114.72 390.82C114.742 392.685 114.574 394.548 114.22 396.38C113.86 394.549 113.692 392.686 113.72 390.82C113.702 388.951 113.87 387.086 114.22 385.25Z" fill="black"/>
<path d="M126.8 385.25C127.466 388.93 127.466 392.7 126.8 396.38C126.133 392.7 126.133 388.93 126.8 385.25Z" fill="black"/>
<path d="M130.2 385.25C130.549 387.086 130.717 388.951 130.7 390.82C130.727 392.686 130.559 394.549 130.2 396.38C129.845 394.548 129.677 392.685 129.7 390.82C129.682 388.951 129.85 387.086 130.2 385.25Z" fill="black"/>
<path d="M144.27 385.25C144.624 387.085 144.792 388.951 144.77 390.82C144.797 392.686 144.629 394.549 144.27 396.38C143.915 394.548 143.747 392.685 143.77 390.82C143.752 388.951 143.92 387.086 144.27 385.25Z" fill="black"/>
<path d="M147.52 385.25C147.874 387.085 148.042 388.951 148.02 390.82C148.047 392.686 147.879 394.549 147.52 396.38C146.853 392.7 146.853 388.93 147.52 385.25Z" fill="black"/>
<path d="M153.49 385.25C153.845 387.085 154.012 388.951 153.99 390.82C154.017 392.686 153.849 394.549 153.49 396.38C153.135 394.548 152.968 392.685 152.99 390.82C152.972 388.951 153.14 387.086 153.49 385.25Z" fill="black"/>
<path d="M141.55 385.25C142.216 388.93 142.216 392.7 141.55 396.38C140.883 392.7 140.883 388.93 141.55 385.25Z" fill="black"/>
<path d="M118.38 385.25C119.047 388.93 119.047 392.7 118.38 396.38C117.713 392.7 117.713 388.93 118.38 385.25Z" fill="black"/>
<path d="M134.68 385.25C135.346 388.93 135.346 392.7 134.68 396.38C134.013 392.7 134.013 388.93 134.68 385.25Z" fill="black"/>
<path d="M136.999 385.25C137.666 388.93 137.666 392.7 136.999 396.38C136.333 392.7 136.333 388.93 136.999 385.25Z" fill="black"/>
<path d="M161.27 385.25C161.936 388.93 161.936 392.7 161.27 396.38C160.603 392.7 160.603 388.93 161.27 385.25Z" fill="black"/>
<path d="M164.79 385.25C165.14 387.086 165.307 388.951 165.29 390.82C165.317 392.686 165.15 394.549 164.79 396.38C164.43 394.549 164.263 392.686 164.29 390.82C164.273 388.951 164.44 387.086 164.79 385.25Z" fill="black"/>
<path d="M156.26 385.25C156.926 388.93 156.926 392.7 156.26 396.38C155.593 392.7 155.593 388.93 156.26 385.25Z" fill="black"/>
<path d="M124.08 385.25C124.429 387.086 124.597 388.951 124.58 390.82C124.602 392.685 124.434 394.548 124.08 396.38C123.72 394.549 123.552 392.686 123.58 390.82C123.557 388.951 123.725 387.085 124.08 385.25Z" fill="black"/>
</g>
<path opacity="0.1" d="M167.62 383.98V386.93L104.64 388.92V383.98H167.62Z" fill="black"/>
<path d="M166.03 370.06H103.05V383.98H166.03V370.06Z" fill="#5159FA"/>
<g opacity="0.1">
<path d="M163.2 382.47C162.85 380.634 162.683 378.769 162.7 376.9C162.673 375.031 162.841 373.164 163.2 371.33C163.559 373.164 163.727 375.031 163.7 376.9C163.717 378.769 163.55 380.634 163.2 382.47Z" fill="black"/>
<path d="M158.51 382.47C158.16 380.634 157.993 378.769 158.01 376.9C157.983 375.031 158.151 373.164 158.51 371.33C158.869 373.164 159.037 375.031 159.01 376.9C159.027 378.769 158.86 380.634 158.51 382.47Z" fill="black"/>
<path d="M156.22 382.47C155.865 380.635 155.698 378.769 155.72 376.9C155.693 375.031 155.861 373.164 156.22 371.33C156.887 375.013 156.887 378.787 156.22 382.47Z" fill="black"/>
<path d="M143.64 382.47C143.29 380.634 143.123 378.769 143.14 376.9C143.118 375.031 143.286 373.165 143.64 371.33C143.999 373.164 144.167 375.031 144.14 376.9C144.157 378.769 143.99 380.634 143.64 382.47Z" fill="black"/>
<path d="M140.24 382.47C139.573 378.787 139.573 375.013 140.24 371.33C140.907 375.013 140.907 378.787 140.24 382.47Z" fill="black"/>
<path d="M126.17 382.47C125.503 378.787 125.503 375.013 126.17 371.33C126.837 375.013 126.837 378.787 126.17 382.47Z" fill="black"/>
<path d="M122.92 382.47C122.253 378.787 122.253 375.013 122.92 371.33C123.587 375.013 123.587 378.787 122.92 382.47Z" fill="black"/>
<path d="M117 382.47C116.333 378.787 116.333 375.013 117 371.33C117.667 375.013 117.667 378.787 117 382.47Z" fill="black"/>
<path d="M128.89 382.47C128.223 378.787 128.223 375.013 128.89 371.33C129.544 375.015 129.544 378.785 128.89 382.47Z" fill="black"/>
<path d="M152.06 382.47C151.71 380.634 151.543 378.769 151.56 376.9C151.538 375.031 151.706 373.165 152.06 371.33C152.419 373.164 152.587 375.031 152.56 376.9C152.582 378.769 152.415 380.635 152.06 382.47Z" fill="black"/>
<path d="M135.76 382.47C135.41 380.634 135.243 378.769 135.26 376.9C135.238 375.031 135.406 373.165 135.76 371.33C136.119 373.164 136.287 375.031 136.26 376.9C136.277 378.769 136.11 380.634 135.76 382.47Z" fill="black"/>
<path d="M133.42 382.47C132.753 378.787 132.753 375.013 133.42 371.33C134.073 375.015 134.073 378.785 133.42 382.47Z" fill="black"/>
<path d="M109.17 382.47C108.503 378.787 108.503 375.013 109.17 371.33C109.837 375.013 109.837 378.787 109.17 382.47Z" fill="black"/>
<path d="M105.65 382.47C104.983 378.787 104.983 375.013 105.65 371.33C106.317 375.013 106.317 378.787 105.65 382.47Z" fill="black"/>
<path d="M114.18 382.47C113.513 378.787 113.513 375.013 114.18 371.33C114.833 375.015 114.833 378.785 114.18 382.47Z" fill="black"/>
<path d="M146.36 382.47C146.005 380.635 145.838 378.769 145.86 376.9C145.834 375.031 146.001 373.164 146.36 371.33C147.027 375.013 147.027 378.787 146.36 382.47Z" fill="black"/>
</g>
<path opacity="0.1" d="M166.03 370.06V373.02L103.05 375V370.06H166.03Z" fill="black"/>
<path d="M162.2 356.14H99.2197V370.06H162.2V356.14Z" fill="#5159FA"/>
<g opacity="0.1">
<path d="M101.82 357.42C102.486 361.1 102.486 364.87 101.82 368.55C101.153 364.87 101.153 361.1 101.82 357.42Z" fill="black"/>
<path d="M106.51 357.42C107.176 361.1 107.176 364.87 106.51 368.55C105.843 364.87 105.843 361.1 106.51 357.42Z" fill="black"/>
<path d="M108.8 357.42C109.15 359.256 109.317 361.121 109.3 362.99C109.322 364.856 109.154 366.718 108.8 368.55C108.44 366.719 108.273 364.856 108.3 362.99C108.277 361.121 108.445 359.255 108.8 357.42Z" fill="black"/>
<path d="M121.38 357.42C122.047 361.1 122.047 364.87 121.38 368.55C120.713 364.87 120.713 361.1 121.38 357.42Z" fill="black"/>
<path d="M124.78 357.42C125.13 359.256 125.297 361.121 125.28 362.99C125.302 364.856 125.134 366.718 124.78 368.55C124.42 366.719 124.253 364.856 124.28 362.99C124.262 361.121 124.429 359.256 124.78 357.42Z" fill="black"/>
<path d="M138.85 357.42C139.2 359.256 139.368 361.121 139.35 362.99C139.372 364.856 139.205 366.718 138.85 368.55C138.49 366.719 138.323 364.856 138.35 362.99C138.332 361.121 138.5 359.256 138.85 357.42Z" fill="black"/>
<path d="M142.1 357.42C142.455 359.255 142.622 361.121 142.6 362.99C142.627 364.856 142.459 366.719 142.1 368.55C141.745 366.718 141.577 364.856 141.6 362.99C141.582 361.121 141.749 359.256 142.1 357.42Z" fill="black"/>
<path d="M148.07 357.42C148.42 359.256 148.588 361.121 148.57 362.99C148.597 364.856 148.429 366.719 148.07 368.55C147.715 366.718 147.548 364.856 147.57 362.99C147.552 361.121 147.72 359.256 148.07 357.42Z" fill="black"/>
<path d="M136.13 357.42C136.485 359.255 136.653 361.121 136.63 362.99C136.657 364.856 136.489 366.719 136.13 368.55C135.463 364.87 135.463 361.1 136.13 357.42Z" fill="black"/>
<path d="M113 357.42C113.667 361.1 113.667 364.87 113 368.55C112.333 364.87 112.333 361.1 113 357.42Z" fill="black"/>
<path d="M129.26 357.42C129.926 361.1 129.926 364.87 129.26 368.55C128.593 364.87 128.593 361.1 129.26 357.42Z" fill="black"/>
<path d="M131.6 357.42C131.955 359.255 132.122 361.121 132.1 362.99C132.127 364.856 131.959 366.719 131.6 368.55C130.933 364.87 130.933 361.1 131.6 357.42Z" fill="black"/>
<path d="M155.85 357.42C156.205 359.255 156.372 361.121 156.35 362.99C156.377 364.856 156.209 366.719 155.85 368.55C155.495 366.718 155.327 364.856 155.35 362.99C155.332 361.121 155.499 359.256 155.85 357.42Z" fill="black"/>
<path d="M159.37 357.42C159.72 359.256 159.888 361.121 159.87 362.99C159.892 364.856 159.725 366.718 159.37 368.55C159.01 366.719 158.843 364.856 158.87 362.99C158.847 361.121 159.015 359.255 159.37 357.42Z" fill="black"/>
<path d="M150.84 357.42C151.195 359.255 151.363 361.121 151.34 362.99C151.367 364.856 151.199 366.719 150.84 368.55C150.173 364.87 150.173 361.1 150.84 357.42Z" fill="black"/>
<path d="M118.66 357.42C119.326 361.1 119.326 364.87 118.66 368.55C118.3 366.719 118.132 364.856 118.16 362.99C118.137 361.121 118.304 359.255 118.66 357.42Z" fill="black"/>
</g>
<path opacity="0.1" d="M162.2 356.14V359.1L99.2197 361.09V356.14H162.2Z" fill="black"/>
<path d="M162.2 397.89H99.2197V411.81H162.2V397.89Z" fill="#5159FA"/>
<g opacity="0.1">
<path d="M159.37 410.3C159.015 408.465 158.847 406.599 158.87 404.73C158.843 402.864 159.01 401.001 159.37 399.17C160.037 402.85 160.037 406.62 159.37 410.3Z" fill="black"/>
<path d="M154.68 410.3C154.324 408.465 154.157 406.599 154.18 404.73C154.152 402.864 154.32 401.001 154.68 399.17C155.346 402.85 155.346 406.62 154.68 410.3Z" fill="black"/>
<path d="M152.39 410.3C151.723 406.62 151.723 402.85 152.39 399.17C153.056 402.85 153.056 406.62 152.39 410.3Z" fill="black"/>
<path d="M139.81 410.3C139.455 408.465 139.287 406.599 139.31 404.73C139.283 402.864 139.45 401.001 139.81 399.17C140.165 401.002 140.332 402.865 140.31 404.73C140.328 406.599 140.16 408.464 139.81 410.3Z" fill="black"/>
<path d="M136.41 410.3C135.743 406.62 135.743 402.85 136.41 399.17C137.076 402.85 137.076 406.62 136.41 410.3Z" fill="black"/>
<path d="M122.34 410.3C121.673 406.62 121.673 402.85 122.34 399.17C122.993 402.851 122.993 406.619 122.34 410.3Z" fill="black"/>
<path d="M119.08 410.3C118.413 406.62 118.413 402.85 119.08 399.17C119.746 402.85 119.746 406.62 119.08 410.3Z" fill="black"/>
<path d="M113.11 410.3C112.456 406.619 112.456 402.851 113.11 399.17C113.776 402.85 113.776 406.62 113.11 410.3Z" fill="black"/>
<path d="M125.05 410.3C124.383 406.62 124.383 402.85 125.05 399.17C125.716 402.85 125.716 406.62 125.05 410.3Z" fill="black"/>
<path d="M148.23 410.3C147.875 408.465 147.707 406.599 147.73 404.73C147.703 402.864 147.87 401.001 148.23 399.17C148.585 401.002 148.752 402.865 148.73 404.73C148.748 406.599 148.58 408.464 148.23 410.3Z" fill="black"/>
<path d="M131.93 410.3C131.574 408.465 131.407 406.599 131.43 404.73C131.402 402.864 131.57 401.001 131.93 399.17C132.284 401.002 132.452 402.865 132.43 404.73C132.447 406.599 132.28 408.464 131.93 410.3Z" fill="black"/>
<path d="M129.58 410.3C128.913 406.62 128.913 402.85 129.58 399.17C130.246 402.85 130.246 406.62 129.58 410.3Z" fill="black"/>
<path d="M105.33 410.3C104.663 406.62 104.663 402.85 105.33 399.17C105.996 402.85 105.996 406.62 105.33 410.3Z" fill="black"/>
<path d="M101.82 410.3C101.153 406.62 101.153 402.85 101.82 399.17C102.486 402.85 102.486 406.62 101.82 410.3Z" fill="black"/>
<path d="M110.34 410.3C109.673 406.62 109.673 402.85 110.34 399.17C111.006 402.85 111.006 406.62 110.34 410.3Z" fill="black"/>
<path d="M142.53 410.3C141.863 406.62 141.863 402.85 142.53 399.17C143.196 402.85 143.196 406.62 142.53 410.3Z" fill="black"/>
</g>
<path opacity="0.1" d="M162.2 397.89V400.85L99.2197 402.84V397.89H162.2Z" fill="black"/>
<path d="M94.92 386C136.37 393.44 125.43 454.85 83.92 447.4C42.41 439.95 53.39 378.52 94.92 386Z" fill="#5159FA"/>
<path opacity="0.1" d="M94.92 386C136.37 393.44 125.43 454.85 83.92 447.4C42.41 439.95 53.39 378.52 94.92 386Z" fill="black"/>
<path d="M90.9999 385.27C130.51 392.36 119.55 453.77 79.9999 446.67C40.4499 439.57 51.4499 378.17 90.9999 385.27Z" fill="#5159FA"/>
<path opacity="0.1" d="M60.46 417.41C60.67 428.36 67 439 81 441.45C113.84 447.34 122.93 396.37 90.14 390.45C89.93 390.45 89.71 390.37 89.5 390.35C120.24 396.5 111.43 444.74 80.12 439.12C67.3 436.87 61.14 427.42 60.46 417.41Z" fill="black"/>
<g opacity="0.1">
<path d="M88.9301 396.86C89.0656 396.888 89.1939 396.943 89.3068 397.023C89.4198 397.103 89.515 397.205 89.5864 397.323C89.6579 397.442 89.704 397.574 89.7218 397.711C89.7396 397.848 89.7288 397.987 89.6901 398.12L89.2701 399.81C91.9435 400.71 94.287 402.389 96.0001 404.63C96.1468 404.771 96.2551 404.946 96.3146 405.141C96.3742 405.335 96.3829 405.541 96.3401 405.74C96.2629 406.024 96.0763 406.265 95.8214 406.411C95.5664 406.557 95.2639 406.596 94.9801 406.52C94.8389 406.493 94.7051 406.437 94.5878 406.354C94.4704 406.271 94.3723 406.164 94.3001 406.04C92.8834 404.079 90.9224 402.577 88.6601 401.72L85.7201 413.52C91.7901 416.52 93.8901 419.52 92.8501 423.67C91.7401 428.14 87.2001 430.36 81.8501 429.22L81.0301 432.5C80.9973 432.631 80.9389 432.755 80.8583 432.864C80.7777 432.972 80.6765 433.064 80.5604 433.134C80.4444 433.203 80.3157 433.25 80.1818 433.27C80.0479 433.289 79.9114 433.283 79.7801 433.25C79.6488 433.217 79.5252 433.159 79.4164 433.078C79.3077 432.998 79.2159 432.896 79.1462 432.78C79.0766 432.664 79.0305 432.536 79.0106 432.402C78.9906 432.268 78.9973 432.131 79.0301 432L79.8601 428.67C76.3981 427.527 73.4194 425.256 71.4001 422.22C71.2432 422.047 71.146 421.828 71.123 421.595C71.0999 421.363 71.1522 421.129 71.2721 420.929C71.392 420.728 71.5731 420.571 71.7888 420.482C72.0045 420.392 72.2433 420.374 72.4701 420.43C72.7546 420.492 73.0027 420.665 73.1601 420.91C74.8368 423.644 77.3987 425.723 80.4201 426.8L83.4201 414.8C77.4201 411.8 75.4201 408.86 76.4201 404.65C77.4201 400.44 82.0001 398.07 87.1701 399.23L87.5701 397.63C87.5938 397.482 87.6506 397.341 87.7363 397.217C87.8219 397.094 87.9342 396.992 88.0648 396.918C88.1955 396.844 88.3411 396.8 88.4909 396.79C88.6407 396.78 88.7908 396.804 88.9301 396.86ZM84.0001 412.64L86.8701 401.13C82.7601 400.2 79.4601 401.97 78.7001 405C78.0001 407.87 78.9001 410 84.0001 412.64ZM85.2101 415.64L82.3101 427.27C86.5501 428.27 89.9001 426.48 90.6901 423.27C91.4301 420.4 90.4001 418.26 85.2201 415.67L85.2101 415.64Z" fill="black"/>
</g>
<path d="M331.06 415.15C328.77 415.89 263.4 415.04 260.93 413.42C259.98 412.83 259.55 403.3 259.36 391.76V391.4C259.31 389.02 259.28 386.58 259.28 384.1C259.28 383.75 259.28 383.41 259.28 383.1L262.45 349.19L306.18 349.63L301.86 383.22L301.81 384.55L301.55 391.55V392.26C301.55 392.26 326.43 403.78 328.96 405.84C331.49 407.9 333.36 414.42 331.06 415.15Z" fill="#F7A9A0"/>
<path d="M331.06 415.15C328.77 415.89 263.4 415.04 260.93 413.42C259.98 412.83 259.55 403.3 259.36 391.76V391.4C259.31 389.02 259.28 386.58 259.28 384.1C259.28 383.75 259.28 383.41 259.28 383.1L301.86 383.22L301.81 384.55L301.55 391.55V392.26C301.55 392.26 326.43 403.78 328.96 405.84C331.49 407.9 333.36 414.42 331.06 415.15Z" fill="#EBEBEB"/>
<path d="M331.07 415.14C329.89 415.52 312.13 415.48 294.77 415.14C291.28 415.07 287.77 414.99 284.5 414.9C272.12 414.56 261.89 414.05 260.94 413.43C259.99 412.81 259.57 403.57 259.38 392.25C259.38 392.09 259.38 391.93 259.38 391.77C259.38 391.61 259.38 391.52 259.38 391.4H259.43L301.56 391.48V392.2C301.56 392.2 326.44 403.71 328.96 405.77C331.48 407.83 333.36 414.41 331.07 415.14Z" fill="#37474F"/>
<path d="M330.36 412.6C319.36 412.19 274.87 411.6 263.95 411.99C263.86 411.99 263.86 412.05 263.95 412.06C274.86 412.71 319.33 412.97 330.35 412.78C330.59 412.78 330.59 412.61 330.36 412.6Z" fill="#263238"/>
<path d="M306.23 391.66C301.91 390.79 296.59 391.39 293.23 394.44C293.1 394.55 293.23 394.74 293.41 394.69C297.572 393.409 301.86 392.578 306.2 392.21C306.265 392.202 306.325 392.171 306.369 392.123C306.414 392.075 306.44 392.013 306.444 391.948C306.448 391.882 306.428 391.818 306.389 391.765C306.35 391.712 306.294 391.675 306.23 391.66Z" fill="#263238"/>
<path d="M309.34 393.58C305.01 392.72 299.7 393.32 296.34 396.36C296.21 396.48 296.34 396.66 296.52 396.62C300.679 395.336 304.963 394.502 309.3 394.13C309.365 394.123 309.426 394.094 309.472 394.046C309.518 393.999 309.546 393.937 309.55 393.872C309.555 393.806 309.537 393.741 309.498 393.688C309.46 393.634 309.404 393.596 309.34 393.58Z" fill="#263238"/>
<path d="M312.44 395.51C308.12 394.65 302.8 395.24 299.44 398.29C299.31 398.41 299.44 398.59 299.62 398.55C303.782 397.266 308.07 396.431 312.41 396.06C312.475 396.052 312.535 396.021 312.579 395.973C312.624 395.925 312.65 395.863 312.654 395.797C312.658 395.732 312.638 395.668 312.599 395.615C312.56 395.562 312.504 395.525 312.44 395.51Z" fill="#263238"/>
<path d="M304.41 391.63H253.11C253.11 391.63 264.25 290.37 263.88 288.45C263.69 287.45 254.47 273.53 243.51 257.24C237.38 248.12 230.71 238.24 224.78 229.52C214.98 215.08 207.19 203.68 207.19 203.68H257.42C257.42 203.68 264.18 211.84 273.04 223.39C285.58 239.75 302.33 262.9 310.04 279.28C316 292 304.41 391.63 304.41 391.63Z" fill="#455A64"/>
<path d="M297.23 286.05C296.23 280.41 293.46 275.47 290.67 270.57C284.9 260.43 258.89 221.78 251.67 212.67L248.9 209.21C248.84 209.13 248.71 209.21 248.77 209.29C255.84 218.42 281.61 256.72 287.39 266.68C290.24 271.58 293.39 276.53 295.26 281.94C297.19 287.64 296.92 293.7 296.62 299.63C296 311.863 295.26 324.09 294.4 336.31C293.527 348.663 292.527 360.997 291.4 373.31C291.26 374.82 291.12 376.31 290.99 377.85C290.94 378.33 291.42 378.38 291.47 377.85C292.65 365.56 293.95 353.39 294.87 341.08C295.79 328.77 296.6 316.3 297.27 303.9C297.6 298 298.23 291.94 297.23 286.05Z" fill="#263238"/>
<path d="M302.32 383.59C295.13 383.44 297.2 383.38 290.01 383.31C286.49 383.31 263.36 383.08 260.07 383.62C260 383.62 260 383.76 260.07 383.77C263.36 384.31 286.49 384.11 290.01 384.08C297.2 384.01 295.13 383.95 302.32 383.8C302.348 383.8 302.375 383.789 302.394 383.769C302.414 383.75 302.425 383.723 302.425 383.695C302.425 383.667 302.414 383.64 302.394 383.621C302.375 383.601 302.348 383.59 302.32 383.59Z" fill="#263238"/>
<path d="M259.66 281.54C246.52 261.26 207.19 203.68 207.19 203.68H233.51L259.66 281.54Z" fill="#263238"/>
<path d="M152.93 458.13C155.23 458.85 220.59 457.33 223.04 455.69C223.98 455.08 224.31 445.55 224.39 434.01V433.65C224.39 431.28 229.87 391.33 229.87 391.33L187.15 392.2L182.21 434.2V434.92C182.21 434.92 157.48 446.65 155 448.73C152.52 450.81 150.63 457.42 152.93 458.13Z" fill="#F7A9A0"/>
<path d="M152.93 458.13C155.23 458.85 220.59 457.33 223.04 455.69C223.98 455.08 224.31 445.55 224.39 434.01V433.65C224.39 433.65 225.39 425.65 225.39 425.31L183.21 426.06L182.26 434.16V434.88C182.26 434.88 157.48 446.65 155 448.73C152.52 450.81 150.63 457.42 152.93 458.13Z" fill="#EBEBEB"/>
<path d="M152.93 458.13C155.23 458.85 220.59 457.33 223.04 455.69C223.98 455.08 224.31 445.55 224.39 434.01V433.65L182.21 434.16V434.88C182.21 434.88 157.48 446.65 155 448.73C152.52 450.81 150.63 457.42 152.93 458.13Z" fill="#37474F"/>
<path d="M153.61 455.58C164.61 455.05 209.08 453.97 220.01 454.29C220.1 454.29 220.1 454.35 220.01 454.36C209.11 455.12 164.64 455.84 153.61 455.76C153.38 455.76 153.38 455.59 153.61 455.58Z" fill="#263238"/>
<path d="M177.52 434.39C181.84 433.48 187.15 434.02 190.52 437.03C190.65 437.15 190.52 437.34 190.34 437.29C186.166 436.053 181.871 435.265 177.53 434.94C177.466 434.929 177.407 434.896 177.365 434.846C177.322 434.797 177.299 434.734 177.297 434.669C177.296 434.604 177.318 434.54 177.358 434.489C177.399 434.439 177.456 434.403 177.52 434.39Z" fill="#263238"/>
<path d="M174.43 436.35C178.75 435.44 184.07 435.98 187.43 438.99C187.56 439.11 187.43 439.29 187.25 439.25C183.077 438.007 178.782 437.219 174.44 436.9C174.376 436.889 174.318 436.856 174.275 436.806C174.233 436.757 174.209 436.694 174.208 436.629C174.206 436.564 174.228 436.5 174.269 436.449C174.309 436.399 174.366 436.363 174.43 436.35Z" fill="#263238"/>
<path d="M171.35 438.31C175.66 437.4 180.98 437.94 184.35 440.95C184.48 441.07 184.35 441.25 184.17 441.21C179.996 439.97 175.702 439.178 171.36 438.85C171.288 438.851 171.219 438.824 171.168 438.774C171.116 438.725 171.086 438.657 171.085 438.585C171.084 438.513 171.111 438.444 171.161 438.393C171.21 438.341 171.278 438.311 171.35 438.31Z" fill="#263238"/>
<path d="M257.42 203.68C257.42 203.68 251.42 240.37 250.99 241.55C250.99 241.55 248.75 242.61 244.71 244.47L226.88 434.73L179.81 434.92L206.05 203.68H257.42Z" fill="#455A64"/>
<path d="M225.27 426.36C218.08 426.24 220.15 426.17 212.95 426.13C209.44 426.13 186.31 426.01 183.02 426.57C182.95 426.57 182.95 426.7 183.02 426.72C186.32 427.25 209.44 426.95 212.96 426.9C220.15 426.8 218.08 426.75 225.27 426.57C225.286 426.575 225.304 426.576 225.321 426.573C225.338 426.571 225.354 426.564 225.368 426.554C225.382 426.543 225.393 426.53 225.401 426.515C225.409 426.499 225.413 426.482 225.413 426.465C225.413 426.448 225.409 426.431 225.401 426.415C225.393 426.4 225.382 426.387 225.368 426.376C225.354 426.366 225.338 426.359 225.321 426.357C225.304 426.354 225.286 426.355 225.27 426.36Z" fill="#263238"/>
<path d="M217.8 210.78C215.97 236.99 214.08 263.2 211.94 289.39C209.8 315.58 207.24 341.92 204.07 368.1C202.3 382.72 200.37 403.32 198.25 417.89C198.25 417.99 198.39 418.03 198.4 417.89C202.79 391.99 205.88 359.89 208.53 333.73C211.18 307.57 213.29 281.41 215.15 255.21C216.15 240.39 217.15 225.56 218.15 210.74C218.14 210.56 217.81 210.57 217.8 210.78Z" fill="#263238"/>
<path d="M253 240.41C248.316 242.361 243.812 244.72 239.54 247.46C239.522 247.469 239.507 247.482 239.494 247.497C239.481 247.512 239.471 247.53 239.465 247.549C239.459 247.568 239.457 247.588 239.459 247.608C239.46 247.628 239.466 247.647 239.475 247.665C239.484 247.683 239.497 247.698 239.512 247.711C239.527 247.724 239.545 247.734 239.564 247.74C239.583 247.746 239.603 247.748 239.623 247.746C239.643 247.745 239.662 247.739 239.68 247.73C244.22 245.53 248.86 243.4 253.27 240.95C253.342 240.914 253.396 240.851 253.421 240.775C253.447 240.699 253.441 240.617 253.405 240.545C253.369 240.473 253.306 240.419 253.231 240.394C253.155 240.368 253.072 240.374 253 240.41Z" fill="#263238"/>
<path d="M251.21 219.39C250.47 223.78 250.06 228.24 249.57 232.66C249.45 233.72 249.32 234.79 249.21 235.85C249.178 236.828 248.914 237.784 248.44 238.64C247.49 240.12 245.78 240.81 244.23 241.49C244.05 241.57 244.12 241.85 244.32 241.79C245.989 241.388 247.529 240.573 248.8 239.42C250.21 237.93 250.16 235.67 250.38 233.75C250.998 228.994 251.332 224.206 251.38 219.41C251.41 219.3 251.23 219.27 251.21 219.39Z" fill="#263238"/>
<path d="M245.88 220.74C245.72 223.9 245.37 227.06 245.1 230.22C244.97 231.77 244.86 233.34 244.77 234.9C244.68 236.46 244.49 238.11 244.54 239.69C244.547 239.71 244.559 239.727 244.576 239.74C244.593 239.752 244.614 239.759 244.635 239.759C244.656 239.759 244.677 239.752 244.694 239.74C244.711 239.727 244.723 239.71 244.73 239.69C244.99 238.19 245.03 236.63 245.15 235.11C245.27 233.59 245.39 231.91 245.48 230.31C245.66 227.12 245.74 223.9 246.03 220.71C246 220.63 245.88 220.64 245.88 220.74Z" fill="#263238"/>
<path d="M273 223.39L253.71 225.84L224.71 229.52L202.71 232.31L205.96 203.68H257.33C257.33 203.68 264.18 211.84 273 223.39Z" fill="#263238"/>
<path d="M248.86 153.21C257.7 171.39 276.37 190.46 287.01 190.46C297.01 190.46 322.15 170.76 333.91 159.18C336.59 156.54 312.14 135.67 309.51 138.73C303.37 145.88 289.01 161.4 284.41 161.4C280.31 161.4 267.41 152.1 256.12 142.88C242.44 131.69 245.34 146 248.86 153.21Z" fill="#F7A9A0"/>
<path d="M333.91 159.18C337.04 157.42 346.49 149.39 352.37 141.95C355.22 138.33 362.31 127.09 359.71 124.69C357.11 122.29 354.71 125.39 354.71 125.39C354.71 125.39 356.99 120.19 354.15 118.01C351.31 115.83 347.79 120.78 347.79 120.78C347.79 120.78 349.79 115.27 346.79 113.3C343.79 111.33 341.09 116.9 341.09 116.9C341.09 116.9 343.09 111.9 339.97 111.36C336.18 110.65 333.48 120.21 330.13 124.04C329.36 124.92 313.43 140.6 313.43 140.6L333.91 159.18Z" fill="#F7A9A0"/>
<path d="M341 117C339 124 336.91 126.74 331.55 131.53C331.45 131.63 331.55 131.81 331.68 131.72C337.36 127.5 340.47 124.46 341.35 117.07C341.38 116.66 341.09 116.61 341 117Z" fill="#263238"/>
<path d="M348 120.53C345.28 127.64 343 130.62 337.8 136.05C337.72 136.12 337.8 136.26 337.93 136.19C343.52 131.29 346.56 128.19 348.34 120.72C348.41 120.38 348.11 120.2 348 120.53Z" fill="#263238"/>
<path d="M354.48 126C351.36 132.7 349.04 136.07 343.27 140.69C343.25 140.714 343.238 140.744 343.237 140.775C343.236 140.807 343.245 140.838 343.264 140.863C343.282 140.888 343.308 140.907 343.339 140.915C343.369 140.924 343.401 140.922 343.43 140.91C349.77 136.77 352.69 132.59 354.68 126.12C354.81 125.64 354.68 125.54 354.48 126Z" fill="#263238"/>
<path d="M397.622 91.7674L323.806 92.5146L324.345 145.762L398.161 145.015L397.622 91.7674Z" fill="#EBEBEB"/>
<path d="M342.738 103.274L337.358 103.328L337.657 132.827L343.036 132.772L342.738 103.274Z" fill="#5159FA"/>
<path d="M351.87 132.66L346.49 132.72L346.3 111.35L351.67 111.3L351.87 132.66Z" fill="#5159FA"/>
<path d="M360.517 116.134L355.137 116.188L355.304 132.647L360.684 132.593L360.517 116.134Z" fill="#5159FA"/>
<path d="M369.369 119.314L363.989 119.369L364.123 132.558L369.503 132.504L369.369 119.314Z" fill="#5159FA"/>
<path d="M378.105 111.046L372.725 111.1L372.941 132.469L378.321 132.415L378.105 111.046Z" fill="#5159FA"/>
<path d="M386.9 106.839L381.521 106.895L381.782 132.333L387.162 132.278L386.9 106.839Z" fill="#5159FA"/>
<path d="M333.7 100.06C333.89 105.52 334.06 110.98 334.17 116.45C334.28 121.92 334.42 127.38 334.48 132.84L334.03 132.39L348.22 132.21L362.4 132.12C367.13 132.12 371.86 132.12 376.6 132.12C381.34 132.12 386.06 132.18 390.79 132.26C386.056 132.427 381.326 132.567 376.6 132.68C371.87 132.78 367.14 132.92 362.41 132.98L348.23 133.18L334 133.3H333.54V132.85C333.49 127.38 333.54 121.92 333.54 116.45C333.54 110.98 333.61 105.52 333.7 100.06Z" fill="#C7C7C7"/>
<path d="M332 103C332.583 102.913 333.171 102.866 333.76 102.86C334.345 102.852 334.93 102.889 335.51 102.97C334.346 103.137 333.164 103.137 332 102.97V103Z" fill="#C7C7C7"/>
<path d="M332 106C332.583 105.914 333.171 105.867 333.76 105.86C334.345 105.852 334.93 105.889 335.51 105.97C334.346 106.137 333.164 106.137 332 105.97V106Z" fill="#C7C7C7"/>
<path d="M332 109.06C332.582 108.969 333.171 108.922 333.76 108.92C334.345 108.912 334.93 108.949 335.51 109.03C334.346 109.197 333.164 109.197 332 109.03V109.06Z" fill="#C7C7C7"/>
<path d="M332.06 112.08C333.227 111.913 334.413 111.913 335.58 112.08C334.413 112.247 333.227 112.247 332.06 112.08Z" fill="#C7C7C7"/>
<path d="M332.09 115.1C333.257 114.933 334.442 114.933 335.61 115.1C334.442 115.267 333.257 115.267 332.09 115.1Z" fill="#C7C7C7"/>
<path d="M332.12 118.12C333.288 117.953 334.473 117.953 335.64 118.12C334.473 118.287 333.288 118.287 332.12 118.12Z" fill="#C7C7C7"/>
<path d="M332.16 121.14C332.739 121.048 333.324 121.002 333.91 121C334.499 120.992 335.087 121.029 335.67 121.11C335.088 121.201 334.5 121.248 333.91 121.25C333.325 121.258 332.74 121.221 332.16 121.14Z" fill="#C7C7C7"/>
<path d="M332.19 124.16C333.354 123.993 334.536 123.993 335.7 124.16C335.118 124.251 334.529 124.298 333.94 124.3C333.354 124.298 332.769 124.252 332.19 124.16Z" fill="#C7C7C7"/>
<path d="M332.22 127.18C333.384 127.013 334.566 127.013 335.73 127.18C335.147 127.271 334.559 127.318 333.97 127.32C333.384 127.318 332.799 127.271 332.22 127.18Z" fill="#C7C7C7"/>
<path d="M332.25 130.2C333.414 130.033 334.596 130.033 335.76 130.2C335.181 130.286 334.596 130.333 334.01 130.34C333.421 130.339 332.832 130.292 332.25 130.2Z" fill="#C7C7C7"/>
<path d="M349.24 99.14C351.17 98.96 353.09 98.87 355.01 98.79C356.93 98.71 358.86 98.67 360.79 98.64C362.72 98.61 364.64 98.64 366.56 98.64C368.48 98.64 370.41 98.73 372.34 98.87C370.41 99.05 368.49 99.14 366.57 99.22C364.65 99.3 362.72 99.33 360.79 99.36C358.86 99.39 356.94 99.36 355.02 99.36C353.1 99.36 351.17 99.27 349.24 99.14Z" fill="#C7C7C7"/>
<path d="M353.6 101.77C358.392 101.22 363.228 101.17 368.03 101.62C365.638 101.915 363.23 102.065 360.82 102.07C358.41 102.11 355.999 102.01 353.6 101.77Z" fill="#C7C7C7"/>
<path d="M333.84 138.82V135.37H337.29V138.83L333.84 138.82ZM334.31 135.82V138.28H336.76V135.83L334.31 135.82Z" fill="#C7C7C7"/>
<path d="M339.78 135.56C342.71 135.43 345.64 135.34 348.58 135.27L357.37 135.13H366.16C369.1 135.13 372.03 135.13 374.96 135.24C372.03 135.36 369.1 135.46 366.17 135.52L357.37 135.67H348.58C345.646 135.657 342.713 135.62 339.78 135.56Z" fill="#C7C7C7"/>
<path d="M339.8 137C343.11 136.76 346.42 136.72 349.73 136.65C353.04 136.58 356.36 136.65 359.67 136.8C356.36 137.04 353.05 137.09 349.74 137.15C346.43 137.21 343.11 137.21 339.8 137Z" fill="#C7C7C7"/>
<path d="M339.81 138.51C343.87 138.27 347.94 138.21 352 138.14C356.06 138.07 360.12 138.14 364.19 138.26C360.13 138.51 356.07 138.57 352 138.64C347.93 138.71 343.88 138.68 339.81 138.51Z" fill="#C7C7C7"/>
<path d="M333.94 104.5C335.201 104 336.528 103.69 337.88 103.58C339.255 103.413 340.651 103.592 341.94 104.1C343.164 104.741 344.264 105.594 345.19 106.62C346.14 107.62 347.01 108.62 347.85 109.7C349.55 111.79 351.13 113.97 352.95 115.9C354.645 117.895 356.835 119.409 359.3 120.29C360.514 120.66 361.799 120.739 363.05 120.52C364.323 120.253 365.548 119.791 366.68 119.15C368.971 117.8 371.136 116.247 373.15 114.51C375.23 112.81 377.24 111.01 379.39 109.37C380.459 108.538 381.592 107.792 382.78 107.14C383.374 106.809 383.997 106.531 384.64 106.31C385.288 106.111 385.962 106.009 386.64 106.01C385.304 106.15 384.023 106.617 382.91 107.37C381.776 108.079 380.7 108.874 379.69 109.75C377.63 111.46 375.69 113.31 373.69 115.09C371.687 116.935 369.494 118.564 367.15 119.95C365.944 120.653 364.634 121.163 363.27 121.46C361.866 121.721 360.421 121.649 359.05 121.25C356.429 120.294 354.107 118.663 352.32 116.52C350.546 114.49 348.877 112.371 347.32 110.17C346.51 109.1 345.69 108.04 344.8 107.05C343.954 106.045 342.938 105.196 341.8 104.54C340.603 104 339.291 103.763 337.98 103.85C336.61 103.885 335.251 104.104 333.94 104.5Z" fill="#263238"/>
<path d="M307.71 140.8C307.71 140.8 313.29 133.58 316.5 131.01C319.71 128.44 335.22 123.25 336.5 126.54C338.19 130.78 329.83 135.54 325.43 137.33C325.43 137.33 329.35 147.13 324.09 151.84C318.83 156.55 307.71 140.8 307.71 140.8Z" fill="#F7A9A0"/>
<path d="M336.61 127.86C335.36 132.86 329.43 134.86 325.3 136.86C325.237 136.887 325.183 136.929 325.14 136.983C325.098 137.036 325.069 137.099 325.056 137.166C325.043 137.233 325.047 137.302 325.067 137.367C325.087 137.432 325.122 137.492 325.17 137.54C326.53 141.76 327.24 148.11 324.41 151.84C324.401 151.85 324.394 151.861 324.389 151.874C324.384 151.887 324.382 151.9 324.382 151.914C324.383 151.927 324.386 151.94 324.392 151.952C324.397 151.965 324.405 151.976 324.415 151.985C324.425 151.994 324.436 152.001 324.449 152.006C324.462 152.011 324.475 152.013 324.488 152.013C324.502 152.012 324.515 152.009 324.527 152.003C324.54 151.998 324.551 151.99 324.56 151.98C328.14 148.39 327.96 142.1 326.17 137.57C330.44 135.57 336.3 133.28 336.66 127.85L336.61 127.86Z" fill="#263238"/>
<path d="M253.87 140.89C261.26 145.83 279.31 161.57 284.24 160.31C289.17 159.05 305 142.2 305 142.2L329.94 165.79C329.94 165.79 301.67 192.67 286.04 191.68C270.41 190.69 254.2 166.68 249.04 156.34C243.88 146 241.56 132.68 253.87 140.89Z" fill="#5159FA"/>
<path d="M285.4 173.54C285.067 172.619 285.067 171.611 285.4 170.69C285.733 171.611 285.733 172.619 285.4 173.54ZM309 156.09C309.009 155.605 308.925 155.123 308.75 154.67C308.575 155.123 308.49 155.605 308.5 156.09C308.495 156.575 308.58 157.056 308.75 157.51C308.92 157.056 309.005 156.575 309 156.09ZM312 178.33C312.005 177.845 311.92 177.364 311.75 176.91C311.417 177.827 311.417 178.833 311.75 179.75C311.92 179.296 312.005 178.815 312 178.33ZM260.32 167.9C260.335 167.414 260.25 166.931 260.07 166.48C259.737 167.397 259.737 168.403 260.07 169.32C260.245 168.867 260.33 168.385 260.32 167.9ZM304.57 175.07C304.58 174.585 304.495 174.103 304.32 173.65C303.987 174.567 303.987 175.573 304.32 176.49C304.495 176.037 304.58 175.555 304.57 175.07ZM276.57 158.91C277.055 158.913 277.536 158.829 277.99 158.66C277.538 158.481 277.055 158.396 276.57 158.41C276.085 158.399 275.602 158.484 275.15 158.66C275.61 158.833 276.098 158.918 276.59 158.91H276.57ZM278.37 179.56C278.855 179.565 279.336 179.48 279.79 179.31C278.873 178.977 277.867 178.977 276.95 179.31C277.41 179.483 277.898 179.568 278.39 179.56H278.37ZM296.25 169.56C296.735 169.569 297.217 169.484 297.67 169.31C297.217 169.136 296.735 169.051 296.25 169.06C295.762 169.055 295.277 169.14 294.82 169.31C295.283 169.486 295.775 169.574 296.27 169.57L296.25 169.56ZM317.76 171.67C318.245 171.68 318.727 171.595 319.18 171.42C318.263 171.087 317.257 171.087 316.34 171.42C316.798 171.602 317.287 171.69 317.78 171.68L317.76 171.67ZM305.76 147.67C306.245 147.676 306.726 147.591 307.18 147.42C306.729 147.24 306.245 147.154 305.76 147.17C305.275 147.161 304.793 147.246 304.34 147.42C304.786 147.597 305.26 147.691 305.74 147.7L305.76 147.67ZM259.52 151.73C259.179 151.382 258.775 151.1 258.33 150.9C258.528 151.343 258.81 151.744 259.16 152.08C259.495 152.431 259.896 152.713 260.34 152.91C260.134 152.478 259.849 152.088 259.5 151.76L259.52 151.73ZM269.82 173.86C269.482 173.512 269.082 173.23 268.64 173.03C269.055 173.908 269.762 174.615 270.64 175.03C270.433 174.601 270.148 174.215 269.8 173.89L269.82 173.86ZM294.39 178.86C294.05 178.509 293.646 178.227 293.2 178.03C293.605 178.915 294.315 179.625 295.2 180.03C294.994 179.6 294.713 179.211 294.37 178.88L294.39 178.86ZM307.89 166C307.555 165.649 307.154 165.367 306.71 165.17C307.125 166.048 307.832 166.755 308.71 167.17C308.512 166.732 308.234 166.336 307.89 166ZM289.55 161.11C289.212 160.765 288.811 160.487 288.37 160.29C288.785 161.168 289.492 161.875 290.37 162.29C290.169 161.86 289.891 161.47 289.55 161.14V161.11ZM286 185.92C285.652 186.258 285.37 186.658 285.17 187.1C285.613 186.902 286.014 186.62 286.35 186.27C286.701 185.935 286.983 185.534 287.18 185.09C286.738 185.29 286.338 185.572 286 185.92ZM301.23 184.07C300.883 184.406 300.604 184.807 300.41 185.25C301.288 184.835 301.995 184.128 302.41 183.25C301.962 183.446 301.555 183.724 301.21 184.07H301.23ZM275.43 167.07C275.079 167.405 274.797 167.806 274.6 168.25C275.044 168.053 275.445 167.771 275.78 167.42C276.13 167.084 276.412 166.683 276.61 166.24C276.165 166.415 275.758 166.673 275.41 167L275.43 167.07ZM319 160.64C318.652 160.975 318.373 161.376 318.18 161.82C318.622 161.62 319.022 161.338 319.36 160.99C319.706 160.65 319.987 160.25 320.19 159.81C319.745 160.01 319.341 160.292 319 160.64ZM266.3 160.64C265.952 160.978 265.67 161.378 265.47 161.82C266.348 161.405 267.055 160.698 267.47 159.82C267.039 160.02 266.65 160.298 266.32 160.64H266.3ZM298.05 156.92C297.702 157.258 297.42 157.658 297.22 158.1C297.666 157.903 298.07 157.621 298.41 157.27C298.756 156.93 299.037 156.53 299.24 156.09C298.802 156.292 298.405 156.574 298.07 156.92H298.05ZM252.87 145.54C252.875 145.055 252.79 144.574 252.62 144.12C252.44 144.571 252.355 145.055 252.37 145.54C252.359 146.025 252.444 146.508 252.62 146.96C252.798 146.508 252.889 146.026 252.89 145.54H252.87ZM253.36 160.82C253.848 160.825 254.333 160.74 254.79 160.57C254.335 160.39 253.849 160.305 253.36 160.32C252.875 160.311 252.393 160.396 251.94 160.57C252.401 160.741 252.889 160.826 253.38 160.82H253.36Z" fill="white"/>
<path d="M322.7 168.45C321.94 167.45 320.99 166.68 320.14 165.8C319.29 164.92 318.4 164.07 317.51 163.23C315.79 161.6 314.05 159.99 312.31 158.4L307.05 153.63C305.24 151.99 303.47 150.23 301.53 148.74C301.514 148.725 301.493 148.718 301.471 148.719C301.45 148.72 301.43 148.729 301.415 148.745C301.4 148.761 301.393 148.782 301.394 148.804C301.395 148.825 301.404 148.845 301.42 148.86C303.04 150.68 304.92 152.32 306.69 154.01L311.92 159.01C313.66 160.67 315.42 162.317 317.2 163.95C318.08 164.75 318.96 165.53 319.86 166.3C320.76 167.07 321.63 167.92 322.61 168.59C322.69 168.64 322.76 168.52 322.7 168.45Z" fill="#263238"/>
<path d="M284 191.41C269 188.6 254 166.23 249 156.35C245.68 149.74 243.58 141.92 245.71 139.27C251.78 147.51 273 176.45 284 191.41Z" fill="#263238"/>
<path d="M270.72 220.19C269.72 221.32 202.26 221.42 201.92 221.01C200.99 219.89 216.97 150.91 231.92 138.91C235.13 136.33 247.45 136.72 249.13 137.38C251.05 138.11 256.47 147.28 258.94 154.75C263.86 169.7 271.6 219.2 270.72 220.19Z" fill="#5159FA"/>
<path d="M244.6 178.33C244.43 177.876 244.345 177.395 244.35 176.91C244.34 176.425 244.425 175.942 244.6 175.49C244.776 175.942 244.861 176.425 244.85 176.91C244.855 177.395 244.77 177.876 244.6 178.33ZM253.14 193.13C253.145 192.642 253.06 192.157 252.89 191.7C252.711 192.155 252.626 192.641 252.64 193.13C252.631 193.615 252.716 194.097 252.89 194.55C253.059 194.096 253.144 193.615 253.14 193.13ZM252.89 145.54C252.895 145.055 252.81 144.574 252.64 144.12C252.461 144.571 252.376 145.055 252.39 145.54C252.38 146.025 252.465 146.508 252.64 146.96C252.811 146.506 252.896 146.025 252.89 145.54ZM232.27 193.67C232.276 193.185 232.191 192.704 232.02 192.25C231.84 192.701 231.755 193.184 231.77 193.67C231.761 194.155 231.846 194.637 232.02 195.09C232.19 194.636 232.275 194.155 232.27 193.67ZM267.5 200.4C267.51 199.912 267.425 199.426 267.25 198.97C267.075 199.426 266.991 199.912 267 200.4C266.997 200.885 267.082 201.366 267.25 201.82C267.424 201.367 267.509 200.885 267.5 200.4ZM243.17 210.12C243.18 209.635 243.095 209.153 242.92 208.7C242.746 209.153 242.661 209.635 242.67 210.12C242.665 210.605 242.749 211.086 242.92 211.54C243.096 211.088 243.181 210.605 243.17 210.12ZM223.37 216.81C223.375 216.325 223.29 215.844 223.12 215.39C222.787 216.307 222.787 217.313 223.12 218.23C223.29 217.776 223.375 217.295 223.37 216.81ZM239.61 158.38C239.619 157.895 239.534 157.413 239.36 156.96C239.027 157.881 239.027 158.889 239.36 159.81C239.535 159.354 239.62 158.868 239.61 158.38ZM226.8 150.3C226.806 149.815 226.721 149.334 226.55 148.88C226.217 149.797 226.217 150.803 226.55 151.72C226.72 151.266 226.805 150.785 226.8 150.3ZM226.55 174.45C226.554 173.965 226.469 173.484 226.3 173.03C225.967 173.951 225.967 174.959 226.3 175.88C226.47 175.423 226.555 174.938 226.55 174.45ZM213.07 200.45C213.086 199.964 213.001 199.481 212.82 199.03C212.649 199.484 212.565 199.965 212.57 200.45C212.567 200.935 212.652 201.416 212.82 201.87C213.001 201.402 213.086 200.902 213.07 200.4V200.45ZM260.32 167.95C260.336 167.464 260.251 166.981 260.07 166.53C259.737 167.447 259.737 168.453 260.07 169.37C260.251 168.902 260.336 168.402 260.32 167.9V167.95ZM235.73 172.32C236.215 172.323 236.696 172.239 237.15 172.07C236.229 171.737 235.221 171.737 234.3 172.07C234.761 172.223 235.245 172.291 235.73 172.27V172.32ZM234.3 203.98C234.788 203.985 235.273 203.9 235.73 203.73C234.809 203.397 233.801 203.397 232.88 203.73C233.338 203.882 233.819 203.949 234.3 203.93V203.98ZM242 220C242.485 220.011 242.968 219.926 243.42 219.75C242.966 219.579 242.485 219.494 242 219.5C241.516 219.497 241.034 219.581 240.58 219.75C241.033 219.924 241.515 220.009 242 220ZM259.69 177.77C260.175 177.775 260.656 177.69 261.11 177.52C260.193 177.187 259.188 177.187 258.27 177.52C258.713 177.694 259.184 177.786 259.66 177.79L259.69 177.77ZM224.69 160.46C225.175 160.47 225.658 160.385 226.11 160.21C225.658 160.035 225.175 159.95 224.69 159.96C224.206 159.955 223.724 160.04 223.27 160.21C223.706 160.385 224.171 160.477 224.64 160.48L224.69 160.46ZM242.27 147.46C242.755 147.465 243.236 147.38 243.69 147.21C243.239 147.03 242.756 146.945 242.27 146.96C241.785 146.949 241.303 147.034 240.85 147.21C241.289 147.371 241.753 147.453 242.22 147.45L242.27 147.46ZM224.54 185C225.025 185.005 225.506 184.92 225.96 184.75C225.509 184.57 225.026 184.485 224.54 184.5C224.055 184.489 223.573 184.574 223.12 184.75C223.574 184.921 224.055 185.006 224.54 185ZM214.62 210.11C215.105 210.119 215.587 210.034 216.04 209.86C215.119 209.527 214.111 209.527 213.19 209.86C213.646 210.038 214.131 210.126 214.62 210.12V210.11ZM253.38 160.81C253.868 160.815 254.353 160.73 254.81 160.56C254.355 160.38 253.869 160.295 253.38 160.31C252.895 160.301 252.413 160.386 251.96 160.56C252.414 160.732 252.895 160.82 253.38 160.82V160.81ZM244.09 187.29C244.575 187.301 245.058 187.216 245.51 187.04C244.593 186.707 243.588 186.707 242.67 187.04C243.122 187.218 243.604 187.306 244.09 187.3V187.29ZM264.39 218C264.875 218.011 265.358 217.926 265.81 217.75C264.893 217.417 263.888 217.417 262.97 217.75C263.423 217.925 263.905 218.01 264.39 218ZM252.64 204.22C253.125 204.223 253.606 204.139 254.06 203.97C253.139 203.637 252.131 203.637 251.21 203.97C251.67 204.126 252.155 204.197 252.64 204.18V204.22ZM252.81 215.51C252.473 215.162 252.072 214.88 251.63 214.68C251.828 215.123 252.11 215.524 252.46 215.86C252.795 216.211 253.196 216.493 253.64 216.69C253.445 216.234 253.163 215.82 252.81 215.47V215.51ZM214.81 190.32C214.473 189.972 214.072 189.69 213.63 189.49C213.828 189.933 214.11 190.334 214.46 190.67C214.798 191.018 215.198 191.3 215.64 191.5C215.439 191.042 215.15 190.628 214.79 190.28L214.81 190.32ZM235.51 182.1C235.173 181.746 234.769 181.464 234.32 181.27C234.52 181.712 234.802 182.112 235.15 182.45C235.492 182.798 235.895 183.08 236.34 183.28C236.136 182.824 235.847 182.41 235.49 182.06L235.51 182.1ZM224.13 203.79C223.793 203.442 223.392 203.16 222.95 202.96C223.366 203.838 224.072 204.545 224.95 204.96C224.75 204.506 224.465 204.096 224.11 203.75L224.13 203.79ZM205.87 215.58C205.53 215.232 205.126 214.954 204.68 214.76C204.88 215.202 205.162 215.602 205.51 215.94C205.852 216.288 206.255 216.57 206.7 216.77C206.495 216.311 206.207 215.894 205.85 215.54L205.87 215.58ZM221.11 167.76C220.774 167.41 220.374 167.128 219.93 166.93C220.13 167.375 220.412 167.779 220.76 168.12C221.098 168.465 221.499 168.743 221.94 168.94C221.742 168.48 221.453 168.065 221.09 167.72L221.11 167.76ZM244.78 166C244.443 165.646 244.039 165.364 243.59 165.17C243.79 165.612 244.072 166.012 244.42 166.35C244.762 166.698 245.165 166.98 245.61 167.18C245.407 166.74 245.126 166.34 244.78 166ZM260.5 198.8C260.163 198.452 259.762 198.17 259.32 197.97C259.518 198.413 259.8 198.814 260.15 199.15C260.485 199.501 260.886 199.783 261.33 199.98C261.13 199.538 260.849 199.138 260.5 198.8ZM234.5 152.8C234.165 152.449 233.764 152.167 233.32 151.97C233.736 152.848 234.442 153.555 235.32 153.97C235.119 153.52 234.834 153.113 234.48 152.77L234.5 152.8ZM253.24 182.63C252.903 182.282 252.502 182 252.06 181.8C252.258 182.246 252.539 182.65 252.89 182.99C253.23 183.336 253.63 183.617 254.07 183.82C253.868 183.363 253.579 182.949 253.22 182.6L253.24 182.63ZM252.89 171.29C252.54 171.626 252.258 172.027 252.06 172.47C252.938 172.055 253.645 171.348 254.06 170.47C253.616 170.654 253.212 170.922 252.87 171.26L252.89 171.29ZM221.77 194.94C221.419 195.275 221.137 195.676 220.94 196.12C221.382 195.923 221.782 195.645 222.12 195.3C222.469 194.959 222.75 194.555 222.95 194.11C222.503 194.299 222.096 194.57 221.75 194.91L221.77 194.94ZM260.92 189.31C260.57 189.646 260.288 190.047 260.09 190.49C260.535 190.29 260.939 190.008 261.28 189.66C261.625 189.322 261.904 188.921 262.1 188.48C261.653 188.668 261.246 188.939 260.9 189.28L260.92 189.31ZM233.6 214C233.252 214.338 232.97 214.738 232.77 215.18C233.216 214.986 233.62 214.708 233.96 214.36C234.306 214.016 234.587 213.613 234.79 213.17C234.345 213.37 233.942 213.652 233.6 214ZM231.84 165.51C231.49 165.846 231.208 166.247 231.01 166.69C231.888 166.275 232.595 165.568 233.01 164.69C232.576 164.873 232.18 165.134 231.84 165.46V165.51ZM242.49 198.85C242.145 199.188 241.867 199.589 241.67 200.03C242.114 199.833 242.515 199.551 242.85 199.2C243.201 198.864 243.482 198.463 243.68 198.02C243.239 198.205 242.836 198.469 242.49 198.8V198.85ZM260.49 209.58C260.139 209.915 259.857 210.316 259.66 210.76C260.538 210.345 261.245 209.638 261.66 208.76C261.226 208.943 260.83 209.204 260.49 209.53V209.58ZM217.08 179.32C216.732 179.658 216.45 180.058 216.25 180.5C216.695 180.3 217.099 180.018 217.44 179.67C217.785 179.332 218.064 178.931 218.26 178.49C217.822 178.675 217.422 178.94 217.08 179.27V179.32ZM247.17 154.83C246.822 155.168 246.54 155.568 246.34 156.01C247.218 155.595 247.925 154.888 248.34 154.01C247.906 154.193 247.51 154.454 247.17 154.78V154.83ZM232.29 142.7C231.942 143.039 231.663 143.444 231.47 143.89C231.912 143.69 232.312 143.408 232.65 143.06C232.996 142.72 233.277 142.32 233.48 141.88C233.04 142.061 232.636 142.322 232.29 142.65V142.7Z" fill="white"/>
<path d="M249.9 156.47L250.88 152.15L246.9 147.81L243.82 153.26L245.98 156.98L244.1 201.12L252.37 215.72L256.67 199.29L249.9 156.47Z" fill="#263238"/>
<path d="M236.91 137.28L206.35 200.4C212 178.73 222.17 146.73 231.89 138.91C233.409 137.973 235.131 137.415 236.91 137.28Z" fill="#263238"/>
<path d="M231.27 152C227.02 159.62 201.83 188 201.19 190.81C200.55 193.62 206.09 201.06 206.13 202.18C206.27 206.74 201.2 236.91 196.92 234.33C191.29 230.92 167.1 205.54 168.68 192.68C170.26 179.82 219.14 145.39 226.9 141.81C234.66 138.23 235.47 144.44 231.27 152Z" fill="#F7A9A0"/>
<path d="M214.58 239.41C216.94 236.7 212.39 235.47 212.39 235.47C212.39 235.47 219.39 235.66 220.72 231.92C222.05 228.18 216.46 227.02 216.06 226.92C216.43 226.92 222.85 226.92 223.82 223.04C224.79 219.16 219.03 218.65 218.66 218.63C219.01 218.53 223.66 217.09 223.66 213.96C223.77 208.58 210.22 211.57 206.51 209.29C206.51 209.29 206.06 202.35 206.11 202.14C205.633 203.848 204.593 205.346 203.16 206.39C200.48 207.98 198 209.15 197.16 210.85C196.772 211.604 196.638 212.463 196.779 213.3C196.919 214.136 197.327 214.904 197.94 215.49C197.94 215.49 194.16 216.04 193.3 219.09C192.86 220.65 194.97 222.74 194.97 222.74C194.97 222.74 191.97 223.31 191.37 226.06C190.89 228.26 193.08 230.06 193.08 230.06C193.08 230.06 190.45 231.94 190.69 234.35C191.2 239.16 209.52 245.22 214.58 239.41Z" fill="#F7A9A0"/>
<path d="M193.44 230.35C193.434 230.347 193.427 230.345 193.421 230.344C193.414 230.343 193.407 230.344 193.401 230.345C193.394 230.347 193.388 230.35 193.383 230.355C193.377 230.359 193.373 230.364 193.37 230.37C193.366 230.376 193.364 230.382 193.364 230.389C193.363 230.396 193.363 230.403 193.365 230.409C193.367 230.416 193.37 230.422 193.374 230.427C193.379 230.432 193.384 230.437 193.39 230.44C199.135 234.059 205.845 235.845 212.63 235.56C212.84 235.56 212.91 235.19 212.63 235.16C206.034 234.496 199.569 232.875 193.44 230.35Z" fill="#263238"/>
<path d="M194.92 222.75C194.85 222.75 194.8 222.83 194.92 222.88C200.65 226.41 208.76 228.56 216.26 227.16C216.51 227.16 216.7 226.81 216.4 226.84C211.29 227.4 200.65 225.21 194.92 222.75Z" fill="#263238"/>
<path d="M219.15 218.35C211.91 219.42 205.05 218.06 198.21 215.65C198.12 215.65 198.09 215.75 198.16 215.8C201.16 217.89 205.7 218.97 209.29 219.51C212.609 220.078 216.02 219.764 219.18 218.6C219.31 218.56 219.3 218.33 219.15 218.35Z" fill="#263238"/>
<path d="M184.92 226.7L204.92 197.99C204.92 197.99 201.61 192.39 201.92 190.57C202.23 188.75 227.77 160.79 232.4 151.16C237.03 141.53 238.11 135.63 227.24 140.73C216.37 145.83 170.87 180.92 168.24 190.18C165.61 199.44 176.44 214.12 184.92 226.7Z" fill="#5159FA"/>
<path d="M214.62 165.34C214.287 164.419 214.287 163.411 214.62 162.49C214.953 163.411 214.953 164.419 214.62 165.34ZM226.8 150.34C226.806 149.855 226.721 149.374 226.55 148.92C226.217 149.837 226.217 150.843 226.55 151.76C226.725 151.293 226.81 150.798 226.8 150.3V150.34ZM198.53 174.49C198.539 174.005 198.454 173.523 198.28 173.07C197.947 173.991 197.947 174.999 198.28 175.92C198.46 175.451 198.545 174.952 198.53 174.45V174.49ZM178.71 184.24C178.72 183.755 178.635 183.273 178.46 182.82C178.127 183.737 178.127 184.743 178.46 185.66C178.641 185.195 178.726 184.699 178.71 184.2V184.24ZM195.34 191.29C195.345 190.805 195.26 190.324 195.09 189.87C194.757 190.787 194.757 191.793 195.09 192.71C195.265 192.243 195.35 191.748 195.34 191.25V191.29ZM179.21 201.11C179.22 200.622 179.135 200.136 178.96 199.68C178.627 200.601 178.627 201.609 178.96 202.53C179.139 202.065 179.224 201.568 179.21 201.07V201.11ZM195.34 205.97C195.345 205.485 195.26 205.004 195.09 204.55C194.757 205.467 194.757 206.473 195.09 207.39C195.265 206.923 195.35 206.428 195.34 205.93V205.97ZM222.87 144.97C223.355 144.979 223.837 144.894 224.29 144.72C223.836 144.551 223.355 144.467 222.87 144.47C222.385 144.464 221.904 144.549 221.45 144.72C221.9 144.906 222.383 145.001 222.87 145V144.97ZM224.64 160.5C225.125 160.51 225.607 160.425 226.06 160.25C225.607 160.075 225.125 159.99 224.64 160C224.155 159.995 223.674 160.08 223.22 160.25C223.674 160.418 224.156 160.496 224.64 160.48V160.5ZM206.35 159.27C206.835 159.28 207.317 159.195 207.77 159.02C207.317 158.845 206.835 158.76 206.35 158.77C205.865 158.764 205.384 158.849 204.93 159.02C205.384 159.189 205.866 159.267 206.35 159.25V159.27ZM213.07 172C213.558 172.005 214.043 171.92 214.5 171.75C213.579 171.417 212.571 171.417 211.65 171.75C212.104 171.919 212.586 172.003 213.07 172ZM191.46 170.91C191.945 170.915 192.426 170.83 192.88 170.66C191.963 170.327 190.957 170.327 190.04 170.66C190.492 170.838 190.974 170.929 191.46 170.93V170.91ZM187.88 187.53C188.365 187.54 188.847 187.455 189.3 187.28C188.383 186.947 187.377 186.947 186.46 187.28C186.911 187.462 187.394 187.554 187.88 187.55V187.53ZM183 219.53C183.486 219.546 183.969 219.46 184.42 219.28C183.503 218.947 182.497 218.947 181.58 219.28C182.031 219.465 182.513 219.56 183 219.56V219.53ZM186.46 204.15C186.945 204.153 187.426 204.069 187.88 203.9C187.427 203.726 186.945 203.641 186.46 203.65C185.975 203.639 185.492 203.724 185.04 203.9C185.492 204.081 185.973 204.176 186.46 204.18V204.15ZM171.54 198.44C172.028 198.45 172.514 198.365 172.97 198.19C172.049 197.857 171.041 197.857 170.12 198.19C170.571 198.374 171.053 198.469 171.54 198.47V198.44ZM198.21 164.23C197.872 163.882 197.472 163.6 197.03 163.4C197.226 163.847 197.508 164.251 197.86 164.59C198.198 164.935 198.599 165.213 199.04 165.41C198.837 164.979 198.555 164.589 198.21 164.26V164.23ZM191.64 179.86C191.299 179.511 190.895 179.23 190.45 179.03C190.866 179.908 191.572 180.615 192.45 181.03C192.252 180.604 191.978 180.217 191.64 179.89V179.86ZM177.38 209.91C177.044 209.563 176.643 209.284 176.2 209.09C176.616 209.968 177.322 210.675 178.2 211.09C178.002 210.658 177.724 210.268 177.38 209.94V209.91ZM191.9 212.34C191.564 211.99 191.163 211.708 190.72 211.51C190.918 211.953 191.2 212.354 191.55 212.69C191.885 213.041 192.286 213.323 192.73 213.52C192.527 213.089 192.245 212.699 191.9 212.37V212.34ZM172.73 190.79C172.391 190.439 171.987 190.157 171.54 189.96C171.738 190.403 172.02 190.804 172.37 191.14C172.707 191.489 173.108 191.771 173.55 191.97C173.35 191.539 173.072 191.149 172.73 190.82V190.79ZM189.48 195.61C189.142 195.265 188.742 194.987 188.3 194.79C188.493 195.233 188.772 195.635 189.12 195.97C189.462 196.318 189.865 196.6 190.31 196.8C190.104 196.368 189.823 195.975 189.48 195.64V195.61ZM212.37 153.74C212.029 153.391 211.625 153.11 211.18 152.91C211.38 153.355 211.662 153.759 212.01 154.1C212.348 154.445 212.749 154.723 213.19 154.92C212.99 154.489 212.712 154.099 212.37 153.77V153.74ZM207.37 178.85C207.034 178.5 206.633 178.218 206.19 178.02C206.39 178.465 206.672 178.869 207.02 179.21C207.358 179.555 207.759 179.833 208.2 180.03C207.997 179.596 207.712 179.205 207.36 178.88L207.37 178.85ZM219.46 154.75C219.109 155.085 218.827 155.486 218.63 155.93C219.508 155.515 220.215 154.808 220.63 153.93C220.185 154.134 219.784 154.422 219.45 154.78L219.46 154.75ZM205.76 167.69C205.409 168.025 205.127 168.426 204.93 168.87C205.372 168.673 205.772 168.395 206.11 168.05C206.459 167.709 206.74 167.305 206.94 166.86C206.492 167.068 206.088 167.36 205.75 167.72L205.76 167.69ZM182.83 177.58C182.485 177.918 182.207 178.319 182.01 178.76C182.452 178.563 182.852 178.285 183.19 177.94C183.539 177.599 183.82 177.195 184.02 176.75C183.569 176.958 183.162 177.25 182.82 177.61L182.83 177.58ZM180.65 193.09C180.299 193.429 180.018 193.834 179.82 194.28C180.705 193.875 181.415 193.165 181.82 192.28C181.381 192.489 180.982 192.773 180.64 193.12L180.65 193.09ZM197.87 198.77C197.499 199.116 197.203 199.535 197 200C197.444 199.803 197.845 199.521 198.18 199.17C198.526 198.836 198.804 198.439 199 198C198.575 198.195 198.188 198.466 197.86 198.8L197.87 198.77ZM184.26 211.34C183.906 211.673 183.624 212.075 183.43 212.52C184.308 212.105 185.015 211.398 185.43 210.52C184.986 210.726 184.586 211.014 184.25 211.37L184.26 211.34ZM199.75 184.34C199.402 184.678 199.12 185.078 198.92 185.52C199.798 185.105 200.505 184.398 200.92 183.52C200.48 183.714 200.08 183.989 199.74 184.33L199.75 184.34ZM232.3 142.66C231.952 142.999 231.673 143.404 231.48 143.85C231.922 143.65 232.322 143.368 232.66 143.02C233.006 142.68 233.287 142.28 233.49 141.84C233.043 142.032 232.636 142.307 232.29 142.65L232.3 142.66Z" fill="white"/>
<path d="M183.15 219.59C184 218.71 184.68 217.66 185.44 216.71C186.2 215.76 186.93 214.71 187.65 213.71C189.03 211.79 190.39 209.85 191.74 207.91C193.09 205.97 194.44 204.02 195.74 202.07C197.04 200.12 198.64 198.07 199.86 195.96C199.871 195.951 199.88 195.94 199.887 195.928C199.893 195.915 199.896 195.901 199.896 195.887C199.895 195.873 199.892 195.859 199.885 195.847C199.879 195.834 199.869 195.823 199.858 195.815C199.846 195.807 199.833 195.802 199.819 195.8C199.805 195.797 199.791 195.799 199.778 195.803C199.764 195.807 199.752 195.815 199.742 195.825C199.732 195.835 199.725 195.847 199.72 195.86C198.13 197.71 196.72 199.79 195.32 201.76C193.92 203.73 192.47 205.65 191.06 207.6C189.65 209.55 188.24 211.52 186.86 213.49C186.18 214.49 185.52 215.49 184.86 216.49C184.2 217.49 183.49 218.49 182.95 219.49C183 219.61 183.09 219.65 183.15 219.59Z" fill="#263238"/>
<path d="M247.77 146.37C244.23 147.64 237.36 142.79 234.38 138.57C234.18 138.28 234.29 134.97 234.22 130.94C234.17 128.5 234.06 125.78 233.78 123.31C233.72 122.8 235.56 123.53 235.56 123.53L238.85 123.94L249.73 125.31C249.194 128.504 249.053 131.752 249.31 134.98C249.35 135.32 249.423 135.655 249.53 135.98C249.53 135.98 249.53 136.08 249.53 136.14C250.1 138.05 251.19 145.14 247.77 146.37Z" fill="#F7A9A0"/>
<path d="M249.53 136C249.53 136 249.53 136.1 249.53 136.16C249.009 136.298 248.477 136.388 247.94 136.43C237.47 137.43 234.66 124.24 234.66 124.24L238.81 123.95L249.69 125.32C249.154 128.514 249.013 131.762 249.27 134.99C249.322 135.335 249.41 135.673 249.53 136Z" fill="#263238"/>
<path d="M230.2 104.22C228.74 109.82 232.34 125.68 236.43 129.07C242.35 134 251.71 134.07 255.81 127.07C259.81 120.24 254.73 99.66 250.19 96.61C243.52 92.09 232.34 95.94 230.2 104.22Z" fill="#F7A9A0"/>
<path d="M243.81 113.7C243.81 113.7 243.73 113.77 243.75 113.81C244.02 114.87 244.15 116.13 243.26 116.7C243.26 116.7 243.26 116.77 243.26 116.76C244.43 116.33 244.23 114.66 243.81 113.7Z" fill="#263238"/>
<path d="M242.6 112.79C240.86 113.04 241.49 116.52 243.11 116.29C244.73 116.06 244.07 112.58 242.6 112.79Z" fill="#263238"/>
<path d="M250.32 112.32C250.32 112.32 250.41 112.32 250.42 112.4C250.58 113.48 250.95 114.7 251.98 114.88V114.94C250.77 115 250.3 113.37 250.32 112.32Z" fill="#263238"/>
<path d="M251.08 111C252.78 110.55 253.55 114 251.97 114.42C250.39 114.84 249.64 111.39 251.08 111Z" fill="#263238"/>
<path d="M240.94 111.45C241.374 111.235 241.795 110.995 242.2 110.73C242.68 110.45 243.1 110.28 243.35 109.73C243.407 109.576 243.41 109.407 243.359 109.251C243.308 109.095 243.206 108.961 243.07 108.87C242.774 108.725 242.445 108.661 242.116 108.685C241.787 108.71 241.471 108.822 241.2 109.01C240.59 109.307 240.112 109.82 239.86 110.45C239.807 110.598 239.799 110.758 239.836 110.91C239.873 111.062 239.954 111.2 240.069 111.307C240.185 111.413 240.328 111.484 240.483 111.509C240.638 111.535 240.797 111.514 240.94 111.45Z" fill="#263238"/>
<path d="M252.1 109C251.618 108.992 251.138 108.958 250.66 108.9C250.142 108.933 249.628 108.792 249.2 108.5C249.083 108.385 249.007 108.234 248.985 108.071C248.964 107.908 248.997 107.742 249.08 107.6C249.285 107.343 249.556 107.145 249.864 107.027C250.171 106.909 250.505 106.876 250.83 106.93C251.508 106.936 252.159 107.193 252.66 107.65C252.766 107.762 252.838 107.903 252.866 108.055C252.894 108.207 252.877 108.364 252.818 108.507C252.759 108.65 252.659 108.772 252.532 108.86C252.404 108.947 252.254 108.996 252.1 109Z" fill="#263238"/>
<path d="M244.91 123.68C245.22 123.89 245.54 124.19 245.91 124.15C246.307 124.072 246.682 123.908 247.01 123.67C247.01 123.67 247.09 123.67 247.07 123.67C246.955 123.91 246.777 124.114 246.555 124.26C246.333 124.407 246.075 124.49 245.81 124.5C245.583 124.478 245.368 124.391 245.191 124.249C245.013 124.107 244.881 123.916 244.81 123.7C244.79 123.69 244.87 123.65 244.91 123.68Z" fill="#263238"/>
<path d="M245.46 120.25C245.81 120.629 246.235 120.931 246.709 121.136C247.183 121.341 247.694 121.444 248.21 121.44C248.659 121.444 249.107 121.384 249.54 121.26L249.79 121.19L250.01 121.11C250.067 121.09 250.115 121.052 250.148 121.001C250.181 120.95 250.195 120.89 250.19 120.83V120.72V120.63C250.07 119.79 249.76 118.55 249.76 118.55C250.09 118.64 251.76 119.06 251.66 118.63C250.881 114.907 249.729 111.272 248.22 107.78C248.21 107.757 248.192 107.738 248.17 107.728C248.147 107.717 248.121 107.715 248.097 107.723C248.073 107.73 248.053 107.747 248.041 107.768C248.028 107.79 248.024 107.816 248.03 107.84C248.72 111.29 250.03 114.59 250.78 118.04C250.183 117.882 249.567 117.811 248.95 117.83C248.84 117.83 249.59 120.23 249.62 120.61C248.954 120.8 248.257 120.855 247.57 120.771C246.883 120.687 246.22 120.465 245.62 120.12C245.45 120.09 245.38 120.18 245.46 120.25Z" fill="#263238"/>
<path d="M249 121.07C248.625 121.728 248.083 122.277 247.43 122.66C247.069 122.867 246.652 122.951 246.24 122.9C245.35 122.79 245.24 122 245.24 121.3C245.283 120.925 245.367 120.556 245.49 120.2C246.535 120.863 247.766 121.168 249 121.07Z" fill="#263238"/>
<path d="M247.4 122.66C247.04 122.867 246.622 122.951 246.21 122.9C245.32 122.79 245.21 122 245.21 121.3C245.675 121.244 246.146 121.348 246.544 121.595C246.942 121.842 247.244 122.218 247.4 122.66Z" fill="#FF9ABB"/>
<path d="M231.66 116.29C235.33 115.57 234.77 108.78 234.77 108.78C234.77 108.78 240.87 106.55 240.88 101.63C240.88 101.63 247.58 104.31 251.96 101.71C256.34 99.11 254.56 93.39 253.81 92.36C252.1 90 248.81 94.08 248.81 94.08C248.81 94.08 242.2 91.62 235.61 93.57C230.24 95.16 228.48 100.83 228.48 100.83C228.48 100.83 225.66 102.02 225.1 104.26C224.54 106.5 229.33 116.74 231.66 116.29Z" fill="#263238"/>
<path d="M233.3 109.11C238.3 108.83 240.9 104.97 240.72 100.17H240.81C241.5 104.55 238.37 110.17 233.29 109.35C233.258 109.349 233.228 109.335 233.207 109.311C233.185 109.288 233.174 109.257 233.175 109.225C233.176 109.193 233.19 109.163 233.214 109.142C233.237 109.12 233.268 109.109 233.3 109.11Z" fill="#263238"/>
<path d="M228.62 100.72C228.62 100.72 228.71 100.78 228.62 100.81C227.37 101.7 225.9 102.47 225.18 103.9C224.31 105.62 224.94 107.54 225.69 109.17C226.87 111.68 228.88 114.85 231.54 115.95C231.7 116.02 231.54 116.24 231.44 116.19C228.29 115.06 225.79 110.92 224.8 107.88C223.75 104.48 225.54 102.09 228.62 100.72Z" fill="#263238"/>
<path d="M246.46 101.88C247.715 102.373 249.087 102.483 250.404 102.197C251.721 101.91 252.924 101.24 253.86 100.27C256.06 97.81 254.92 94.7 253.32 92.27C253.24 92.15 253.39 91.97 253.5 92.08C255.45 94.14 256.23 97.7 254.5 100.15C252.77 102.6 248.96 103.35 246.31 102.27C246.1 102.15 246.24 101.79 246.46 101.88Z" fill="#263238"/>
<path d="M234.17 117.1C234.17 117.1 230.23 112.16 227.97 113.59C225.71 115.02 228.89 122.34 231.71 123.19C232.063 123.324 232.44 123.385 232.818 123.369C233.195 123.353 233.565 123.261 233.906 123.099C234.247 122.936 234.552 122.706 234.802 122.423C235.052 122.14 235.241 121.809 235.36 121.45L234.17 117.1Z" fill="#F7A9A0"/>
<path d="M228.93 115.67C228.93 115.67 228.93 115.73 228.93 115.74C230.93 116.4 232.04 118.13 232.87 119.94C232.746 119.754 232.583 119.596 232.392 119.479C232.201 119.362 231.987 119.287 231.765 119.261C231.542 119.234 231.317 119.256 231.104 119.325C230.891 119.394 230.695 119.508 230.53 119.66C230.48 119.66 230.53 119.77 230.59 119.76C230.922 119.63 231.286 119.607 231.632 119.693C231.977 119.779 232.288 119.97 232.52 120.24C232.909 120.69 233.244 121.183 233.52 121.71C233.62 121.88 233.93 121.77 233.85 121.58C233.72 119.07 231.59 115.75 228.93 115.67Z" fill="#263238"/>
<path d="M249.7 136.57L246.32 146.17L234.09 134.74L230.93 138.74C230.93 138.74 243.21 157.2 243.25 156.34L246.78 148.05L252.64 153.46L251.57 139.29L249.7 136.57Z" fill="#5159FA"/>
<path d="M252.51 146.4C252.25 144.06 252.06 141.7 251.7 139.4C251.7 139.32 251.55 139.29 251.54 139.4C251.17 141.68 252.19 150.6 252.27 152.75C252.03 152.52 246.86 148 246.81 148.08C246.03 149.41 243.43 155.45 243.26 155.99C241.31 153.06 233.9 142.41 231.63 139.66C231.618 139.642 231.599 139.628 231.577 139.624C231.556 139.619 231.533 139.623 231.515 139.635C231.496 139.647 231.483 139.666 231.478 139.687C231.474 139.709 231.478 139.731 231.49 139.75C233.23 142.86 243.06 157.2 243.19 157.16C244.575 154.303 245.81 151.376 246.89 148.39C247.77 149.39 253.02 154.51 253.02 154.16C252.982 151.566 252.812 148.976 252.51 146.4Z" fill="#263238"/>
<path d="M319.4 67.7699C319.407 71.5343 318.367 75.2264 316.394 78.4325C314.421 81.6386 311.595 84.232 308.231 85.9221C304.867 87.6123 301.099 88.3323 297.35 88.0017C293.6 87.671 290.016 86.3026 287 84.0499L277.06 86.5899L281.2 77.3399C279.745 74.6216 278.929 71.6074 278.814 68.5264C278.699 65.4454 279.288 62.3787 280.536 59.5595C281.785 56.7403 283.659 54.2429 286.018 52.257C288.376 50.2711 291.156 48.8491 294.147 48.0991C297.137 47.3492 300.26 47.2909 303.276 47.9288C306.293 48.5667 309.124 49.884 311.555 51.7806C313.986 53.6771 315.952 56.1029 317.305 58.8735C318.657 61.6442 319.36 64.6868 319.36 67.7699H319.4Z" fill="white"/>
<path d="M319.4 67.77C319.401 71.5286 318.363 75.2143 316.4 78.42C315.911 79.2186 315.373 79.9867 314.79 80.72C314.187 81.4271 313.539 82.0951 312.85 82.72C310.09 85.299 306.671 87.0641 302.97 87.82C302.047 88.0059 301.111 88.1229 300.17 88.17C299.228 88.2449 298.282 88.2449 297.34 88.17C293.538 87.8863 289.891 86.5459 286.81 84.3L287.11 84.36L277.21 87L276.33 87.24L276.7 86.4L280.8 77.13V77.56C279.315 74.8125 278.476 71.7624 278.348 68.6418C278.219 65.5213 278.804 62.4125 280.058 59.5522C281.313 56.6919 283.203 54.1555 285.585 52.1361C287.968 50.1166 290.78 48.6673 293.807 47.8986C296.834 47.1298 299.997 47.0619 303.054 47.6999C306.111 48.3379 308.983 49.6651 311.45 51.5803C313.917 53.4956 315.914 55.9485 317.29 58.7522C318.666 61.556 319.384 64.6368 319.39 67.76L319.4 67.77ZM319.4 67.77C319.41 64.7002 318.712 61.6694 317.362 58.9124C316.012 56.1554 314.046 53.7462 311.615 51.8714C309.184 49.9966 306.354 48.7065 303.345 48.101C300.335 47.4956 297.227 47.591 294.26 48.38C291.311 49.1425 288.574 50.5688 286.26 52.55C284.011 54.5412 282.217 56.9934 281 59.74C279.793 62.5009 279.226 65.4989 279.34 68.51C279.473 71.5135 280.268 74.4504 281.67 77.11L281.78 77.32L281.69 77.53L277.51 86.77L277 86.16L287 83.71H287.17L287.3 83.82C290.245 86.0664 293.755 87.4512 297.44 87.82C298.361 87.9116 299.287 87.9283 300.21 87.87C301.132 87.8382 302.051 87.7413 302.96 87.58C304.785 87.251 306.556 86.6687 308.22 85.85C309.895 85.0416 311.442 83.9903 312.81 82.73C313.498 82.1009 314.149 81.4331 314.76 80.73C315.346 80.0037 315.887 79.2422 316.38 78.45C318.354 75.2375 319.4 71.5406 319.4 67.77Z" fill="#263238"/>
<path d="M299.85 66.82V59.33C301.358 59.5814 302.782 60.1957 304 61.12C304.254 61.3342 304.578 61.4481 304.91 61.44C305.257 61.4508 305.594 61.3247 305.849 61.0889C306.103 60.8531 306.255 60.5266 306.27 60.18C306.261 59.9512 306.192 59.7288 306.071 59.5344C305.95 59.3399 305.781 59.1799 305.58 59.07C303.909 57.8777 301.961 57.134 299.92 56.91V56.16C299.892 55.8362 299.743 55.5348 299.503 55.3152C299.264 55.0957 298.95 54.9739 298.625 54.9739C298.3 54.9739 297.987 55.0957 297.747 55.3152C297.508 55.5348 297.359 55.8362 297.33 56.16V56.83C293.28 57.1 290.4 59.55 290.4 62.83C290.4 66.11 292.5 67.83 297.4 68.92V76.57C295.313 76.2923 293.356 75.3974 291.78 74C291.523 73.7755 291.192 73.6544 290.85 73.66C290.511 73.6621 290.185 73.7937 289.94 74.0279C289.695 74.2621 289.548 74.5812 289.53 74.92C289.535 75.1185 289.588 75.313 289.683 75.487C289.779 75.661 289.915 75.8095 290.08 75.92C292.143 77.616 294.663 78.6602 297.32 78.92V80.85C297.349 81.1738 297.498 81.4752 297.737 81.6947C297.977 81.9143 298.29 82.0361 298.615 82.0361C298.94 82.0361 299.254 81.9143 299.493 81.6947C299.733 81.4752 299.882 81.1738 299.91 80.85V79C304.1 78.71 306.98 76.26 306.98 72.93C307 69.72 304.78 67.84 299.85 66.82ZM297.39 66.3C293.78 65.41 293.07 64.3 293.07 62.66C293.07 60.81 294.86 59.41 297.39 59.2V66.3ZM304.3 73C304.3 75 302.49 76.38 299.85 76.59V69.39C303.55 70.24 304.3 71.37 304.3 73Z" fill="#5159FA"/>
</g>
<defs>
<clipPath id="clip0_86_78">
<rect width="500" height="500" fill="white"/>
</clipPath>
</defs>
</svg>
