<svg width="26" height="32" viewBox="0 0 26 32" fill="none" xmlns="http://www.w3.org/2000/svg">
<path d="M12.8696 32C14.6391 32 16.087 30.5231 16.087 28.7179H9.65217C9.65217 29.5884 9.99115 30.4232 10.5945 31.0387C11.1979 31.6542 12.0163 32 12.8696 32ZM22.5217 22.1538V13.9487C22.5217 8.91077 19.8835 4.69333 15.2826 3.57744V2.46154C15.2826 1.09949 14.2048 0 12.8696 0C11.5343 0 10.4565 1.09949 10.4565 2.46154V3.57744C5.83957 4.69333 3.21739 8.89436 3.21739 13.9487V22.1538L0 25.4359V27.0769H25.7391V25.4359L22.5217 22.1538Z" fill="#5159FA"/>
</svg>
