<svg width="320" height="385" viewBox="0 0 320 385" fill="none" xmlns="http://www.w3.org/2000/svg">
<path fill-rule="evenodd" clip-rule="evenodd" d="M7.2068 247.696C45.7712 213.466 67.499 140.442 114.953 131.313C168.032 121.102 207.534 185.372 252.659 170.321C299.385 154.735 290.899 74.4581 340.923 49.0681C391.747 23.2731 446.214 80.2641 512.374 73.0331C585.215 65.0731 624.403 -10.3139 686.723 2.2161C731.633 11.2461 767.974 59.7891 773.58 106.307C779.102 152.117 753.784 198.109 707.91 240.037C632.487 308.974 506.864 299.39 478.446 364.84C454.366 420.298 521.816 477.362 492.913 530.124C472.683 567.055 413.468 587.031 372.37 571.812C328.543 555.582 322.756 502.456 280.944 471.915C259.964 456.59 215.52 432.692 165.306 441.091C110.763 450.213 92.826 499.114 45.4395 500.128C-27.1375 501.682 -110.165 391.328 -88.735 324.132C-77.0049 287.352 -17.8009 269.894 7.2068 247.696Z" fill="url(#paint0_linear_43_49)"/>
<defs>
<linearGradient id="paint0_linear_43_49" x1="17.5" y1="77" x2="356.5" y2="416" gradientUnits="userSpaceOnUse">
<stop stop-color="#135288"/>
<stop offset="1" stop-color="#1180E0"/>
</linearGradient>
</defs>
</svg>
