<svg width="20" height="24" viewBox="0 0 20 24" fill="none" xmlns="http://www.w3.org/2000/svg">
<path d="M1.8083 3.15177L1.80469 5.69886V18.3011C1.80469 19.3353 2.21665 20.3271 2.94995 21.0583C3.68324 21.7896 4.67781 22.2004 5.71484 22.2004H16.081C15.8942 22.7267 15.5484 23.1824 15.0912 23.5047C14.634 23.8269 14.0878 24 13.5279 24H5.71484C4.19917 24 2.74558 23.3996 1.67384 22.3308C0.602098 21.2621 0 19.8126 0 18.3011V5.69886C0 4.5231 0.754359 3.5213 1.8083 3.15177ZM16.543 0C16.8985 0 17.2505 0.0698236 17.5789 0.205484C17.9073 0.341145 18.2058 0.539985 18.4571 0.790654C18.7085 1.04132 18.9079 1.33891 19.0439 1.66642C19.18 1.99394 19.25 2.34496 19.25 2.69946V18.2963C19.25 18.6508 19.18 19.0019 19.0439 19.3294C18.9079 19.6569 18.7085 19.9545 18.4571 20.2051C18.2058 20.4558 17.9073 20.6547 17.5789 20.7903C17.2505 20.926 16.8985 20.9958 16.543 20.9958H5.71484C4.99689 20.9958 4.30835 20.7114 3.80068 20.2051C3.29302 19.6989 3.00781 19.0123 3.00781 18.2963V2.69946C3.00781 1.98352 3.29302 1.2969 3.80068 0.790654C4.30835 0.284407 4.99689 0 5.71484 0H16.543Z" fill="white"/>
</svg>
