<svg width="16" height="16" viewBox="0 0 16 16" fill="none" xmlns="http://www.w3.org/2000/svg">
<path fill-rule="evenodd" clip-rule="evenodd" d="M7.99967 3.00004L7.20709 2.00931C6.86531 1.58208 6.34784 1.33337 5.80072 1.33337H5.66634C4.74587 1.33337 3.99967 2.07957 3.99967 3.00004C3.99967 3.23708 4.04916 3.46255 4.13836 3.66671H2.66634C1.92996 3.66671 1.33301 4.26366 1.33301 5.00004V7.00004C1.33301 7.49356 1.60114 7.92446 1.99967 8.155V12.6667C1.99967 13.7713 2.89511 14.6667 3.99967 14.6667H11.9997C13.1042 14.6667 13.9997 13.7713 13.9997 12.6667V8.155C14.3982 7.92446 14.6663 7.49356 14.6663 7.00004V5.00004C14.6663 4.26366 14.0694 3.66671 13.333 3.66671H11.861C11.9502 3.46255 11.9997 3.23708 11.9997 3.00004C11.9997 2.07957 11.2535 1.33337 10.333 1.33337H10.1986C9.65151 1.33337 9.13404 1.58208 8.79226 2.00931L7.99967 3.00004ZM8.74697 3.66671H10.333C10.7012 3.66671 10.9997 3.36823 10.9997 3.00004C10.9997 2.63185 10.7012 2.33337 10.333 2.33337H10.1986C9.95529 2.33337 9.72514 2.44399 9.57312 2.63401L8.74697 3.66671ZM2.66634 4.66671C2.48225 4.66671 2.33301 4.81595 2.33301 5.00004V7.00004C2.33301 7.18414 2.48225 7.33337 2.66634 7.33337H7.49967V4.66671H2.66634ZM8.49967 4.66671V7.33337H13.333C13.5171 7.33337 13.6663 7.18414 13.6663 7.00004V5.00004C13.6663 4.81595 13.5171 4.66671 13.333 4.66671H8.49967ZM4.99967 3.00004C4.99967 3.36823 5.29815 3.66671 5.66634 3.66671H7.25238L6.42622 2.63401C6.27421 2.44399 6.04406 2.33337 5.80072 2.33337H5.66634C5.29815 2.33337 4.99967 2.63185 4.99967 3.00004ZM7.49967 8.33337H2.99967V12.6667C2.99967 13.219 3.44739 13.6667 3.99967 13.6667H7.49967V8.33337ZM8.49967 13.6667V8.33337H12.9997V12.6667C12.9997 13.219 12.552 13.6667 11.9997 13.6667H8.49967Z" fill="#52C7AB"/>
</svg>
