<svg width="1005" height="489" viewBox="0 0 1005 489" fill="none" xmlns="http://www.w3.org/2000/svg">
<path d="M4.228 16.6667C3.68667 16.6667 3.18267 16.5733 2.716 16.3867C2.25867 16.2 1.85733 15.934 1.512 15.5887C1.16667 15.2433 0.905333 14.8327 0.728 14.3567L1.582 13.9367C1.79667 14.478 2.14667 14.9073 2.632 15.2247C3.12667 15.5327 3.65867 15.6867 4.228 15.6867C4.68533 15.6867 5.09133 15.5793 5.446 15.3647C5.81 15.15 6.09467 14.8607 6.3 14.4967C6.50533 14.1233 6.608 13.708 6.608 13.2507C6.608 12.7747 6.50067 12.3547 6.286 11.9907C6.08067 11.6267 5.80067 11.342 5.446 11.1367C5.09133 10.922 4.69 10.8147 4.242 10.8147C3.78467 10.8147 3.36 10.922 2.968 11.1367C2.58533 11.342 2.30533 11.594 2.128 11.8927L1.246 11.7247L2.03 6.06866H7.308V7.04866H2.436L2.87 6.67066L2.24 11.1227L1.806 10.9267C2.13267 10.5253 2.51533 10.2407 2.954 10.0727C3.39267 9.89532 3.84067 9.80666 4.298 9.80666C4.97 9.80666 5.56267 9.96532 6.076 10.2827C6.58933 10.5907 6.99067 11.006 7.28 11.5287C7.57867 12.042 7.728 12.616 7.728 13.2507C7.728 13.8947 7.574 14.478 7.266 15.0007C6.96733 15.514 6.552 15.92 6.02 16.2187C5.49733 16.5173 4.9 16.6667 4.228 16.6667ZM13.765 16.6667C12.9436 16.6667 12.2203 16.4427 11.595 15.9947C10.979 15.5373 10.4983 14.9073 10.153 14.1047C9.80762 13.2927 9.63495 12.35 9.63495 11.2767C9.63495 10.2033 9.80762 9.26532 10.153 8.46266C10.4983 7.65066 10.979 7.02066 11.595 6.57266C12.211 6.12466 12.9296 5.90066 13.751 5.90066C14.5723 5.90066 15.291 6.12466 15.907 6.57266C16.523 7.02066 17.0036 7.65066 17.349 8.46266C17.6943 9.26532 17.867 10.2033 17.867 11.2767C17.867 12.35 17.6943 13.2927 17.349 14.1047C17.013 14.9167 16.537 15.5467 15.921 15.9947C15.305 16.4427 14.5863 16.6667 13.765 16.6667ZM13.765 15.6167C14.3623 15.6167 14.885 15.4347 15.333 15.0707C15.781 14.7067 16.131 14.2027 16.383 13.5587C16.635 12.9053 16.761 12.1447 16.761 11.2767C16.761 10.4087 16.635 9.65266 16.383 9.00866C16.131 8.35532 15.781 7.85132 15.333 7.49666C14.885 7.13266 14.3576 6.95066 13.751 6.95066C13.1536 6.95066 12.631 7.13266 12.183 7.49666C11.735 7.85132 11.385 8.35532 11.133 9.00866C10.881 9.65266 10.755 10.4087 10.755 11.2767C10.755 12.1353 10.881 12.8913 11.133 13.5447C11.385 14.198 11.735 14.7067 12.183 15.0707C12.6403 15.4347 13.1676 15.6167 13.765 15.6167ZM24.0189 16.6667C23.1975 16.6667 22.4742 16.4427 21.8489 15.9947C21.2329 15.5373 20.7522 14.9073 20.4069 14.1047C20.0615 13.2927 19.8889 12.35 19.8889 11.2767C19.8889 10.2033 20.0615 9.26532 20.4069 8.46266C20.7522 7.65066 21.2329 7.02066 21.8489 6.57266C22.4649 6.12466 23.1835 5.90066 24.0049 5.90066C24.8262 5.90066 25.5449 6.12466 26.1609 6.57266C26.7769 7.02066 27.2575 7.65066 27.6029 8.46266C27.9482 9.26532 28.1209 10.2033 28.1209 11.2767C28.1209 12.35 27.9482 13.2927 27.6029 14.1047C27.2669 14.9167 26.7909 15.5467 26.1749 15.9947C25.5589 16.4427 24.8402 16.6667 24.0189 16.6667ZM24.0189 15.6167C24.6162 15.6167 25.1389 15.4347 25.5869 15.0707C26.0349 14.7067 26.3849 14.2027 26.6369 13.5587C26.8889 12.9053 27.0149 12.1447 27.0149 11.2767C27.0149 10.4087 26.8889 9.65266 26.6369 9.00866C26.3849 8.35532 26.0349 7.85132 25.5869 7.49666C25.1389 7.13266 24.6115 6.95066 24.0049 6.95066C23.4075 6.95066 22.8849 7.13266 22.4369 7.49666C21.9889 7.85132 21.6389 8.35532 21.3869 9.00866C21.1349 9.65266 21.0089 10.4087 21.0089 11.2767C21.0089 12.1353 21.1349 12.8913 21.3869 13.5447C21.6389 14.198 21.9889 14.7067 22.4369 15.0707C22.8942 15.4347 23.4215 15.6167 24.0189 15.6167ZM30.2128 16.4987V8.99466H31.2628V10.2267L31.1228 10.0447C31.3001 9.68999 31.5661 9.40999 31.9208 9.20466C32.2848 8.99932 32.7234 8.89666 33.2368 8.89666H33.7128V9.94666H33.0548C32.5134 9.94666 32.0794 10.1147 31.7528 10.4507C31.4261 10.7867 31.2628 11.2627 31.2628 11.8787V16.4987H30.2128ZM38.7372 16.6667C38.0932 16.6667 37.5099 16.522 36.9872 16.2327C36.4739 15.934 36.0866 15.514 35.8252 14.9727L35.9932 14.8187V16.4987H34.9432V5.90066H35.9932V10.6747L35.8252 10.3807C36.1239 9.90466 36.5206 9.52666 37.0152 9.24666C37.5192 8.96666 38.0932 8.82666 38.7372 8.82666C39.4466 8.82666 40.0766 8.99932 40.6272 9.34466C41.1872 9.68066 41.6259 10.1427 41.9432 10.7307C42.2699 11.3187 42.4332 11.9907 42.4332 12.7467C42.4332 13.4933 42.2699 14.1653 41.9432 14.7627C41.6259 15.3507 41.1872 15.8173 40.6272 16.1627C40.0766 16.4987 39.4466 16.6667 38.7372 16.6667ZM38.6812 15.6167C39.1852 15.6167 39.6332 15.4907 40.0252 15.2387C40.4266 14.9867 40.7392 14.646 40.9632 14.2167C41.1966 13.778 41.3132 13.288 41.3132 12.7467C41.3132 12.196 41.1966 11.706 40.9632 11.2767C40.7392 10.8473 40.4266 10.5067 40.0252 10.2547C39.6332 10.0027 39.1852 9.87666 38.6812 9.87666C38.1772 9.87666 37.7199 10.0027 37.3092 10.2547C36.9079 10.5067 36.5859 10.852 36.3432 11.2907C36.1099 11.72 35.9932 12.2053 35.9932 12.7467C35.9932 13.288 36.1099 13.778 36.3432 14.2167C36.5859 14.646 36.9079 14.9867 37.3092 15.2387C37.7199 15.4907 38.1772 15.6167 38.6812 15.6167Z" fill="#999999"/>
<path d="M5.95 110.399V107.935H0.644V107.025L5.95 99.9689H6.93V107.025H8.204V107.935H6.93V110.399H5.95ZM1.498 107.431L1.372 107.025H5.95V100.935L6.3 101.033L1.498 107.431ZM13.9564 110.567C13.135 110.567 12.4117 110.343 11.7864 109.895C11.1704 109.438 10.6897 108.808 10.3444 108.005C9.99903 107.193 9.82636 106.25 9.82636 105.177C9.82636 104.104 9.99903 103.166 10.3444 102.363C10.6897 101.551 11.1704 100.921 11.7864 100.473C12.4024 100.025 13.121 99.8009 13.9424 99.8009C14.7637 99.8009 15.4824 100.025 16.0984 100.473C16.7144 100.921 17.195 101.551 17.5404 102.363C17.8857 103.166 18.0584 104.104 18.0584 105.177C18.0584 106.25 17.8857 107.193 17.5404 108.005C17.2044 108.817 16.7284 109.447 16.1124 109.895C15.4964 110.343 14.7777 110.567 13.9564 110.567ZM13.9564 109.517C14.5537 109.517 15.0764 109.335 15.5244 108.971C15.9724 108.607 16.3224 108.103 16.5744 107.459C16.8264 106.806 16.9524 106.045 16.9524 105.177C16.9524 104.309 16.8264 103.553 16.5744 102.909C16.3224 102.256 15.9724 101.752 15.5244 101.397C15.0764 101.033 14.549 100.851 13.9424 100.851C13.345 100.851 12.8224 101.033 12.3744 101.397C11.9264 101.752 11.5764 102.256 11.3244 102.909C11.0724 103.553 10.9464 104.309 10.9464 105.177C10.9464 106.036 11.0724 106.792 11.3244 107.445C11.5764 108.098 11.9264 108.607 12.3744 108.971C12.8317 109.335 13.359 109.517 13.9564 109.517ZM24.2103 110.567C23.3889 110.567 22.6656 110.343 22.0403 109.895C21.4243 109.438 20.9436 108.808 20.5983 108.005C20.2529 107.193 20.0803 106.25 20.0803 105.177C20.0803 104.104 20.2529 103.166 20.5983 102.363C20.9436 101.551 21.4243 100.921 22.0403 100.473C22.6563 100.025 23.3749 99.8009 24.1963 99.8009C25.0176 99.8009 25.7363 100.025 26.3523 100.473C26.9683 100.921 27.4489 101.551 27.7943 102.363C28.1396 103.166 28.3123 104.104 28.3123 105.177C28.3123 106.25 28.1396 107.193 27.7943 108.005C27.4583 108.817 26.9823 109.447 26.3663 109.895C25.7503 110.343 25.0316 110.567 24.2103 110.567ZM24.2103 109.517C24.8076 109.517 25.3303 109.335 25.7783 108.971C26.2263 108.607 26.5763 108.103 26.8283 107.459C27.0803 106.806 27.2063 106.045 27.2063 105.177C27.2063 104.309 27.0803 103.553 26.8283 102.909C26.5763 102.256 26.2263 101.752 25.7783 101.397C25.3303 101.033 24.8029 100.851 24.1963 100.851C23.5989 100.851 23.0763 101.033 22.6283 101.397C22.1803 101.752 21.8303 102.256 21.5783 102.909C21.3263 103.553 21.2003 104.309 21.2003 105.177C21.2003 106.036 21.3263 106.792 21.5783 107.445C21.8303 108.098 22.1803 108.607 22.6283 108.971C23.0856 109.335 23.6129 109.517 24.2103 109.517ZM30.4042 110.399V102.895H31.4542V104.127L31.3142 103.945C31.4915 103.59 31.7575 103.31 32.1122 103.105C32.4762 102.9 32.9148 102.797 33.4282 102.797H33.9042V103.847H33.2462C32.7048 103.847 32.2708 104.015 31.9442 104.351C31.6175 104.687 31.4542 105.163 31.4542 105.779V110.399H30.4042ZM38.9286 110.567C38.2846 110.567 37.7013 110.422 37.1786 110.133C36.6653 109.834 36.278 109.414 36.0166 108.873L36.1846 108.719V110.399H35.1346V99.8009H36.1846V104.575L36.0166 104.281C36.3153 103.805 36.712 103.427 37.2066 103.147C37.7106 102.867 38.2846 102.727 38.9286 102.727C39.638 102.727 40.268 102.9 40.8186 103.245C41.3786 103.581 41.8173 104.043 42.1346 104.631C42.4613 105.219 42.6246 105.891 42.6246 106.647C42.6246 107.394 42.4613 108.066 42.1346 108.663C41.8173 109.251 41.3786 109.718 40.8186 110.063C40.268 110.399 39.638 110.567 38.9286 110.567ZM38.8726 109.517C39.3766 109.517 39.8246 109.391 40.2166 109.139C40.618 108.887 40.9306 108.546 41.1546 108.117C41.388 107.678 41.5046 107.188 41.5046 106.647C41.5046 106.096 41.388 105.606 41.1546 105.177C40.9306 104.748 40.618 104.407 40.2166 104.155C39.8246 103.903 39.3766 103.777 38.8726 103.777C38.3686 103.777 37.9113 103.903 37.5006 104.155C37.0993 104.407 36.7773 104.752 36.5346 105.191C36.3013 105.62 36.1846 106.106 36.1846 106.647C36.1846 107.188 36.3013 107.678 36.5346 108.117C36.7773 108.546 37.0993 108.887 37.5006 109.139C37.9113 109.391 38.3686 109.517 38.8726 109.517Z" fill="#999999"/>
<path d="M4.116 204.467C3.57467 204.467 3.07533 204.374 2.618 204.187C2.16067 204.001 1.75933 203.735 1.414 203.389C1.078 203.044 0.821333 202.633 0.644 202.157L1.54 201.737C1.75467 202.279 2.09067 202.708 2.548 203.025C3.00533 203.333 3.528 203.487 4.116 203.487C4.58267 203.487 4.998 203.399 5.362 203.221C5.726 203.035 6.01067 202.769 6.216 202.423C6.42133 202.078 6.524 201.658 6.524 201.163C6.524 200.669 6.41667 200.249 6.202 199.903C5.99667 199.558 5.712 199.297 5.348 199.119C4.984 198.942 4.56867 198.853 4.102 198.853C3.98067 198.853 3.84533 198.858 3.696 198.867C3.556 198.877 3.43933 198.891 3.346 198.909L3.122 198.419L5.936 194.849H1.134V193.869H7.196V194.849L4.564 198.167L4.424 197.985C5.04933 198.004 5.60467 198.153 6.09 198.433C6.57533 198.704 6.95333 199.073 7.224 199.539C7.504 200.006 7.644 200.547 7.644 201.163C7.644 201.779 7.49467 202.339 7.196 202.843C6.89733 203.338 6.482 203.735 5.95 204.033C5.418 204.323 4.80667 204.467 4.116 204.467ZM13.6693 204.467C12.8479 204.467 12.1246 204.243 11.4993 203.795C10.8833 203.338 10.4026 202.708 10.0573 201.905C9.71192 201.093 9.53925 200.151 9.53925 199.077C9.53925 198.004 9.71192 197.066 10.0573 196.263C10.4026 195.451 10.8833 194.821 11.4993 194.373C12.1153 193.925 12.8339 193.701 13.6553 193.701C14.4766 193.701 15.1953 193.925 15.8113 194.373C16.4273 194.821 16.9079 195.451 17.2533 196.263C17.5986 197.066 17.7713 198.004 17.7713 199.077C17.7713 200.151 17.5986 201.093 17.2533 201.905C16.9173 202.717 16.4413 203.347 15.8253 203.795C15.2093 204.243 14.4906 204.467 13.6693 204.467ZM13.6693 203.417C14.2666 203.417 14.7893 203.235 15.2373 202.871C15.6853 202.507 16.0353 202.003 16.2873 201.359C16.5393 200.706 16.6653 199.945 16.6653 199.077C16.6653 198.209 16.5393 197.453 16.2873 196.809C16.0353 196.156 15.6853 195.652 15.2373 195.297C14.7893 194.933 14.2619 194.751 13.6553 194.751C13.0579 194.751 12.5353 194.933 12.0873 195.297C11.6393 195.652 11.2893 196.156 11.0373 196.809C10.7853 197.453 10.6593 198.209 10.6593 199.077C10.6593 199.936 10.7853 200.692 11.0373 201.345C11.2893 201.999 11.6393 202.507 12.0873 202.871C12.5446 203.235 13.0719 203.417 13.6693 203.417ZM23.9232 204.467C23.1018 204.467 22.3785 204.243 21.7532 203.795C21.1372 203.338 20.6565 202.708 20.3112 201.905C19.9658 201.093 19.7932 200.151 19.7932 199.077C19.7932 198.004 19.9658 197.066 20.3112 196.263C20.6565 195.451 21.1372 194.821 21.7532 194.373C22.3692 193.925 23.0878 193.701 23.9092 193.701C24.7305 193.701 25.4492 193.925 26.0652 194.373C26.6812 194.821 27.1618 195.451 27.5072 196.263C27.8525 197.066 28.0252 198.004 28.0252 199.077C28.0252 200.151 27.8525 201.093 27.5072 201.905C27.1712 202.717 26.6952 203.347 26.0792 203.795C25.4632 204.243 24.7445 204.467 23.9232 204.467ZM23.9232 203.417C24.5205 203.417 25.0432 203.235 25.4912 202.871C25.9392 202.507 26.2892 202.003 26.5412 201.359C26.7932 200.706 26.9192 199.945 26.9192 199.077C26.9192 198.209 26.7932 197.453 26.5412 196.809C26.2892 196.156 25.9392 195.652 25.4912 195.297C25.0432 194.933 24.5158 194.751 23.9092 194.751C23.3118 194.751 22.7892 194.933 22.3412 195.297C21.8932 195.652 21.5432 196.156 21.2912 196.809C21.0392 197.453 20.9132 198.209 20.9132 199.077C20.9132 199.936 21.0392 200.692 21.2912 201.345C21.5432 201.999 21.8932 202.507 22.3412 202.871C22.7985 203.235 23.3258 203.417 23.9232 203.417ZM30.1171 204.299V196.795H31.1671V198.027L31.0271 197.845C31.2044 197.491 31.4704 197.211 31.8251 197.005C32.1891 196.8 32.6277 196.697 33.1411 196.697H33.6171V197.747H32.9591C32.4177 197.747 31.9837 197.915 31.6571 198.251C31.3304 198.587 31.1671 199.063 31.1671 199.679V204.299H30.1171ZM38.6415 204.467C37.9975 204.467 37.4142 204.323 36.8915 204.033C36.3782 203.735 35.9909 203.315 35.7295 202.773L35.8975 202.619V204.299H34.8475V193.701H35.8975V198.475L35.7295 198.181C36.0282 197.705 36.4249 197.327 36.9195 197.047C37.4235 196.767 37.9975 196.627 38.6415 196.627C39.3509 196.627 39.9809 196.8 40.5315 197.145C41.0915 197.481 41.5302 197.943 41.8475 198.531C42.1742 199.119 42.3375 199.791 42.3375 200.547C42.3375 201.294 42.1742 201.966 41.8475 202.563C41.5302 203.151 41.0915 203.618 40.5315 203.963C39.9809 204.299 39.3509 204.467 38.6415 204.467ZM38.5855 203.417C39.0895 203.417 39.5375 203.291 39.9295 203.039C40.3309 202.787 40.6435 202.447 40.8675 202.017C41.1009 201.579 41.2175 201.089 41.2175 200.547C41.2175 199.997 41.1009 199.507 40.8675 199.077C40.6435 198.648 40.3309 198.307 39.9295 198.055C39.5375 197.803 39.0895 197.677 38.5855 197.677C38.0815 197.677 37.6242 197.803 37.2135 198.055C36.8122 198.307 36.4902 198.653 36.2475 199.091C36.0142 199.521 35.8975 200.006 35.8975 200.547C35.8975 201.089 36.0142 201.579 36.2475 202.017C36.4902 202.447 36.8122 202.787 37.2135 203.039C37.6242 203.291 38.0815 203.417 38.5855 203.417Z" fill="#999999"/>
<path d="M0.812 298.199V297.499L3.724 294.293C4.29333 293.668 4.75533 293.15 5.11 292.739C5.474 292.329 5.74467 291.955 5.922 291.619C6.09933 291.283 6.188 290.919 6.188 290.527C6.188 289.902 6.006 289.421 5.642 289.085C5.278 288.749 4.79267 288.581 4.186 288.581C3.56067 288.581 3.03333 288.759 2.604 289.113C2.184 289.468 1.89933 289.963 1.75 290.597L0.728 290.373C0.849333 289.804 1.06867 289.314 1.386 288.903C1.70333 288.493 2.1 288.175 2.576 287.951C3.052 287.718 3.584 287.601 4.172 287.601C4.79733 287.601 5.34333 287.727 5.81 287.979C6.27667 288.231 6.64067 288.577 6.902 289.015C7.17267 289.454 7.308 289.958 7.308 290.527C7.308 290.919 7.224 291.297 7.056 291.661C6.89733 292.025 6.65467 292.417 6.328 292.837C6.00133 293.257 5.58133 293.747 5.068 294.307L2.422 297.219H7.588V298.199H0.812ZM13.5325 298.367C12.7112 298.367 11.9879 298.143 11.3625 297.695C10.7465 297.238 10.2659 296.608 9.92053 295.805C9.5752 294.993 9.40253 294.051 9.40253 292.977C9.40253 291.904 9.5752 290.966 9.92053 290.163C10.2659 289.351 10.7465 288.721 11.3625 288.273C11.9785 287.825 12.6972 287.601 13.5185 287.601C14.3399 287.601 15.0585 287.825 15.6745 288.273C16.2905 288.721 16.7712 289.351 17.1165 290.163C17.4619 290.966 17.6345 291.904 17.6345 292.977C17.6345 294.051 17.4619 294.993 17.1165 295.805C16.7805 296.617 16.3045 297.247 15.6885 297.695C15.0725 298.143 14.3539 298.367 13.5325 298.367ZM13.5325 297.317C14.1299 297.317 14.6525 297.135 15.1005 296.771C15.5485 296.407 15.8985 295.903 16.1505 295.259C16.4025 294.606 16.5285 293.845 16.5285 292.977C16.5285 292.109 16.4025 291.353 16.1505 290.709C15.8985 290.056 15.5485 289.552 15.1005 289.197C14.6525 288.833 14.1252 288.651 13.5185 288.651C12.9212 288.651 12.3985 288.833 11.9505 289.197C11.5025 289.552 11.1525 290.056 10.9005 290.709C10.6485 291.353 10.5225 292.109 10.5225 292.977C10.5225 293.836 10.6485 294.592 10.9005 295.245C11.1525 295.899 11.5025 296.407 11.9505 296.771C12.4079 297.135 12.9352 297.317 13.5325 297.317ZM23.7864 298.367C22.9651 298.367 22.2418 298.143 21.6164 297.695C21.0004 297.238 20.5198 296.608 20.1744 295.805C19.8291 294.993 19.6564 294.051 19.6564 292.977C19.6564 291.904 19.8291 290.966 20.1744 290.163C20.5198 289.351 21.0004 288.721 21.6164 288.273C22.2324 287.825 22.9511 287.601 23.7724 287.601C24.5938 287.601 25.3124 287.825 25.9284 288.273C26.5444 288.721 27.0251 289.351 27.3704 290.163C27.7158 290.966 27.8884 291.904 27.8884 292.977C27.8884 294.051 27.7158 294.993 27.3704 295.805C27.0344 296.617 26.5584 297.247 25.9424 297.695C25.3264 298.143 24.6078 298.367 23.7864 298.367ZM23.7864 297.317C24.3838 297.317 24.9064 297.135 25.3544 296.771C25.8024 296.407 26.1524 295.903 26.4044 295.259C26.6564 294.606 26.7824 293.845 26.7824 292.977C26.7824 292.109 26.6564 291.353 26.4044 290.709C26.1524 290.056 25.8024 289.552 25.3544 289.197C24.9064 288.833 24.3791 288.651 23.7724 288.651C23.1751 288.651 22.6524 288.833 22.2044 289.197C21.7564 289.552 21.4064 290.056 21.1544 290.709C20.9024 291.353 20.7764 292.109 20.7764 292.977C20.7764 293.836 20.9024 294.592 21.1544 295.245C21.4064 295.899 21.7564 296.407 22.2044 296.771C22.6618 297.135 23.1891 297.317 23.7864 297.317ZM29.9803 298.199V290.695H31.0303V291.927L30.8903 291.745C31.0677 291.391 31.3337 291.111 31.6883 290.905C32.0523 290.7 32.491 290.597 33.0043 290.597H33.4803V291.647H32.8223C32.281 291.647 31.847 291.815 31.5203 292.151C31.1937 292.487 31.0303 292.963 31.0303 293.579V298.199H29.9803ZM38.5048 298.367C37.8608 298.367 37.2775 298.223 36.7548 297.933C36.2415 297.635 35.8541 297.215 35.5928 296.673L35.7608 296.519V298.199H34.7108V287.601H35.7608V292.375L35.5928 292.081C35.8915 291.605 36.2881 291.227 36.7828 290.947C37.2868 290.667 37.8608 290.527 38.5048 290.527C39.2141 290.527 39.8441 290.7 40.3948 291.045C40.9548 291.381 41.3935 291.843 41.7108 292.431C42.0375 293.019 42.2008 293.691 42.2008 294.447C42.2008 295.194 42.0375 295.866 41.7108 296.463C41.3935 297.051 40.9548 297.518 40.3948 297.863C39.8441 298.199 39.2141 298.367 38.5048 298.367ZM38.4488 297.317C38.9528 297.317 39.4008 297.191 39.7928 296.939C40.1941 296.687 40.5068 296.347 40.7308 295.917C40.9641 295.479 41.0808 294.989 41.0808 294.447C41.0808 293.897 40.9641 293.407 40.7308 292.977C40.5068 292.548 40.1941 292.207 39.7928 291.955C39.4008 291.703 38.9528 291.577 38.4488 291.577C37.9448 291.577 37.4875 291.703 37.0768 291.955C36.6755 292.207 36.3535 292.553 36.1108 292.991C35.8775 293.421 35.7608 293.906 35.7608 294.447C35.7608 294.989 35.8775 295.479 36.1108 295.917C36.3535 296.347 36.6755 296.687 37.0768 296.939C37.4875 297.191 37.9448 297.317 38.4488 297.317Z" fill="#999999"/>
<path d="M2.534 392.1V382.65H0.574V381.67H3.654V392.1H2.534ZM10.3333 392.268C9.51198 392.268 8.78865 392.044 8.16331 391.596C7.54731 391.138 7.06665 390.508 6.72131 389.706C6.37598 388.894 6.20331 387.951 6.20331 386.878C6.20331 385.804 6.37598 384.866 6.72131 384.064C7.06665 383.252 7.54731 382.622 8.16331 382.174C8.77931 381.726 9.49798 381.502 10.3193 381.502C11.1406 381.502 11.8593 381.726 12.4753 382.174C13.0913 382.622 13.572 383.252 13.9173 384.064C14.2626 384.866 14.4353 385.804 14.4353 386.878C14.4353 387.951 14.2626 388.894 13.9173 389.706C13.5813 390.518 13.1053 391.148 12.4893 391.596C11.8733 392.044 11.1546 392.268 10.3333 392.268ZM10.3333 391.218C10.9306 391.218 11.4533 391.036 11.9013 390.672C12.3493 390.308 12.6993 389.804 12.9513 389.16C13.2033 388.506 13.3293 387.746 13.3293 386.878C13.3293 386.01 13.2033 385.254 12.9513 384.61C12.6993 383.956 12.3493 383.452 11.9013 383.098C11.4533 382.734 10.926 382.552 10.3193 382.552C9.72198 382.552 9.19931 382.734 8.75131 383.098C8.30331 383.452 7.95331 383.956 7.70131 384.61C7.44931 385.254 7.32331 386.01 7.32331 386.878C7.32331 387.736 7.44931 388.492 7.70131 389.146C7.95331 389.799 8.30331 390.308 8.75131 390.672C9.20865 391.036 9.73598 391.218 10.3333 391.218ZM20.5872 392.268C19.7659 392.268 19.0426 392.044 18.4172 391.596C17.8012 391.138 17.3206 390.508 16.9752 389.706C16.6299 388.894 16.4572 387.951 16.4572 386.878C16.4572 385.804 16.6299 384.866 16.9752 384.064C17.3206 383.252 17.8012 382.622 18.4172 382.174C19.0332 381.726 19.7519 381.502 20.5732 381.502C21.3946 381.502 22.1132 381.726 22.7292 382.174C23.3452 382.622 23.8259 383.252 24.1712 384.064C24.5166 384.866 24.6892 385.804 24.6892 386.878C24.6892 387.951 24.5166 388.894 24.1712 389.706C23.8352 390.518 23.3592 391.148 22.7432 391.596C22.1272 392.044 21.4086 392.268 20.5872 392.268ZM20.5872 391.218C21.1846 391.218 21.7072 391.036 22.1552 390.672C22.6032 390.308 22.9532 389.804 23.2052 389.16C23.4572 388.506 23.5832 387.746 23.5832 386.878C23.5832 386.01 23.4572 385.254 23.2052 384.61C22.9532 383.956 22.6032 383.452 22.1552 383.098C21.7072 382.734 21.1799 382.552 20.5732 382.552C19.9759 382.552 19.4532 382.734 19.0052 383.098C18.5572 383.452 18.2072 383.956 17.9552 384.61C17.7032 385.254 17.5772 386.01 17.5772 386.878C17.5772 387.736 17.7032 388.492 17.9552 389.146C18.2072 389.799 18.5572 390.308 19.0052 390.672C19.4626 391.036 19.9899 391.218 20.5872 391.218ZM26.7811 392.1V384.596H27.8311V385.828L27.6911 385.646C27.8685 385.291 28.1345 385.011 28.4891 384.806C28.8531 384.6 29.2918 384.498 29.8051 384.498H30.2811V385.548H29.6231C29.0818 385.548 28.6478 385.716 28.3211 386.052C27.9945 386.388 27.8311 386.864 27.8311 387.48V392.1H26.7811ZM35.3056 392.268C34.6616 392.268 34.0783 392.123 33.5556 391.834C33.0423 391.535 32.6549 391.115 32.3936 390.574L32.5616 390.42V392.1H31.5116V381.502H32.5616V386.276L32.3936 385.982C32.6923 385.506 33.0889 385.128 33.5836 384.848C34.0876 384.568 34.6616 384.428 35.3056 384.428C36.0149 384.428 36.6449 384.6 37.1956 384.946C37.7556 385.282 38.1943 385.744 38.5116 386.332C38.8383 386.92 39.0016 387.592 39.0016 388.348C39.0016 389.094 38.8383 389.766 38.5116 390.364C38.1943 390.952 37.7556 391.418 37.1956 391.764C36.6449 392.1 36.0149 392.268 35.3056 392.268ZM35.2496 391.218C35.7536 391.218 36.2016 391.092 36.5936 390.84C36.9949 390.588 37.3076 390.247 37.5316 389.818C37.7649 389.379 37.8816 388.889 37.8816 388.348C37.8816 387.797 37.7649 387.307 37.5316 386.878C37.3076 386.448 36.9949 386.108 36.5936 385.856C36.2016 385.604 35.7536 385.478 35.2496 385.478C34.7456 385.478 34.2883 385.604 33.8776 385.856C33.4763 386.108 33.1543 386.453 32.9116 386.892C32.6783 387.321 32.5616 387.806 32.5616 388.348C32.5616 388.889 32.6783 389.379 32.9116 389.818C33.1543 390.247 33.4763 390.588 33.8776 390.84C34.2883 391.092 34.7456 391.218 35.2496 391.218Z" fill="#999999"/>
<path d="M5.138 486.168C4.31667 486.168 3.59333 485.944 2.968 485.496C2.352 485.039 1.87133 484.409 1.526 483.606C1.18067 482.794 1.008 481.851 1.008 480.778C1.008 479.705 1.18067 478.767 1.526 477.964C1.87133 477.152 2.352 476.522 2.968 476.074C3.584 475.626 4.30267 475.402 5.124 475.402C5.94533 475.402 6.664 475.626 7.28 476.074C7.896 476.522 8.37667 477.152 8.722 477.964C9.06733 478.767 9.24 479.705 9.24 480.778C9.24 481.851 9.06733 482.794 8.722 483.606C8.386 484.418 7.91 485.048 7.294 485.496C6.678 485.944 5.95933 486.168 5.138 486.168ZM5.138 485.118C5.73533 485.118 6.258 484.936 6.706 484.572C7.154 484.208 7.504 483.704 7.756 483.06C8.008 482.407 8.134 481.646 8.134 480.778C8.134 479.91 8.008 479.154 7.756 478.51C7.504 477.857 7.154 477.353 6.706 476.998C6.258 476.634 5.73067 476.452 5.124 476.452C4.52667 476.452 4.004 476.634 3.556 476.998C3.108 477.353 2.758 477.857 2.506 478.51C2.254 479.154 2.128 479.91 2.128 480.778C2.128 481.637 2.254 482.393 2.506 483.046C2.758 483.699 3.108 484.208 3.556 484.572C4.01333 484.936 4.54067 485.118 5.138 485.118Z" fill="#999999"/>
<g opacity="0.6">
<path d="M62 452.979H1002.41" stroke="#EBEBEB" stroke-width="1.2" stroke-dasharray="12 12"/>
<path d="M62 362.659H1002.41" stroke="#EBEBEB" stroke-width="1.2" stroke-dasharray="12 12"/>
<path d="M62 272.37H1002.41" stroke="#EBEBEB" stroke-width="1.2" stroke-dasharray="12 12"/>
<path d="M62 182.079H1002.41" stroke="#EBEBEB" stroke-width="1.2" stroke-dasharray="12 12"/>
<path d="M62 91.7725H1002.41" stroke="#EBEBEB" stroke-width="1.2" stroke-dasharray="12 12"/>
<path d="M62 1.49866H1002.41" stroke="#EBEBEB" stroke-width="1.2" stroke-dasharray="12 12"/>
</g>
<g opacity="0.8">
<path d="M62 153.274L68.5277 146.915C75.0554 140.557 88.1108 127.84 101.166 141.767C114.222 155.694 127.277 196.265 140.332 196.549C153.388 196.834 166.443 156.832 179.499 140.766C192.554 124.7 205.61 132.57 218.665 152.035C231.72 171.499 244.776 202.557 257.831 215.442C270.887 228.326 283.942 223.038 296.997 240.624C310.053 258.21 323.108 298.671 336.164 299.89C349.219 301.11 362.274 263.089 375.33 244.252C388.385 225.416 401.441 225.764 414.496 241.799C427.552 257.834 440.607 289.556 453.662 256.923C466.718 224.29 479.773 127.301 492.829 109.886C505.884 92.471 518.939 154.629 531.995 174.072C545.05 193.515 558.106 170.242 571.161 158.313C584.216 146.384 597.272 145.799 610.327 146.269C623.383 146.74 636.438 148.265 649.494 169.613C662.549 190.961 675.604 232.13 688.66 251.703C701.715 271.277 714.771 269.254 727.826 223.628C740.881 178.002 749.945 135.913 763 89C776.055 42.0871 806.945 46.6392 820 77C833.055 107.361 832.269 116.389 845.325 166.351C858.38 216.314 871.436 250.923 884.491 230.784C897.546 210.644 910.602 135.758 923.657 94.7825C936.713 53.8072 949.768 46.7435 962.823 59.9675C975.879 73.1915 988.934 106.703 995.462 123.459L1001.99 140.215" stroke="#86F876" stroke-width="2"/>
<path opacity="0.15" d="M68.5277 146.915L62 153.274V455H1001.99V140.215L995.462 123.459C988.934 106.703 975.879 73.1914 962.823 59.9674C949.768 46.7434 936.713 53.8072 923.657 94.7824C910.602 135.758 897.546 210.644 884.491 230.783C871.436 250.922 858.38 216.314 845.325 166.351C832.269 116.389 831.256 106.861 818.201 76.5C805.146 46.1392 776.756 43.5871 763.701 90.5C750.646 137.413 740.881 178.001 727.826 223.628C714.771 269.254 701.715 271.277 688.66 251.703C675.604 232.13 662.549 190.96 649.494 169.613C636.438 148.265 623.383 146.739 610.327 146.269C597.272 145.799 584.216 146.384 571.161 158.313C558.106 170.242 545.05 193.515 531.995 174.072C518.939 154.629 505.884 92.4709 492.829 109.886C479.773 127.301 466.718 224.289 453.662 256.923C440.607 289.556 427.552 257.834 414.496 241.799C401.441 225.764 388.385 225.416 375.33 244.252C362.274 263.089 349.219 301.11 336.164 299.89C323.108 298.67 310.053 258.21 296.997 240.624C283.942 223.038 270.887 228.326 257.831 215.441C244.776 202.557 231.72 171.499 218.665 152.035C205.61 132.57 192.554 124.7 179.499 140.766C166.443 156.831 153.388 196.834 140.332 196.549C127.277 196.265 114.222 155.694 101.166 141.767C88.1108 127.84 75.0554 140.557 68.5277 146.915Z" fill="url(#paint0_linear_164_131)"/>
</g>
<path d="M1002.41 223.2L991.963 243.719C981.514 264.238 960.616 305.276 939.718 307.944C918.82 310.612 897.922 274.911 877.024 266.746C856.126 258.581 835.228 277.953 814.33 288.975C793.432 299.997 772.534 302.669 751.635 304.169C730.737 305.668 709.839 305.995 688.941 312.106C668.043 318.216 647.145 330.11 626.247 312.089C605.349 294.068 584.451 246.132 563.553 220.751C542.655 195.371 521.757 192.545 500.859 212.516C479.961 232.486 459.063 275.253 438.165 287.107C417.267 298.962 396.369 279.905 375.471 281.876C354.572 283.846 333.674 306.845 312.776 292.594C291.878 278.342 270.98 226.84 250.082 222.357C229.184 217.874 208.286 260.411 187.388 279.364C166.49 298.317 145.592 293.686 124.694 294.983C103.796 296.28 82.8978 303.505 72.4488 307.117L61.9997 310.729" stroke="#F87676" stroke-width="4"/>
<path opacity="0.2" d="M991.963 243.719L1002.41 223.2V453.913H61.9998V310.729L72.4489 307.117C82.8979 303.505 103.796 296.28 124.694 294.983C145.592 293.686 166.49 298.317 187.388 279.364C208.286 260.411 229.184 217.874 250.082 222.357C270.98 226.84 291.878 278.342 312.776 292.594C333.674 306.845 354.572 283.846 375.471 281.876C396.369 279.905 417.267 298.962 438.165 287.107C459.063 275.253 479.961 232.486 500.859 212.516C521.757 192.545 542.655 195.371 563.553 220.751C584.451 246.132 605.349 294.068 626.247 312.089C647.145 330.11 668.043 318.216 688.941 312.106C709.839 305.995 730.737 305.668 751.635 304.169C772.534 302.669 793.432 299.997 814.33 288.975C835.228 277.953 856.126 258.581 877.024 266.746C897.922 274.911 918.82 310.612 939.718 307.944C960.616 305.276 981.514 264.238 991.963 243.719Z" fill="url(#paint1_linear_164_131)"/>
<path d="M64.534 486V476.55H62.574V475.57H65.654V486H64.534ZM68.2873 483.018V481.968H74.5873V483.018H68.2873ZM76.7915 486L81.4955 476.55H76.2875V475.57H82.6575V476.55L77.9675 486H76.7915Z" fill="#999999"/>
<path d="M278.999 486.168C278.327 486.168 277.725 486.033 277.193 485.762C276.67 485.482 276.255 485.104 275.947 484.628C275.648 484.143 275.499 483.597 275.499 482.99C275.499 482.327 275.686 481.735 276.059 481.212C276.442 480.689 276.955 480.325 277.599 480.12V480.414C277.104 480.199 276.722 479.882 276.451 479.462C276.18 479.033 276.045 478.575 276.045 478.09C276.045 477.577 276.176 477.119 276.437 476.718C276.698 476.317 277.048 475.999 277.487 475.766C277.935 475.523 278.439 475.402 278.999 475.402C279.568 475.402 280.072 475.519 280.511 475.752C280.95 475.976 281.295 476.293 281.547 476.704C281.808 477.105 281.939 477.567 281.939 478.09C281.939 478.613 281.799 479.079 281.519 479.49C281.239 479.891 280.87 480.199 280.413 480.414L280.399 480.12C281.043 480.325 281.552 480.689 281.925 481.212C282.308 481.735 282.499 482.327 282.499 482.99C282.499 483.597 282.345 484.143 282.037 484.628C281.738 485.104 281.323 485.482 280.791 485.762C280.268 486.033 279.671 486.168 278.999 486.168ZM278.999 485.188C279.475 485.188 279.89 485.099 280.245 484.922C280.6 484.735 280.875 484.479 281.071 484.152C281.276 483.816 281.379 483.429 281.379 482.99C281.379 482.551 281.276 482.169 281.071 481.842C280.875 481.506 280.6 481.249 280.245 481.072C279.89 480.885 279.475 480.792 278.999 480.792C278.523 480.792 278.103 480.885 277.739 481.072C277.384 481.249 277.109 481.506 276.913 481.842C276.717 482.169 276.619 482.551 276.619 482.99C276.619 483.429 276.717 483.816 276.913 484.152C277.109 484.479 277.384 484.735 277.739 484.922C278.103 485.099 278.523 485.188 278.999 485.188ZM278.999 479.812C279.344 479.812 279.652 479.742 279.923 479.602C280.194 479.453 280.408 479.252 280.567 479C280.735 478.739 280.819 478.435 280.819 478.09C280.819 477.745 280.735 477.446 280.567 477.194C280.408 476.942 280.194 476.746 279.923 476.606C279.652 476.457 279.344 476.382 278.999 476.382C278.654 476.382 278.341 476.457 278.061 476.606C277.79 476.746 277.571 476.942 277.403 477.194C277.244 477.446 277.165 477.745 277.165 478.09C277.165 478.435 277.244 478.739 277.403 479C277.571 479.252 277.79 479.453 278.061 479.602C278.341 479.742 278.654 479.812 278.999 479.812ZM284.486 483.018V481.968H290.786V483.018H284.486ZM294.418 486V476.55H292.458V475.57H295.538V486H294.418ZM303.03 486V483.536H297.724V482.626L303.03 475.57H304.01V482.626H305.284V483.536H304.01V486H303.03ZM298.578 483.032L298.452 482.626H303.03V476.536L303.38 476.634L298.578 483.032Z" fill="#14171F"/>
<path d="M499.74 486V476.55H497.78V475.57H500.86V486H499.74ZM506.629 486.168C506.088 486.168 505.584 486.075 505.117 485.888C504.66 485.701 504.259 485.435 503.913 485.09C503.568 484.745 503.307 484.334 503.129 483.858L503.983 483.438C504.198 483.979 504.548 484.409 505.033 484.726C505.528 485.034 506.06 485.188 506.629 485.188C507.087 485.188 507.493 485.081 507.847 484.866C508.211 484.651 508.496 484.362 508.701 483.998C508.907 483.625 509.009 483.209 509.009 482.752C509.009 482.276 508.902 481.856 508.687 481.492C508.482 481.128 508.202 480.843 507.847 480.638C507.493 480.423 507.091 480.316 506.643 480.316C506.186 480.316 505.761 480.423 505.369 480.638C504.987 480.843 504.707 481.095 504.529 481.394L503.647 481.226L504.431 475.57H509.709V476.55H504.837L505.271 476.172L504.641 480.624L504.207 480.428C504.534 480.027 504.917 479.742 505.355 479.574C505.794 479.397 506.242 479.308 506.699 479.308C507.371 479.308 507.964 479.467 508.477 479.784C508.991 480.092 509.392 480.507 509.681 481.03C509.98 481.543 510.129 482.117 510.129 482.752C510.129 483.396 509.975 483.979 509.667 484.502C509.369 485.015 508.953 485.421 508.421 485.72C507.899 486.019 507.301 486.168 506.629 486.168ZM512.12 483.018V481.968H518.42V483.018H512.12ZM520.331 486V485.3L523.243 482.094C523.812 481.469 524.274 480.951 524.629 480.54C524.993 480.129 525.263 479.756 525.441 479.42C525.618 479.084 525.707 478.72 525.707 478.328C525.707 477.703 525.525 477.222 525.161 476.886C524.797 476.55 524.311 476.382 523.705 476.382C523.079 476.382 522.552 476.559 522.123 476.914C521.703 477.269 521.418 477.763 521.269 478.398L520.247 478.174C520.368 477.605 520.587 477.115 520.905 476.704C521.222 476.293 521.619 475.976 522.095 475.752C522.571 475.519 523.103 475.402 523.691 475.402C524.316 475.402 524.862 475.528 525.329 475.78C525.795 476.032 526.159 476.377 526.421 476.816C526.691 477.255 526.827 477.759 526.827 478.328C526.827 478.72 526.743 479.098 526.575 479.462C526.416 479.826 526.173 480.218 525.847 480.638C525.52 481.058 525.1 481.548 524.587 482.108L521.941 485.02H527.107V486H520.331ZM530.447 486V476.55H528.487V475.57H531.567V486H530.447Z" fill="#999999"/>
<path d="M724.622 486V485.3L727.534 482.094C728.103 481.469 728.565 480.951 728.92 480.54C729.284 480.129 729.554 479.756 729.732 479.42C729.909 479.084 729.998 478.72 729.998 478.328C729.998 477.703 729.816 477.222 729.452 476.886C729.088 476.55 728.602 476.382 727.996 476.382C727.37 476.382 726.843 476.559 726.414 476.914C725.994 477.269 725.709 477.763 725.56 478.398L724.538 478.174C724.659 477.605 724.878 477.115 725.196 476.704C725.513 476.293 725.91 475.976 726.386 475.752C726.862 475.519 727.394 475.402 727.982 475.402C728.607 475.402 729.153 475.528 729.62 475.78C730.086 476.032 730.45 476.377 730.712 476.816C730.982 477.255 731.118 477.759 731.118 478.328C731.118 478.72 731.034 479.098 730.866 479.462C730.707 479.826 730.464 480.218 730.138 480.638C729.811 481.058 729.391 481.548 728.878 482.108L726.232 485.02H731.398V486H724.622ZM733.016 486V485.3L735.928 482.094C736.497 481.469 736.959 480.951 737.314 480.54C737.678 480.129 737.949 479.756 738.126 479.42C738.303 479.084 738.392 478.72 738.392 478.328C738.392 477.703 738.21 477.222 737.846 476.886C737.482 476.55 736.997 476.382 736.39 476.382C735.765 476.382 735.237 476.559 734.808 476.914C734.388 477.269 734.103 477.763 733.954 478.398L732.932 478.174C733.053 477.605 733.273 477.115 733.59 476.704C733.907 476.293 734.304 475.976 734.78 475.752C735.256 475.519 735.788 475.402 736.376 475.402C737.001 475.402 737.547 475.528 738.014 475.78C738.481 476.032 738.845 476.377 739.106 476.816C739.377 477.255 739.512 477.759 739.512 478.328C739.512 478.72 739.428 479.098 739.26 479.462C739.101 479.826 738.859 480.218 738.532 480.638C738.205 481.058 737.785 481.548 737.272 482.108L734.626 485.02H739.792V486H733.016ZM741.691 483.018V481.968H747.991V483.018H741.691ZM749.901 486V485.3L752.813 482.094C753.382 481.469 753.844 480.951 754.199 480.54C754.563 480.129 754.834 479.756 755.011 479.42C755.188 479.084 755.277 478.72 755.277 478.328C755.277 477.703 755.095 477.222 754.731 476.886C754.367 476.55 753.882 476.382 753.275 476.382C752.65 476.382 752.122 476.559 751.693 476.914C751.273 477.269 750.988 477.763 750.839 478.398L749.817 478.174C749.938 477.605 750.158 477.115 750.475 476.704C750.792 476.293 751.189 475.976 751.665 475.752C752.141 475.519 752.673 475.402 753.261 475.402C753.886 475.402 754.432 475.528 754.899 475.78C755.366 476.032 755.73 476.377 755.991 476.816C756.262 477.255 756.397 477.759 756.397 478.328C756.397 478.72 756.313 479.098 756.145 479.462C755.986 479.826 755.744 480.218 755.417 480.638C755.09 481.058 754.67 481.548 754.157 482.108L751.511 485.02H756.677V486H749.901ZM761.879 486.168C761.207 486.168 760.605 486.033 760.073 485.762C759.551 485.482 759.135 485.104 758.827 484.628C758.529 484.143 758.379 483.597 758.379 482.99C758.379 482.327 758.566 481.735 758.939 481.212C759.322 480.689 759.835 480.325 760.479 480.12V480.414C759.985 480.199 759.602 479.882 759.331 479.462C759.061 479.033 758.925 478.575 758.925 478.09C758.925 477.577 759.056 477.119 759.317 476.718C759.579 476.317 759.929 475.999 760.367 475.766C760.815 475.523 761.319 475.402 761.879 475.402C762.449 475.402 762.953 475.519 763.391 475.752C763.83 475.976 764.175 476.293 764.427 476.704C764.689 477.105 764.819 477.567 764.819 478.09C764.819 478.613 764.679 479.079 764.399 479.49C764.119 479.891 763.751 480.199 763.293 480.414L763.279 480.12C763.923 480.325 764.432 480.689 764.805 481.212C765.188 481.735 765.379 482.327 765.379 482.99C765.379 483.597 765.225 484.143 764.917 484.628C764.619 485.104 764.203 485.482 763.671 485.762C763.149 486.033 762.551 486.168 761.879 486.168ZM761.879 485.188C762.355 485.188 762.771 485.099 763.125 484.922C763.48 484.735 763.755 484.479 763.951 484.152C764.157 483.816 764.259 483.429 764.259 482.99C764.259 482.551 764.157 482.169 763.951 481.842C763.755 481.506 763.48 481.249 763.125 481.072C762.771 480.885 762.355 480.792 761.879 480.792C761.403 480.792 760.983 480.885 760.619 481.072C760.265 481.249 759.989 481.506 759.793 481.842C759.597 482.169 759.499 482.551 759.499 482.99C759.499 483.429 759.597 483.816 759.793 484.152C759.989 484.479 760.265 484.735 760.619 484.922C760.983 485.099 761.403 485.188 761.879 485.188ZM761.879 479.812C762.225 479.812 762.533 479.742 762.803 479.602C763.074 479.453 763.289 479.252 763.447 479C763.615 478.739 763.699 478.435 763.699 478.09C763.699 477.745 763.615 477.446 763.447 477.194C763.289 476.942 763.074 476.746 762.803 476.606C762.533 476.457 762.225 476.382 761.879 476.382C761.534 476.382 761.221 476.457 760.941 476.606C760.671 476.746 760.451 476.942 760.283 477.194C760.125 477.446 760.045 477.745 760.045 478.09C760.045 478.435 760.125 478.739 760.283 479C760.451 479.252 760.671 479.453 760.941 479.602C761.221 479.742 761.534 479.812 761.879 479.812Z" fill="#999999"/>
<path d="M958.224 486V485.3L961.136 482.094C961.705 481.469 962.167 480.951 962.522 480.54C962.886 480.129 963.157 479.756 963.334 479.42C963.511 479.084 963.6 478.72 963.6 478.328C963.6 477.703 963.418 477.222 963.054 476.886C962.69 476.55 962.205 476.382 961.598 476.382C960.973 476.382 960.445 476.559 960.016 476.914C959.596 477.269 959.311 477.763 959.162 478.398L958.14 478.174C958.261 477.605 958.481 477.115 958.798 476.704C959.115 476.293 959.512 475.976 959.988 475.752C960.464 475.519 960.996 475.402 961.584 475.402C962.209 475.402 962.755 475.528 963.222 475.78C963.689 476.032 964.053 476.377 964.314 476.816C964.585 477.255 964.72 477.759 964.72 478.328C964.72 478.72 964.636 479.098 964.468 479.462C964.309 479.826 964.067 480.218 963.74 480.638C963.413 481.058 962.993 481.548 962.48 482.108L959.834 485.02H965V486H958.224ZM967.837 486L971.463 481.254L971.673 481.128C971.533 481.352 971.369 481.529 971.183 481.66C970.996 481.791 970.791 481.884 970.567 481.94C970.343 481.996 970.095 482.024 969.825 482.024C969.218 482.024 968.672 481.884 968.187 481.604C967.701 481.315 967.314 480.923 967.025 480.428C966.745 479.924 966.605 479.35 966.605 478.706C966.605 478.071 966.749 477.507 967.039 477.012C967.337 476.517 967.739 476.125 968.243 475.836C968.756 475.547 969.33 475.402 969.965 475.402C970.618 475.402 971.197 475.551 971.701 475.85C972.205 476.139 972.601 476.545 972.891 477.068C973.18 477.581 973.325 478.174 973.325 478.846C973.325 479.219 973.278 479.588 973.185 479.952C973.101 480.316 972.97 480.675 972.793 481.03C972.615 481.385 972.391 481.739 972.121 482.094L969.181 486H967.837ZM969.965 481.016C970.403 481.016 970.791 480.918 971.127 480.722C971.463 480.517 971.724 480.241 971.911 479.896C972.107 479.541 972.205 479.145 972.205 478.706C972.205 478.258 972.107 477.861 971.911 477.516C971.715 477.161 971.449 476.886 971.113 476.69C970.777 476.485 970.394 476.382 969.965 476.382C969.535 476.382 969.153 476.485 968.817 476.69C968.481 476.886 968.215 477.161 968.019 477.516C967.823 477.861 967.725 478.258 967.725 478.706C967.725 479.145 967.818 479.541 968.005 479.896C968.201 480.241 968.467 480.517 968.803 480.722C969.148 480.918 969.535 481.016 969.965 481.016ZM975.252 483.018V481.968H981.552V483.018H975.252ZM986.766 486.168C986.225 486.168 985.726 486.075 985.268 485.888C984.811 485.701 984.41 485.435 984.064 485.09C983.728 484.745 983.472 484.334 983.294 483.858L984.19 483.438C984.405 483.979 984.741 484.409 985.198 484.726C985.656 485.034 986.178 485.188 986.766 485.188C987.233 485.188 987.648 485.099 988.012 484.922C988.376 484.735 988.661 484.469 988.866 484.124C989.072 483.779 989.174 483.359 989.174 482.864C989.174 482.369 989.067 481.949 988.852 481.604C988.647 481.259 988.362 480.997 987.998 480.82C987.634 480.643 987.219 480.554 986.752 480.554C986.631 480.554 986.496 480.559 986.346 480.568C986.206 480.577 986.09 480.591 985.996 480.61L985.772 480.12L988.586 476.55H983.784V475.57H989.846V476.55L987.214 479.868L987.074 479.686C987.7 479.705 988.255 479.854 988.74 480.134C989.226 480.405 989.604 480.773 989.874 481.24C990.154 481.707 990.294 482.248 990.294 482.864C990.294 483.48 990.145 484.04 989.846 484.544C989.548 485.039 989.132 485.435 988.6 485.734C988.068 486.023 987.457 486.168 986.766 486.168ZM996.32 486.168C995.498 486.168 994.775 485.944 994.15 485.496C993.534 485.039 993.053 484.409 992.708 483.606C992.362 482.794 992.19 481.851 992.19 480.778C992.19 479.705 992.362 478.767 992.708 477.964C993.053 477.152 993.534 476.522 994.15 476.074C994.766 475.626 995.484 475.402 996.306 475.402C997.127 475.402 997.846 475.626 998.462 476.074C999.078 476.522 999.558 477.152 999.904 477.964C1000.25 478.767 1000.42 479.705 1000.42 480.778C1000.42 481.851 1000.25 482.794 999.904 483.606C999.568 484.418 999.092 485.048 998.476 485.496C997.86 485.944 997.141 486.168 996.32 486.168ZM996.32 485.118C996.917 485.118 997.44 484.936 997.888 484.572C998.336 484.208 998.686 483.704 998.938 483.06C999.19 482.407 999.316 481.646 999.316 480.778C999.316 479.91 999.19 479.154 998.938 478.51C998.686 477.857 998.336 477.353 997.888 476.998C997.44 476.634 996.912 476.452 996.306 476.452C995.708 476.452 995.186 476.634 994.738 476.998C994.29 477.353 993.94 477.857 993.688 478.51C993.436 479.154 993.31 479.91 993.31 480.778C993.31 481.637 993.436 482.393 993.688 483.046C993.94 483.699 994.29 484.208 994.738 484.572C995.195 484.936 995.722 485.118 996.32 485.118Z" fill="#999999"/>
<defs>
<linearGradient id="paint0_linear_164_131" x1="531.995" y1="1.49865" x2="531.995" y2="455" gradientUnits="userSpaceOnUse">
<stop stop-color="#86F876"/>
<stop offset="1" stop-color="#86F876" stop-opacity="0"/>
</linearGradient>
<linearGradient id="paint1_linear_164_131" x1="532.206" y1="199.374" x2="532.206" y2="453.913" gradientUnits="userSpaceOnUse">
<stop stop-color="#F87676"/>
<stop offset="1" stop-color="#F87676"/>
</linearGradient>
</defs>
</svg>
