<svg width="25" height="25" viewBox="0 0 25 25" fill="none" xmlns="http://www.w3.org/2000/svg">
<path d="M22.4966 12.6696H12.3275V2.50049C12.3275 2.37537 12.2251 2.27299 12.1 2.27299H11.3607C9.86851 2.27147 8.39074 2.5646 7.01215 3.13555C5.63356 3.70651 4.38128 4.54406 3.32715 5.60014C2.28929 6.63479 1.46253 7.8614 0.892927 9.21166C0.301434 10.6136 0 12.1009 0 13.6365C0 15.1721 0.301434 16.6565 0.892927 18.0585C1.46451 19.4092 2.28351 20.6263 3.32715 21.67C4.37079 22.7136 5.58506 23.5326 6.93867 24.1042C8.33817 24.6979 9.84326 25.0026 11.3635 25C12.8556 25.0015 14.3334 24.7084 15.712 24.1374C17.0906 23.5665 18.3429 22.7289 19.397 21.6728C20.4406 20.6292 21.2596 19.4149 21.8312 18.0613C22.4249 16.6618 22.7296 15.1567 22.727 13.6365V12.8971C22.7241 12.772 22.6218 12.6696 22.4966 12.6696ZM24.9963 11.0914L24.9223 10.2894C24.6806 7.67321 23.5204 5.20487 21.6492 3.34223C19.7798 1.47438 17.3163 0.318598 14.685 0.0748003L13.8802 0.000863714C13.7465 -0.0105112 13.6328 0.0918627 13.6328 0.225517V11.1369C13.6328 11.262 13.7352 11.3644 13.8603 11.3644L24.7688 11.3359C24.9024 11.3331 25.0077 11.2222 24.9963 11.0914Z" fill="#C7C7C7"/>
</svg>
