<svg width="63" height="66" viewBox="0 0 63 66" fill="none" xmlns="http://www.w3.org/2000/svg">
<path d="M39.4934 42.4242C39.4934 42.4242 65.1585 23.4156 62.3116 1.6606C62.2834 1.29117 62.1407 0.940718 61.9044 0.660544C61.642 0.410829 61.305 0.259585 60.9482 0.231414C40.2351 -2.75757 22.1398 24.1955 22.1398 24.1955C6.44047 22.2663 7.58211 25.4792 0.419605 43.1369C-0.951087 46.5028 1.27038 47.6633 3.70636 46.7155L11.516 43.6892L20.9327 53.5703L18.0495 61.776C17.1479 64.3359 18.2495 66.6681 21.4599 65.2315C38.2718 57.7086 41.3331 58.9102 39.4934 42.4242ZM43.1619 20.3483C42.1159 19.2389 41.5311 17.7556 41.5311 16.2118C41.5311 14.668 42.1159 13.1847 43.1619 12.0754C43.6734 11.5344 44.2854 11.1043 44.9618 10.8106C45.6381 10.5169 46.3651 10.3656 47.0995 10.3656C47.8339 10.3656 48.5609 10.5169 49.2372 10.8106C49.9136 11.1043 50.5257 11.5344 51.0371 12.0754C52.0831 13.1847 52.6679 14.668 52.6679 16.2118C52.6679 17.7556 52.0831 19.2389 51.0371 20.3483C50.5257 20.8892 49.9136 21.3193 49.2372 21.613C48.5609 21.9067 47.8339 22.058 47.0995 22.058C46.3651 22.058 45.6381 21.9067 44.9618 21.613C44.2854 21.3193 43.6734 20.8892 43.1619 20.3483Z" fill="#5159FA"/>
</svg>
