<svg width="25" height="24" viewBox="0 0 25 24" fill="none" xmlns="http://www.w3.org/2000/svg">
<g clip-path="url(#clip0_156_148)">
<path d="M24.4 8.30002C23.8 8.30002 23.1 8.20002 22.6 7.80002C22 7.50002 21.6 7.00002 21.2 6.50002C20.9 6.00002 20.7 5.30002 20.6 4.70002C20.6 4.10002 20.7 3.40002 21 2.80002C19.5 1.40002 17.8 0.400024 15.8 -0.0999756C15.5 0.500024 15 1.00002 14.4 1.40002C13.8 1.80002 13.1 2.00002 12.4 2.00002C11.7 2.00002 11 1.80002 10.4 1.40002C9.9 1.10002 9.5 0.600024 9.2 2.44156e-05C7.2 0.500024 5.5 1.50002 4 2.90002C4.3 3.50002 4.4 4.10002 4.4 4.70002C4.4 5.30002 4.1 6.00002 3.8 6.50002C3.5 7.10002 3 7.50002 2.4 7.80002C1.9 8.10002 1.3 8.30002 0.6 8.30002C0.2 9.50002 0 10.7 0 12C0 12.8 0.1 13.7 0.3 14.5C1 14.5 1.7 14.6 2.4 15C3.1 15.4 3.6 15.9 3.9 16.6C4.2 17.3 4.4 18 4.3 18.8C4.2 19.5 3.9 20.2 3.4 20.8C5 22.3 6.9 23.4 8.9 24C9.1 23.2 9.6 22.6 10.3 22.1C10.9 21.6 11.7 21.4 12.5 21.4C13.3 21.4 14.1 21.7 14.7 22.1C15.3 22.6 15.8 23.2 16.1 24C18.2 23.4 20 22.2 21.5 20.7C21 20.1 20.7 19.4 20.6 18.7C20.5 18 20.7 17.2 21 16.5C21.3 15.8 21.9 15.3 22.5 14.9C23.2 14.5 23.9 14.4 24.6 14.5C24.8 13.7 24.9 12.8 24.9 12C25 10.8 24.8 9.50002 24.4 8.30002ZM16.5 13.7C16.3 14.2 16 14.7 15.6 15.1C15.2 15.5 14.7 15.8 14.2 16C13.7 16.2 13.1 16.3 12.5 16.3C11.3 16.3 10.2 15.8 9.4 15C8.6 14.2 8.1 13.2 8.1 12C8.1 10.8 8.6 9.80002 9.4 9.00002C10.2 8.20002 11.3 7.70002 12.5 7.70002C13.1 7.70002 13.6 7.80002 14.2 8.00002C14.7 8.20002 15.2 8.50002 15.6 8.90002C16 9.30002 16.3 9.80002 16.5 10.3C16.7 10.8 16.8 11.4 16.8 12C16.8 12.6 16.8 13.2 16.5 13.7Z" fill="#C7C7C7"/>
</g>
<defs>
<clipPath id="clip0_156_148">
<rect width="25" height="24" fill="white"/>
</clipPath>
</defs>
</svg>
