<svg width="59" height="66" viewBox="0 0 59 66" fill="none" xmlns="http://www.w3.org/2000/svg">
<path d="M27.5763 65.2814C28.5283 65.8027 29.7233 65.7994 30.6754 65.2781C56.6212 50.9861 58.4638 23.063 58.4411 15.1234C58.4386 14.4853 58.2547 13.8617 57.9119 13.3291C57.5691 12.7966 57.0823 12.378 56.5111 12.1249L30.4422 0.283516C30.0274 0.0959988 29.5789 -0.000569303 29.1255 2.52477e-06C28.6721 0.000574353 28.2238 0.0982733 27.8094 0.286836L1.92195 12.1282C1.35911 12.3815 0.879154 12.7954 0.539257 13.3205C0.199361 13.8457 0.0138545 14.46 0.0048386 15.0902C-0.105266 22.9899 1.44591 50.9728 27.5763 65.2814ZM18.4635 27.2237L25.8891 34.8379L39.7914 20.5825L44.3704 25.2779L25.8891 44.2287L13.8845 31.9191L18.4635 27.2237Z" fill="#5159FA"/>
</svg>
