<svg width="64" height="66" viewBox="0 0 64 66" fill="none" xmlns="http://www.w3.org/2000/svg">
<path d="M32 65.6708C23.5131 65.6708 15.3737 62.2113 9.37258 56.0535C3.37142 49.8957 0 41.5439 0 32.8354C0 24.1269 3.37142 15.7751 9.37258 9.61726C15.3737 3.45943 23.5131 0 32 0C40.4869 0 48.6263 3.45943 54.6274 9.61726C60.6286 15.7751 64 24.1269 64 32.8354C64 41.5439 60.6286 49.8957 54.6274 56.0535C48.6263 62.2113 40.4869 65.6708 32 65.6708ZM20.8 29.5518C22.073 29.5518 23.2939 29.0329 24.1941 28.1093C25.0943 27.1856 25.6 25.9328 25.6 24.6265C25.6 23.3203 25.0943 22.0675 24.1941 21.1438C23.2939 20.2201 22.073 19.7012 20.8 19.7012C19.527 19.7012 18.3061 20.2201 17.4059 21.1438C16.5057 22.0675 16 23.3203 16 24.6265C16 25.9328 16.5057 27.1856 17.4059 28.1093C18.3061 29.0329 19.527 29.5518 20.8 29.5518ZM43.2 29.5518C44.473 29.5518 45.6939 29.0329 46.5941 28.1093C47.4943 27.1856 48 25.9328 48 24.6265C48 23.3203 47.4943 22.0675 46.5941 21.1438C45.6939 20.2201 44.473 19.7012 43.2 19.7012C41.927 19.7012 40.7061 20.2201 39.8059 21.1438C38.9057 22.0675 38.4 23.3203 38.4 24.6265C38.4 25.9328 38.9057 27.1856 39.8059 28.1093C40.7061 29.0329 41.927 29.5518 43.2 29.5518ZM50.112 39.4025H13.888C15.2073 43.2507 17.6583 46.5838 20.9025 48.9417C24.1468 51.2996 28.0244 52.5659 32 52.5659C35.9756 52.5659 39.8532 51.2996 43.0975 48.9417C46.3418 46.5838 48.7927 43.2507 50.112 39.4025Z" fill="#5159FA"/>
</svg>
