<svg width="25" height="24" viewBox="0 0 25 24" fill="none" xmlns="http://www.w3.org/2000/svg">
<path d="M25 10.9375C25 16.9781 19.4031 21.875 12.5 21.875C11.262 21.8767 10.029 21.7159 8.83281 21.3969C7.92031 21.8594 5.825 22.7469 2.3 23.325C1.9875 23.375 1.75 23.05 1.87344 22.7594C2.42656 21.4531 2.92656 19.7125 3.07656 18.125C1.1625 16.2031 0 13.6875 0 10.9375C0 4.89687 5.59687 0 12.5 0C19.4031 0 25 4.89687 25 10.9375ZM7.8125 10.9375C7.8125 10.5231 7.64788 10.1257 7.35485 9.83265C7.06183 9.53962 6.6644 9.375 6.25 9.375C5.8356 9.375 5.43817 9.53962 5.14515 9.83265C4.85212 10.1257 4.6875 10.5231 4.6875 10.9375C4.6875 11.3519 4.85212 11.7493 5.14515 12.0424C5.43817 12.3354 5.8356 12.5 6.25 12.5C6.6644 12.5 7.06183 12.3354 7.35485 12.0424C7.64788 11.7493 7.8125 11.3519 7.8125 10.9375ZM14.0625 10.9375C14.0625 10.5231 13.8979 10.1257 13.6049 9.83265C13.3118 9.53962 12.9144 9.375 12.5 9.375C12.0856 9.375 11.6882 9.53962 11.3951 9.83265C11.1021 10.1257 10.9375 10.5231 10.9375 10.9375C10.9375 11.3519 11.1021 11.7493 11.3951 12.0424C11.6882 12.3354 12.0856 12.5 12.5 12.5C12.9144 12.5 13.3118 12.3354 13.6049 12.0424C13.8979 11.7493 14.0625 11.3519 14.0625 10.9375ZM18.75 12.5C19.1644 12.5 19.5618 12.3354 19.8549 12.0424C20.1479 11.7493 20.3125 11.3519 20.3125 10.9375C20.3125 10.5231 20.1479 10.1257 19.8549 9.83265C19.5618 9.53962 19.1644 9.375 18.75 9.375C18.3356 9.375 17.9382 9.53962 17.6451 9.83265C17.3521 10.1257 17.1875 10.5231 17.1875 10.9375C17.1875 11.3519 17.3521 11.7493 17.6451 12.0424C17.9382 12.3354 18.3356 12.5 18.75 12.5Z" fill="#C7C7C7"/>
</svg>
