<svg width="22" height="25" viewBox="0 0 22 25" fill="none" xmlns="http://www.w3.org/2000/svg">
<path fill-rule="evenodd" clip-rule="evenodd" d="M15.8305 0.625606C15.8304 0.495252 15.871 0.368123 15.9468 0.26201C16.0225 0.155897 16.1295 0.07611 16.2529 0.0338153C16.3762 -0.00847938 16.5097 -0.0111656 16.6346 0.0261326C16.7596 0.0634308 16.8697 0.138847 16.9497 0.241827L21.3263 5.86725C21.4117 5.97697 21.458 6.11202 21.458 6.25103C21.458 6.39004 21.4117 6.52509 21.3263 6.63481L16.9497 12.2602C16.8697 12.3632 16.7596 12.4386 16.6346 12.4759C16.5097 12.5132 16.3762 12.5105 16.2529 12.4682C16.1295 12.426 16.0225 12.3462 15.9468 12.2401C15.871 12.1339 15.8304 12.0068 15.8305 11.8765V9.38252C12.4674 9.45252 10.8518 10.0907 10.0402 10.7845C9.2687 11.4439 9.12739 12.2196 8.98046 13.0322L8.94233 13.2416C8.91427 13.3914 8.83241 13.5258 8.71215 13.6195C8.5919 13.7132 8.44153 13.7598 8.28934 13.7504C8.13715 13.741 7.99363 13.6764 7.88579 13.5686C7.77794 13.4609 7.7132 13.3174 7.70374 13.1653C7.59683 11.4477 7.75751 8.95874 8.97109 6.8767C10.149 4.85593 12.2704 3.30206 15.8305 3.13955V0.625606Z" fill="#C7C7C7"/>
<path fill-rule="evenodd" clip-rule="evenodd" d="M5.62751 24.3744C5.62763 24.5047 5.58698 24.6319 5.51124 24.738C5.43551 24.8441 5.32848 24.9239 5.20514 24.9662C5.08181 25.0085 4.94833 25.0112 4.82338 24.9739C4.69844 24.9366 4.58829 24.8612 4.50835 24.7582L0.131732 19.1327C0.0463542 19.023 0 18.888 0 18.749C0 18.61 0.0463542 18.4749 0.131732 18.3652L4.50835 12.7398C4.58829 12.6368 4.69844 12.5614 4.82338 12.5241C4.94833 12.4868 5.08181 12.4895 5.20514 12.5318C5.32848 12.574 5.43551 12.6538 5.51124 12.7599C5.58698 12.8661 5.62763 12.9932 5.62751 13.1235V15.6175C8.99063 15.5475 10.6062 14.9093 11.4178 14.2155C12.1893 13.5561 12.3306 12.7804 12.4775 11.9678L12.5157 11.7584C12.5437 11.6086 12.6256 11.4742 12.7459 11.3805C12.8661 11.2868 13.0165 11.2402 13.1687 11.2496C13.3209 11.259 13.4644 11.3236 13.5722 11.4314C13.6801 11.5391 13.7448 11.6826 13.7543 11.8347C13.8612 13.5523 13.7005 16.0413 12.4869 18.1233C11.309 20.1441 9.18758 21.6979 5.62751 21.8605V24.3744Z" fill="#C7C7C7"/>
</svg>
