<svg width="24" height="20" viewBox="0 0 24 20" fill="none" xmlns="http://www.w3.org/2000/svg">
<path d="M16.185 16.899L13.764 14.4765C12.8278 14.8112 11.8157 14.8732 10.8456 14.6553C9.87554 14.4373 8.98729 13.9483 8.28423 13.2453C7.58117 12.5422 7.09221 11.654 6.87424 10.6839C6.65628 9.71378 6.71827 8.70174 7.053 7.76551L3.963 4.67551C1.407 6.94801 0 9.53101 0 9.53101C0 9.53101 4.5 17.781 12 17.781C13.4406 17.776 14.8649 17.4758 16.185 16.899ZM7.815 2.16301C9.13508 1.58614 10.5594 1.28597 12 1.28101C19.5 1.28101 24 9.53101 24 9.53101C24 9.53101 22.5915 12.1125 20.0385 14.388L16.9455 11.295C17.2802 10.3588 17.3422 9.34673 17.1243 8.37664C16.9063 7.40655 16.4173 6.51829 15.7143 5.81524C15.0112 5.11218 14.123 4.62322 13.1529 4.40525C12.1828 4.18728 11.1707 4.24927 10.2345 4.58401L7.815 2.16451V2.16301Z" fill="white"/>
<path d="M8.28725 9C8.20474 9.57647 8.25762 10.1642 8.4417 10.7167C8.62577 11.2692 8.93599 11.7712 9.34777 12.183C9.75954 12.5948 10.2616 12.905 10.814 13.0891C11.3665 13.2731 11.9543 13.326 12.5308 13.2435L8.28575 9H8.28725ZM15.7123 10.062L11.4688 5.817C12.0452 5.73449 12.633 5.78737 13.1855 5.97145C13.7379 6.15552 14.24 6.46574 14.6517 6.87752C15.0635 7.28929 15.3737 7.79131 15.5578 8.34379C15.7419 8.89628 15.7948 9.48404 15.7123 10.0605V10.062ZM20.4688 19.062L2.46875 1.062L3.53075 0L21.5308 18L20.4688 19.062Z" fill="white"/>
</svg>
